<svg width="402" height="874" viewBox="0 0 402 874" fill="none" xmlns="http://www.w3.org/2000/svg">
<g clip-path="url(#clip0_89_471)">
<rect width="402" height="874" fill="white"/>
<rect width="402" height="68" fill="white"/>
<rect x="24" y="14" width="40" height="40" rx="20" fill="#F3F4F6"/>
<path d="M44 28.166L38.166 34L44 39.834M38.166 34H49.834" stroke="#6B7280" stroke-width="2" stroke-linecap="round"/>
<g clip-path="url(#clip1_89_471)">
<circle cx="159" cy="34" r="4" fill="#2E7D33"/>
<circle cx="173" cy="34" r="4" fill="#2E7D33"/>
<circle cx="187" cy="34" r="4" fill="#2E7D33"/>
<circle cx="201" cy="34" r="4" fill="#E6E8ED"/>
<circle cx="215" cy="34" r="4" fill="#E6E8ED"/>
<circle cx="229" cy="34" r="4" fill="#E6E8ED"/>
<circle cx="243" cy="34" r="4" fill="#E6E8ED"/>
</g>
<path d="M32.7805 86.4261H36.1783L37.8864 88.6236L39.5668 90.581L42.7337 94.5511H39.0036L36.8246 91.8736L35.7074 90.2855L32.7805 86.4261ZM43.0199 83.5455C43.0199 85.6075 42.629 87.3617 41.8473 88.8082C41.0717 90.2547 40.013 91.3596 38.6712 92.1229C37.3355 92.88 35.8336 93.2585 34.1655 93.2585C32.4851 93.2585 30.977 92.8769 29.6413 92.1136C28.3056 91.3504 27.25 90.2455 26.4744 88.799C25.6989 87.3525 25.3111 85.6013 25.3111 83.5455C25.3111 81.4834 25.6989 79.7292 26.4744 78.2827C27.25 76.8362 28.3056 75.7344 29.6413 74.9773C30.977 74.214 32.4851 73.8324 34.1655 73.8324C35.8336 73.8324 37.3355 74.214 38.6712 74.9773C40.013 75.7344 41.0717 76.8362 41.8473 78.2827C42.629 79.7292 43.0199 81.4834 43.0199 83.5455ZM38.9666 83.5455C38.9666 82.2098 38.7666 81.0833 38.3665 80.1662C37.9725 79.2491 37.4155 78.5535 36.6953 78.0795C35.9751 77.6056 35.1319 77.3686 34.1655 77.3686C33.1991 77.3686 32.3558 77.6056 31.6357 78.0795C30.9155 78.5535 30.3554 79.2491 29.9553 80.1662C29.5613 81.0833 29.3643 82.2098 29.3643 83.5455C29.3643 84.8812 29.5613 86.0076 29.9553 86.9247C30.3554 87.8419 30.9155 88.5374 31.6357 89.0114C32.3558 89.4853 33.1991 89.7223 34.1655 89.7223C35.1319 89.7223 35.9751 89.4853 36.6953 89.0114C37.4155 88.5374 37.9725 87.8419 38.3665 86.9247C38.7666 86.0076 38.9666 84.8812 38.9666 83.5455ZM55.002 86.9616V78.8182H58.9352V93H55.1589V90.424H55.0112C54.6911 91.255 54.1587 91.9228 53.4139 92.4276C52.6752 92.9323 51.7735 93.1847 50.7086 93.1847C49.7607 93.1847 48.9267 92.9692 48.2065 92.5384C47.4863 92.1075 46.9231 91.495 46.5169 90.701C46.1168 89.907 45.9136 88.956 45.9075 87.848V78.8182H49.8407V87.1463C49.8469 87.9834 50.0716 88.6451 50.5147 89.1314C50.9579 89.6177 51.5519 89.8608 52.2967 89.8608C52.7707 89.8608 53.2138 89.7531 53.6262 89.5376C54.0386 89.3161 54.371 88.9898 54.6234 88.5589C54.8819 88.1281 55.0081 87.5956 55.002 86.9616ZM66.1254 93.2678C65.2205 93.2678 64.4142 93.1108 63.7063 92.7969C62.9985 92.4768 62.4383 92.0059 62.0259 91.3842C61.6197 90.7564 61.4165 89.9747 61.4165 89.0391C61.4165 88.2512 61.5612 87.5895 61.8505 87.054C62.1398 86.5185 62.5337 86.0876 63.0323 85.7614C63.5309 85.4351 64.0972 85.1889 64.7312 85.0227C65.3713 84.8565 66.0423 84.7396 66.744 84.6719C67.5688 84.5857 68.2335 84.5057 68.7383 84.4318C69.243 84.3518 69.6093 84.2348 69.837 84.081C70.0647 83.9271 70.1786 83.6993 70.1786 83.3977V83.3423C70.1786 82.7576 69.994 82.3052 69.6246 81.9851C69.2615 81.665 68.7444 81.505 68.0735 81.505C67.3656 81.505 66.8024 81.6619 66.3839 81.9759C65.9653 82.2836 65.6883 82.6714 65.5529 83.1392L61.9151 82.8438C62.0998 81.982 62.4629 81.2372 63.0046 80.6094C63.5463 79.9754 64.2449 79.4891 65.1005 79.1506C65.9622 78.8059 66.9594 78.6335 68.092 78.6335C68.8799 78.6335 69.6339 78.7259 70.354 78.9105C71.0804 79.0952 71.7236 79.3814 72.2837 79.7692C72.85 80.157 73.2963 80.6555 73.6225 81.2649C73.9487 81.8681 74.1119 82.5914 74.1119 83.4347V93H70.3817V91.0334H70.271C70.0432 91.4766 69.7385 91.8674 69.3569 92.206C68.9753 92.5384 68.5167 92.8 67.9812 92.9908C67.4457 93.1754 66.8271 93.2678 66.1254 93.2678ZM67.2518 90.5533C67.8304 90.5533 68.3413 90.4394 68.7844 90.2116C69.2276 89.9777 69.5754 89.6638 69.8278 89.2699C70.0801 88.8759 70.2063 88.4297 70.2063 87.9311V86.4261C70.0832 86.5062 69.9139 86.58 69.6985 86.6477C69.4892 86.7093 69.2522 86.7678 68.9876 86.8232C68.7229 86.8724 68.4582 86.9186 68.1935 86.9616C67.9289 86.9986 67.6888 87.0324 67.4734 87.0632C67.0117 87.1309 66.6085 87.2386 66.2638 87.3864C65.9192 87.5341 65.6514 87.7341 65.4606 87.9865C65.2698 88.2327 65.1744 88.5405 65.1744 88.9098C65.1744 89.4453 65.3683 89.8546 65.756 90.1378C66.15 90.4148 66.6486 90.5533 67.2518 90.5533ZM81.0966 74.0909V93H77.1634V74.0909H81.0966ZM96.728 93.277C95.2692 93.277 94.0135 92.9815 92.9609 92.3906C91.9145 91.7936 91.1082 90.9503 90.5419 89.8608C89.9756 88.7652 89.6925 87.4695 89.6925 85.9737C89.6925 84.5149 89.9756 83.2346 90.5419 82.1328C91.1082 81.031 91.9053 80.1723 92.9332 79.5568C93.9673 78.9413 95.1799 78.6335 96.571 78.6335C97.5066 78.6335 98.3776 78.7843 99.1839 79.0859C99.9964 79.3814 100.704 79.8277 101.308 80.4247C101.917 81.0218 102.391 81.7727 102.729 82.6776C103.068 83.5762 103.237 84.6288 103.237 85.8352V86.9155H91.2621V84.478H99.5348C99.5348 83.9117 99.4117 83.41 99.1655 82.973C98.9193 82.536 98.5777 82.1944 98.1406 81.9482C97.7098 81.6958 97.2081 81.5696 96.6357 81.5696C96.0386 81.5696 95.5092 81.7081 95.0476 81.9851C94.5921 82.2559 94.2351 82.6222 93.9766 83.0838C93.718 83.5393 93.5857 84.0471 93.5795 84.6072V86.9247C93.5795 87.6264 93.7088 88.2327 93.9673 88.7436C94.232 89.2545 94.6044 89.6484 95.0845 89.9254C95.5646 90.2024 96.134 90.3409 96.7926 90.3409C97.2296 90.3409 97.6297 90.2794 97.9929 90.1562C98.3561 90.0331 98.6669 89.8485 98.9254 89.6023C99.1839 89.3561 99.3809 89.0545 99.5163 88.6974L103.154 88.9375C102.969 89.8116 102.591 90.5748 102.018 91.2273C101.452 91.8736 100.72 92.3783 99.821 92.7415C98.9285 93.0985 97.8975 93.277 96.728 93.277ZM95.0661 76.9901L97.0234 72.7891H100.661L97.8452 76.9901H95.0661ZM118.229 93.277C116.795 93.277 115.555 92.9723 114.508 92.3629C113.468 91.7474 112.665 90.8918 112.099 89.7962C111.532 88.6944 111.249 87.4171 111.249 85.9645C111.249 84.4995 111.532 83.2192 112.099 82.1236C112.665 81.0218 113.468 80.1662 114.508 79.5568C115.555 78.9413 116.795 78.6335 118.229 78.6335C119.663 78.6335 120.901 78.9413 121.941 79.5568C122.987 80.1662 123.794 81.0218 124.36 82.1236C124.926 83.2192 125.209 84.4995 125.209 85.9645C125.209 87.4171 124.926 88.6944 124.36 89.7962C123.794 90.8918 122.987 91.7474 121.941 92.3629C120.901 92.9723 119.663 93.277 118.229 93.277ZM118.248 90.2301C118.9 90.2301 119.445 90.0455 119.882 89.6761C120.319 89.3007 120.648 88.7898 120.87 88.1435C121.098 87.4972 121.211 86.7616 121.211 85.9368C121.211 85.112 121.098 84.3764 120.87 83.7301C120.648 83.0838 120.319 82.5729 119.882 82.1974C119.445 81.822 118.9 81.6342 118.248 81.6342C117.589 81.6342 117.035 81.822 116.586 82.1974C116.143 82.5729 115.807 83.0838 115.579 83.7301C115.358 84.3764 115.247 85.112 115.247 85.9368C115.247 86.7616 115.358 87.4972 115.579 88.1435C115.807 88.7898 116.143 89.3007 116.586 89.6761C117.035 90.0455 117.589 90.2301 118.248 90.2301ZM137.718 84.8011V93H133.784V78.8182H137.533V81.3203H137.699C138.013 80.4955 138.539 79.843 139.278 79.3629C140.017 78.8767 140.912 78.6335 141.965 78.6335C142.95 78.6335 143.808 78.849 144.541 79.2798C145.273 79.7107 145.843 80.3262 146.249 81.1264C146.655 81.9205 146.858 82.8684 146.858 83.9702V93H142.925V84.6719C142.931 83.804 142.71 83.1269 142.26 82.6406C141.811 82.1482 141.192 81.902 140.404 81.902C139.875 81.902 139.407 82.0159 139.001 82.2436C138.601 82.4714 138.287 82.8037 138.059 83.2408C137.838 83.6716 137.724 84.1918 137.718 84.8011ZM156.366 93.277C154.932 93.277 153.691 92.9723 152.645 92.3629C151.605 91.7474 150.802 90.8918 150.235 89.7962C149.669 88.6944 149.386 87.4171 149.386 85.9645C149.386 84.4995 149.669 83.2192 150.235 82.1236C150.802 81.0218 151.605 80.1662 152.645 79.5568C153.691 78.9413 154.932 78.6335 156.366 78.6335C157.8 78.6335 159.037 78.9413 160.078 79.5568C161.124 80.1662 161.93 81.0218 162.497 82.1236C163.063 83.2192 163.346 84.4995 163.346 85.9645C163.346 87.4171 163.063 88.6944 162.497 89.7962C161.93 90.8918 161.124 91.7474 160.078 92.3629C159.037 92.9723 157.8 93.277 156.366 93.277ZM156.384 90.2301C157.037 90.2301 157.582 90.0455 158.019 89.6761C158.456 89.3007 158.785 88.7898 159.007 88.1435C159.234 87.4972 159.348 86.7616 159.348 85.9368C159.348 85.112 159.234 84.3764 159.007 83.7301C158.785 83.0838 158.456 82.5729 158.019 82.1974C157.582 81.822 157.037 81.6342 156.384 81.6342C155.726 81.6342 155.172 81.822 154.722 82.1974C154.279 82.5729 153.944 83.0838 153.716 83.7301C153.494 84.3764 153.384 85.112 153.384 85.9368C153.384 86.7616 153.494 87.4972 153.716 88.1435C153.944 88.7898 154.279 89.3007 154.722 89.6761C155.172 90.0455 155.726 90.2301 156.384 90.2301ZM165.904 93V78.8182H169.652V81.3203H169.818C170.114 80.4893 170.606 79.8338 171.296 79.3537C171.985 78.8736 172.81 78.6335 173.77 78.6335C174.743 78.6335 175.57 78.8767 176.254 79.3629C176.937 79.843 177.392 80.4955 177.62 81.3203H177.768C178.057 80.5078 178.58 79.8584 179.338 79.3722C180.101 78.8797 181.003 78.6335 182.043 78.6335C183.366 78.6335 184.44 79.0552 185.265 79.8984C186.096 80.7356 186.512 81.9235 186.512 83.4624V93H182.588V84.2379C182.588 83.45 182.378 82.8591 181.96 82.4652C181.541 82.0713 181.018 81.8743 180.39 81.8743C179.676 81.8743 179.119 82.102 178.719 82.5575C178.319 83.0069 178.119 83.6009 178.119 84.3395V93H174.306V84.1548C174.306 83.4593 174.106 82.9053 173.705 82.4929C173.311 82.0805 172.791 81.8743 172.145 81.8743C171.708 81.8743 171.314 81.9851 170.963 82.2067C170.619 82.4221 170.345 82.7268 170.142 83.1207C169.938 83.5085 169.837 83.964 169.837 84.4872V93H165.904ZM196.081 93.277C194.623 93.277 193.367 92.9815 192.314 92.3906C191.268 91.7936 190.462 90.9503 189.895 89.8608C189.329 88.7652 189.046 87.4695 189.046 85.9737C189.046 84.5149 189.329 83.2346 189.895 82.1328C190.462 81.031 191.259 80.1723 192.287 79.5568C193.321 78.9413 194.533 78.6335 195.925 78.6335C196.86 78.6335 197.731 78.7843 198.537 79.0859C199.35 79.3814 200.058 79.8277 200.661 80.4247C201.27 81.0218 201.744 81.7727 202.083 82.6776C202.421 83.5762 202.591 84.6288 202.591 85.8352V86.9155H190.616V84.478H198.888C198.888 83.9117 198.765 83.41 198.519 82.973C198.273 82.536 197.931 82.1944 197.494 81.9482C197.063 81.6958 196.562 81.5696 195.989 81.5696C195.392 81.5696 194.863 81.7081 194.401 81.9851C193.946 82.2559 193.589 82.6222 193.33 83.0838C193.072 83.5393 192.939 84.0471 192.933 84.6072V86.9247C192.933 87.6264 193.062 88.2327 193.321 88.7436C193.586 89.2545 193.958 89.6484 194.438 89.9254C194.918 90.2024 195.488 90.3409 196.146 90.3409C196.583 90.3409 196.983 90.2794 197.346 90.1562C197.71 90.0331 198.02 89.8485 198.279 89.6023C198.537 89.3561 198.734 89.0545 198.87 88.6974L202.508 88.9375C202.323 89.8116 201.944 90.5748 201.372 91.2273C200.806 91.8736 200.073 92.3783 199.175 92.7415C198.282 93.0985 197.251 93.277 196.081 93.277ZM216.401 93.2308C215.324 93.2308 214.348 92.9538 213.474 92.3999C212.606 91.8397 211.917 91.018 211.406 89.9347C210.901 88.8452 210.649 87.5095 210.649 85.9276C210.649 84.3026 210.91 82.9515 211.434 81.8743C211.957 80.791 212.652 79.9815 213.52 79.446C214.394 78.9044 215.351 78.6335 216.392 78.6335C217.186 78.6335 217.847 78.7689 218.377 79.0398C218.912 79.3045 219.343 79.6368 219.669 80.0369C220.002 80.4309 220.254 80.8187 220.426 81.2003H220.547V74.0909H224.471V93H220.593V90.7287H220.426C220.242 91.1226 219.98 91.5135 219.642 91.9013C219.309 92.2829 218.875 92.5999 218.34 92.8523C217.81 93.1046 217.164 93.2308 216.401 93.2308ZM217.647 90.1009C218.281 90.1009 218.817 89.9285 219.254 89.5838C219.697 89.233 220.036 88.7436 220.27 88.1158C220.51 87.4879 220.63 86.7524 220.63 85.9091C220.63 85.0658 220.513 84.3333 220.279 83.7116C220.045 83.09 219.706 82.6098 219.263 82.2713C218.82 81.9328 218.281 81.7635 217.647 81.7635C217.001 81.7635 216.456 81.9389 216.013 82.2898C215.57 82.6406 215.234 83.1269 215.007 83.7486C214.779 84.3703 214.665 85.0904 214.665 85.9091C214.665 86.7339 214.779 87.4633 215.007 88.0973C215.241 88.7251 215.576 89.2176 216.013 89.5746C216.456 89.9254 217.001 90.1009 217.647 90.1009ZM234.112 93.277C232.678 93.277 231.438 92.9723 230.391 92.3629C229.351 91.7474 228.548 90.8918 227.981 89.7962C227.415 88.6944 227.132 87.4171 227.132 85.9645C227.132 84.4995 227.415 83.2192 227.981 82.1236C228.548 81.0218 229.351 80.1662 230.391 79.5568C231.438 78.9413 232.678 78.6335 234.112 78.6335C235.546 78.6335 236.783 78.9413 237.824 79.5568C238.87 80.1662 239.676 81.0218 240.243 82.1236C240.809 83.2192 241.092 84.4995 241.092 85.9645C241.092 87.4171 240.809 88.6944 240.243 89.7962C239.676 90.8918 238.87 91.7474 237.824 92.3629C236.783 92.9723 235.546 93.277 234.112 93.277ZM234.131 90.2301C234.783 90.2301 235.328 90.0455 235.765 89.6761C236.202 89.3007 236.531 88.7898 236.753 88.1435C236.98 87.4972 237.094 86.7616 237.094 85.9368C237.094 85.112 236.98 84.3764 236.753 83.7301C236.531 83.0838 236.202 82.5729 235.765 82.1974C235.328 81.822 234.783 81.6342 234.131 81.6342C233.472 81.6342 232.918 81.822 232.469 82.1974C232.025 82.5729 231.69 83.0838 231.462 83.7301C231.241 84.3764 231.13 85.112 231.13 85.9368C231.13 86.7616 231.241 87.4972 231.462 88.1435C231.69 88.7898 232.025 89.3007 232.469 89.6761C232.918 90.0455 233.472 90.2301 234.131 90.2301ZM249.667 93V78.8182H253.6V93H249.667ZM251.643 76.9901C251.058 76.9901 250.557 76.7962 250.138 76.4084C249.726 76.0144 249.52 75.5436 249.52 74.9957C249.52 74.4541 249.726 73.9893 250.138 73.6016C250.557 73.2076 251.058 73.0107 251.643 73.0107C252.228 73.0107 252.726 73.2076 253.139 73.6016C253.557 73.9893 253.767 74.4541 253.767 74.9957C253.767 75.5436 253.557 76.0144 253.139 76.4084C252.726 76.7962 252.228 76.9901 251.643 76.9901ZM256.751 93V78.8182H260.5V81.3203H260.666C260.961 80.4893 261.454 79.8338 262.143 79.3537C262.833 78.8736 263.657 78.6335 264.618 78.6335C265.59 78.6335 266.418 78.8767 267.101 79.3629C267.785 79.843 268.24 80.4955 268.468 81.3203H268.616C268.905 80.5078 269.428 79.8584 270.185 79.3722C270.948 78.8797 271.85 78.6335 272.89 78.6335C274.214 78.6335 275.288 79.0552 276.113 79.8984C276.944 80.7356 277.359 81.9235 277.359 83.4624V93H273.435V84.2379C273.435 83.45 273.226 82.8591 272.807 82.4652C272.389 82.0713 271.866 81.8743 271.238 81.8743C270.524 81.8743 269.967 82.102 269.567 82.5575C269.166 83.0069 268.966 83.6009 268.966 84.3395V93H265.153V84.1548C265.153 83.4593 264.953 82.9053 264.553 82.4929C264.159 82.0805 263.639 81.8743 262.993 81.8743C262.556 81.8743 262.162 81.9851 261.811 82.2067C261.466 82.4221 261.192 82.7268 260.989 83.1207C260.786 83.5085 260.684 83.964 260.684 84.4872V93H256.751ZM286.874 93.277C285.44 93.277 284.199 92.9723 283.153 92.3629C282.113 91.7474 281.309 90.8918 280.743 89.7962C280.177 88.6944 279.894 87.4171 279.894 85.9645C279.894 84.4995 280.177 83.2192 280.743 82.1236C281.309 81.0218 282.113 80.1662 283.153 79.5568C284.199 78.9413 285.44 78.6335 286.874 78.6335C288.308 78.6335 289.545 78.9413 290.585 79.5568C291.632 80.1662 292.438 81.0218 293.004 82.1236C293.571 83.2192 293.854 84.4995 293.854 85.9645C293.854 87.4171 293.571 88.6944 293.004 89.7962C292.438 90.8918 291.632 91.7474 290.585 92.3629C289.545 92.9723 288.308 93.277 286.874 93.277ZM286.892 90.2301C287.545 90.2301 288.089 90.0455 288.526 89.6761C288.963 89.3007 289.293 88.7898 289.514 88.1435C289.742 87.4972 289.856 86.7616 289.856 85.9368C289.856 85.112 289.742 84.3764 289.514 83.7301C289.293 83.0838 288.963 82.5729 288.526 82.1974C288.089 81.822 287.545 81.6342 286.892 81.6342C286.234 81.6342 285.68 81.822 285.23 82.1974C284.787 82.5729 284.452 83.0838 284.224 83.7301C284.002 84.3764 283.892 85.112 283.892 85.9368C283.892 86.7616 284.002 87.4972 284.224 88.1435C284.452 88.7898 284.787 89.3007 285.23 89.6761C285.68 90.0455 286.234 90.2301 286.892 90.2301ZM285.461 76.9901L287.419 72.7891H291.056L288.24 76.9901H285.461ZM309.176 78.8182L304.218 93H299.786L294.828 78.8182H298.983L301.928 88.9652H302.076L305.012 78.8182H309.176ZM317.195 93.277C315.736 93.277 314.48 92.9815 313.428 92.3906C312.381 91.7936 311.575 90.9503 311.009 89.8608C310.442 88.7652 310.159 87.4695 310.159 85.9737C310.159 84.5149 310.442 83.2346 311.009 82.1328C311.575 81.031 312.372 80.1723 313.4 79.5568C314.434 78.9413 315.647 78.6335 317.038 78.6335C317.973 78.6335 318.844 78.7843 319.651 79.0859C320.463 79.3814 321.171 79.8277 321.774 80.4247C322.384 81.0218 322.858 81.7727 323.196 82.6776C323.535 83.5762 323.704 84.6288 323.704 85.8352V86.9155H311.729V84.478H320.002C320.002 83.9117 319.878 83.41 319.632 82.973C319.386 82.536 319.044 82.1944 318.607 81.9482C318.177 81.6958 317.675 81.5696 317.102 81.5696C316.505 81.5696 315.976 81.7081 315.514 81.9851C315.059 82.2559 314.702 82.6222 314.443 83.0838C314.185 83.5393 314.052 84.0471 314.046 84.6072V86.9247C314.046 87.6264 314.176 88.2327 314.434 88.7436C314.699 89.2545 315.071 89.6484 315.551 89.9254C316.031 90.2024 316.601 90.3409 317.259 90.3409C317.696 90.3409 318.097 90.2794 318.46 90.1562C318.823 90.0331 319.134 89.8485 319.392 89.6023C319.651 89.3561 319.848 89.0545 319.983 88.6974L323.621 88.9375C323.436 89.8116 323.058 90.5748 322.485 91.2273C321.919 91.8736 321.186 92.3783 320.288 92.7415C319.395 93.0985 318.364 93.277 317.195 93.277ZM330.204 74.0909V93H326.271V74.0909H330.204ZM336.734 87.331V87.017C336.74 85.9399 336.836 85.0812 337.02 84.4411C337.211 83.8009 337.488 83.2839 337.851 82.8899C338.214 82.496 338.651 82.139 339.162 81.8189C339.544 81.5727 339.886 81.3172 340.187 81.0526C340.489 80.7879 340.729 80.4955 340.907 80.1754C341.086 79.8492 341.175 79.486 341.175 79.0859C341.175 78.6612 341.074 78.2888 340.87 77.9688C340.667 77.6487 340.393 77.4025 340.049 77.2301C339.71 77.0578 339.335 76.9716 338.922 76.9716C338.522 76.9716 338.144 77.0608 337.787 77.2393C337.43 77.4117 337.137 77.6702 336.909 78.0149C336.682 78.3535 336.559 78.7751 336.54 79.2798H332.773C332.804 78.0488 333.099 77.0331 333.659 76.233C334.22 75.4266 334.961 74.8265 335.885 74.4325C336.808 74.0324 337.827 73.8324 338.941 73.8324C340.166 73.8324 341.249 74.0355 342.191 74.4418C343.132 74.8419 343.871 75.4235 344.407 76.1868C344.942 76.95 345.21 77.8703 345.21 78.9474C345.21 79.6676 345.09 80.3078 344.85 80.8679C344.616 81.4219 344.287 81.9143 343.862 82.3452C343.437 82.7699 342.935 83.1546 342.357 83.4993C341.871 83.7886 341.471 84.0902 341.157 84.4041C340.849 84.718 340.618 85.0812 340.464 85.4936C340.316 85.906 340.239 86.4138 340.233 87.017V87.331H336.734ZM338.562 93.2401C337.947 93.2401 337.42 93.0246 336.983 92.5938C336.552 92.1567 336.34 91.6335 336.346 91.0241C336.34 90.4209 336.552 89.9039 336.983 89.473C337.42 89.0421 337.947 88.8267 338.562 88.8267C339.147 88.8267 339.661 89.0421 340.104 89.473C340.547 89.9039 340.772 90.4209 340.778 91.0241C340.772 91.4304 340.664 91.8028 340.455 92.1413C340.252 92.4737 339.984 92.7415 339.652 92.9446C339.319 93.1416 338.956 93.2401 338.562 93.2401Z" fill="#111827"/>
<path d="M31.9148 112.818H33.1477V119.56C33.1477 120.256 32.9837 120.877 32.6555 121.424C32.3307 121.968 31.8717 122.397 31.2784 122.712C30.6851 123.023 29.9891 123.179 29.1903 123.179C28.3916 123.179 27.6955 123.023 27.1023 122.712C26.509 122.397 26.0483 121.968 25.7202 121.424C25.3954 120.877 25.233 120.256 25.233 119.56V112.818H26.4659V119.46C26.4659 119.957 26.5753 120.4 26.794 120.788C27.0128 121.172 27.3243 121.475 27.7287 121.697C28.1364 121.916 28.6236 122.026 29.1903 122.026C29.7571 122.026 30.2443 121.916 30.652 121.697C31.0597 121.475 31.3712 121.172 31.5866 120.788C31.8054 120.4 31.9148 119.957 31.9148 119.46V112.818ZM40.8599 117.074L39.8059 117.372C39.7396 117.196 39.6419 117.026 39.5126 116.86C39.3867 116.691 39.2143 116.552 38.9956 116.442C38.7768 116.333 38.4967 116.278 38.1554 116.278C37.688 116.278 37.2986 116.386 36.987 116.602C36.6788 116.814 36.5247 117.084 36.5247 117.412C36.5247 117.704 36.6307 117.934 36.8429 118.103C37.055 118.272 37.3864 118.413 37.8372 118.526L38.9707 118.804C39.6535 118.97 40.1622 119.223 40.497 119.565C40.8317 119.903 40.9991 120.339 40.9991 120.872C40.9991 121.31 40.8732 121.701 40.6213 122.045C40.3727 122.39 40.0247 122.662 39.5772 122.861C39.1298 123.06 38.6094 123.159 38.0162 123.159C37.2373 123.159 36.5926 122.99 36.0822 122.652C35.5718 122.314 35.2486 121.82 35.1127 121.17L36.2264 120.892C36.3324 121.303 36.533 121.611 36.8279 121.817C37.1262 122.022 37.5157 122.125 37.9963 122.125C38.5431 122.125 38.9773 122.009 39.2988 121.777C39.6236 121.542 39.786 121.26 39.786 120.932C39.786 120.667 39.6932 120.445 39.5076 120.266C39.322 120.083 39.037 119.947 38.6525 119.858L37.3798 119.56C36.6805 119.394 36.1667 119.137 35.8386 118.789C35.5138 118.438 35.3514 117.999 35.3514 117.472C35.3514 117.041 35.4724 116.66 35.7143 116.328C35.9596 115.997 36.2927 115.737 36.7136 115.548C37.1378 115.359 37.6184 115.264 38.1554 115.264C38.911 115.264 39.5043 115.43 39.9352 115.761C40.3694 116.093 40.6776 116.53 40.8599 117.074ZM45.967 123.159C45.2312 123.159 44.5965 122.997 44.0629 122.672C43.5326 122.344 43.1232 121.886 42.8349 121.3C42.5498 120.71 42.4073 120.024 42.4073 119.241C42.4073 118.459 42.5498 117.77 42.8349 117.173C43.1232 116.573 43.5243 116.106 44.038 115.771C44.555 115.433 45.1583 115.264 45.8477 115.264C46.2454 115.264 46.6381 115.33 47.0259 115.463C47.4137 115.596 47.7667 115.811 48.0849 116.109C48.4031 116.404 48.6566 116.795 48.8455 117.283C49.0344 117.77 49.1289 118.37 49.1289 119.082V119.58H43.2425V118.565H47.9357C47.9357 118.134 47.8496 117.75 47.6772 117.412C47.5082 117.074 47.2662 116.807 46.9513 116.612C46.6398 116.416 46.2719 116.318 45.8477 116.318C45.3803 116.318 44.976 116.434 44.6346 116.666C44.2965 116.895 44.0363 117.193 43.854 117.561C43.6718 117.929 43.5806 118.323 43.5806 118.744V119.42C43.5806 119.997 43.68 120.486 43.8789 120.887C44.0811 121.285 44.3612 121.588 44.7191 121.797C45.0771 122.002 45.493 122.105 45.967 122.105C46.2752 122.105 46.5536 122.062 46.8022 121.976C47.0541 121.886 47.2712 121.754 47.4535 121.578C47.6358 121.399 47.7766 121.177 47.8761 120.912L49.0096 121.23C48.8903 121.615 48.6897 121.953 48.408 122.244C48.1263 122.533 47.7783 122.758 47.364 122.92C46.9497 123.08 46.484 123.159 45.967 123.159ZM57.9535 123.159C57.2641 123.159 56.6592 122.995 56.1388 122.667C55.6218 122.339 55.2174 121.88 54.9258 121.29C54.6374 120.7 54.4933 120.01 54.4933 119.222C54.4933 118.426 54.6374 117.732 54.9258 117.138C55.2174 116.545 55.6218 116.085 56.1388 115.756C56.6592 115.428 57.2641 115.264 57.9535 115.264C58.6429 115.264 59.2461 115.428 59.7631 115.756C60.2835 116.085 60.6879 116.545 60.9762 117.138C61.2679 117.732 61.4137 118.426 61.4137 119.222C61.4137 120.01 61.2679 120.7 60.9762 121.29C60.6879 121.88 60.2835 122.339 59.7631 122.667C59.2461 122.995 58.6429 123.159 57.9535 123.159ZM57.9535 122.105C58.4772 122.105 58.908 121.971 59.2461 121.702C59.5842 121.434 59.8344 121.081 59.9968 120.643C60.1592 120.206 60.2404 119.732 60.2404 119.222C60.2404 118.711 60.1592 118.236 59.9968 117.795C59.8344 117.354 59.5842 116.998 59.2461 116.726C58.908 116.454 58.4772 116.318 57.9535 116.318C57.4298 116.318 56.9989 116.454 56.6609 116.726C56.3228 116.998 56.0726 117.354 55.9102 117.795C55.7478 118.236 55.6665 118.711 55.6665 119.222C55.6665 119.732 55.7478 120.206 55.9102 120.643C56.0726 121.081 56.3228 121.434 56.6609 121.702C56.9989 121.971 57.4298 122.105 57.9535 122.105ZM68.3155 118.406V123H67.1422V115.364H68.2757V116.557H68.3752C68.5542 116.169 68.8259 115.857 69.1905 115.622C69.5551 115.384 70.0257 115.264 70.6025 115.264C71.1195 115.264 71.5719 115.37 71.9597 115.582C72.3475 115.791 72.6491 116.109 72.8645 116.537C73.08 116.961 73.1877 117.498 73.1877 118.148V123H72.0144V118.227C72.0144 117.627 71.8586 117.16 71.5471 116.825C71.2355 116.487 70.8079 116.318 70.2644 116.318C69.8899 116.318 69.5551 116.399 69.2601 116.562C68.9685 116.724 68.7381 116.961 68.5691 117.273C68.4 117.584 68.3155 117.962 68.3155 118.406ZM78.4339 123.159C77.7446 123.159 77.1397 122.995 76.6193 122.667C76.1023 122.339 75.6979 121.88 75.4062 121.29C75.1179 120.7 74.9737 120.01 74.9737 119.222C74.9737 118.426 75.1179 117.732 75.4062 117.138C75.6979 116.545 76.1023 116.085 76.6193 115.756C77.1397 115.428 77.7446 115.264 78.4339 115.264C79.1233 115.264 79.7266 115.428 80.2436 115.756C80.764 116.085 81.1683 116.545 81.4567 117.138C81.7483 117.732 81.8942 118.426 81.8942 119.222C81.8942 120.01 81.7483 120.7 81.4567 121.29C81.1683 121.88 80.764 122.339 80.2436 122.667C79.7266 122.995 79.1233 123.159 78.4339 123.159ZM78.4339 122.105C78.9576 122.105 79.3885 121.971 79.7266 121.702C80.0646 121.434 80.3149 121.081 80.4773 120.643C80.6397 120.206 80.7209 119.732 80.7209 119.222C80.7209 118.711 80.6397 118.236 80.4773 117.795C80.3149 117.354 80.0646 116.998 79.7266 116.726C79.3885 116.454 78.9576 116.318 78.4339 116.318C77.9103 116.318 77.4794 116.454 77.1413 116.726C76.8033 116.998 76.553 117.354 76.3906 117.795C76.2282 118.236 76.147 118.711 76.147 119.222C76.147 119.732 76.2282 120.206 76.3906 120.643C76.553 121.081 76.8033 121.434 77.1413 121.702C77.4794 121.971 77.9103 122.105 78.4339 122.105ZM83.6852 123V115.364H84.8187V116.557H84.9181C85.0772 116.149 85.3341 115.833 85.6887 115.607C86.0434 115.379 86.4693 115.264 86.9664 115.264C87.4702 115.264 87.8895 115.379 88.2243 115.607C88.5623 115.833 88.8258 116.149 89.0147 116.557H89.0943C89.2898 116.162 89.5832 115.849 89.9743 115.617C90.3654 115.382 90.8343 115.264 91.3812 115.264C92.064 115.264 92.6225 115.478 93.0566 115.906C93.4908 116.33 93.7079 116.991 93.7079 117.889V123H92.5346V117.889C92.5346 117.326 92.3805 116.923 92.0723 116.681C91.764 116.439 91.4011 116.318 90.9835 116.318C90.4466 116.318 90.0306 116.481 89.7356 116.805C89.4406 117.127 89.2931 117.535 89.2931 118.028V123H88.1V117.77C88.1 117.336 87.9591 116.986 87.6774 116.721C87.3957 116.452 87.0327 116.318 86.5886 116.318C86.2837 116.318 85.9986 116.399 85.7335 116.562C85.4717 116.724 85.2595 116.95 85.0971 117.238C84.938 117.523 84.8585 117.853 84.8585 118.227V123H83.6852ZM99.0549 123.159C98.3191 123.159 97.6844 122.997 97.1507 122.672C96.6204 122.344 96.2111 121.886 95.9228 121.3C95.6377 120.71 95.4952 120.024 95.4952 119.241C95.4952 118.459 95.6377 117.77 95.9228 117.173C96.2111 116.573 96.6122 116.106 97.1259 115.771C97.6429 115.433 98.2462 115.264 98.9355 115.264C99.3333 115.264 99.726 115.33 100.114 115.463C100.502 115.596 100.855 115.811 101.173 116.109C101.491 116.404 101.744 116.795 101.933 117.283C102.122 117.77 102.217 118.37 102.217 119.082V119.58H96.3304V118.565H101.024C101.024 118.134 100.937 117.75 100.765 117.412C100.596 117.074 100.354 116.807 100.039 116.612C99.7277 116.416 99.3598 116.318 98.9355 116.318C98.4682 116.318 98.0639 116.434 97.7225 116.666C97.3844 116.895 97.1242 117.193 96.9419 117.561C96.7596 117.929 96.6685 118.323 96.6685 118.744V119.42C96.6685 119.997 96.7679 120.486 96.9668 120.887C97.169 121.285 97.449 121.588 97.807 121.797C98.165 122.002 98.5809 122.105 99.0549 122.105C99.3631 122.105 99.6415 122.062 99.8901 121.976C100.142 121.886 100.359 121.754 100.541 121.578C100.724 121.399 100.865 121.177 100.964 120.912L102.097 121.23C101.978 121.615 101.778 121.953 101.496 122.244C101.214 122.533 100.866 122.758 100.452 122.92C100.038 123.08 99.5719 123.159 99.0549 123.159ZM111.041 123.159C110.352 123.159 109.747 122.995 109.227 122.667C108.71 122.339 108.305 121.88 108.014 121.29C107.725 120.7 107.581 120.01 107.581 119.222C107.581 118.426 107.725 117.732 108.014 117.138C108.305 116.545 108.71 116.085 109.227 115.756C109.747 115.428 110.352 115.264 111.041 115.264C111.731 115.264 112.334 115.428 112.851 115.756C113.371 116.085 113.776 116.545 114.064 117.138C114.356 117.732 114.502 118.426 114.502 119.222C114.502 120.01 114.356 120.7 114.064 121.29C113.776 121.88 113.371 122.339 112.851 122.667C112.334 122.995 111.731 123.159 111.041 123.159ZM111.041 122.105C111.565 122.105 111.996 121.971 112.334 121.702C112.672 121.434 112.922 121.081 113.085 120.643C113.247 120.206 113.328 119.732 113.328 119.222C113.328 118.711 113.247 118.236 113.085 117.795C112.922 117.354 112.672 116.998 112.334 116.726C111.996 116.454 111.565 116.318 111.041 116.318C110.518 116.318 110.087 116.454 109.749 116.726C109.411 116.998 109.16 117.354 108.998 117.795C108.836 118.236 108.754 118.711 108.754 119.222C108.754 119.732 108.836 120.206 108.998 120.643C109.16 121.081 109.411 121.434 109.749 121.702C110.087 121.971 110.518 122.105 111.041 122.105ZM119.693 115.364V116.358H115.577V115.364H119.693ZM116.81 123V114.31C116.81 113.872 116.912 113.508 117.118 113.216C117.323 112.924 117.59 112.705 117.918 112.56C118.246 112.414 118.593 112.341 118.957 112.341C119.246 112.341 119.481 112.364 119.663 112.411C119.846 112.457 119.982 112.5 120.071 112.54L119.733 113.554C119.673 113.534 119.59 113.509 119.484 113.479C119.382 113.45 119.246 113.435 119.077 113.435C118.689 113.435 118.409 113.532 118.237 113.728C118.067 113.924 117.983 114.21 117.983 114.588V123H116.81ZM121.338 123V115.364H122.511V123H121.338ZM121.934 114.091C121.705 114.091 121.508 114.013 121.343 113.857C121.18 113.701 121.099 113.514 121.099 113.295C121.099 113.077 121.18 112.889 121.343 112.734C121.508 112.578 121.705 112.5 121.934 112.5C122.163 112.5 122.358 112.578 122.521 112.734C122.686 112.889 122.769 113.077 122.769 113.295C122.769 113.514 122.686 113.701 122.521 113.857C122.358 114.013 122.163 114.091 121.934 114.091ZM127.762 123.159C127.046 123.159 126.43 122.99 125.913 122.652C125.396 122.314 124.998 121.848 124.719 121.255C124.441 120.662 124.302 119.984 124.302 119.222C124.302 118.446 124.444 117.762 124.729 117.168C125.018 116.572 125.419 116.106 125.933 115.771C126.45 115.433 127.053 115.264 127.742 115.264C128.279 115.264 128.763 115.364 129.194 115.562C129.625 115.761 129.978 116.04 130.253 116.398C130.528 116.756 130.699 117.173 130.765 117.651H129.592C129.502 117.303 129.303 116.994 128.995 116.726C128.69 116.454 128.279 116.318 127.762 116.318C127.305 116.318 126.904 116.437 126.559 116.676C126.218 116.911 125.951 117.245 125.759 117.675C125.57 118.103 125.475 118.605 125.475 119.182C125.475 119.772 125.568 120.286 125.754 120.723C125.942 121.161 126.208 121.5 126.549 121.742C126.894 121.984 127.298 122.105 127.762 122.105C128.067 122.105 128.344 122.052 128.592 121.946C128.841 121.84 129.051 121.688 129.224 121.489C129.396 121.29 129.519 121.051 129.592 120.773H130.765C130.699 121.223 130.535 121.629 130.273 121.991C130.014 122.349 129.671 122.634 129.244 122.846C128.819 123.055 128.326 123.159 127.762 123.159ZM132.48 123V115.364H133.653V123H132.48ZM133.077 114.091C132.848 114.091 132.651 114.013 132.485 113.857C132.323 113.701 132.241 113.514 132.241 113.295C132.241 113.077 132.323 112.889 132.485 112.734C132.651 112.578 132.848 112.5 133.077 112.5C133.305 112.5 133.501 112.578 133.663 112.734C133.829 112.889 133.912 113.077 133.912 113.295C133.912 113.514 133.829 113.701 133.663 113.857C133.501 114.013 133.305 114.091 133.077 114.091ZM138.05 123.179C137.566 123.179 137.126 123.088 136.732 122.906C136.338 122.72 136.024 122.453 135.792 122.105C135.56 121.754 135.444 121.33 135.444 120.832C135.444 120.395 135.531 120.04 135.703 119.768C135.875 119.493 136.106 119.278 136.394 119.122C136.682 118.966 137.001 118.85 137.349 118.774C137.7 118.695 138.053 118.632 138.407 118.585C138.872 118.526 139.248 118.481 139.536 118.451C139.828 118.418 140.04 118.363 140.172 118.287C140.308 118.211 140.376 118.078 140.376 117.889V117.849C140.376 117.359 140.242 116.978 139.974 116.706C139.708 116.434 139.306 116.298 138.765 116.298C138.205 116.298 137.766 116.421 137.448 116.666C137.13 116.911 136.906 117.173 136.777 117.452L135.663 117.054C135.862 116.59 136.127 116.229 136.459 115.97C136.793 115.708 137.158 115.526 137.552 115.423C137.95 115.317 138.341 115.264 138.726 115.264C138.971 115.264 139.253 115.294 139.571 115.354C139.892 115.41 140.202 115.528 140.501 115.707C140.802 115.886 141.052 116.156 141.251 116.517C141.45 116.878 141.55 117.362 141.55 117.969V123H140.376V121.966H140.317C140.237 122.132 140.104 122.309 139.919 122.498C139.733 122.687 139.486 122.848 139.178 122.98C138.87 123.113 138.494 123.179 138.05 123.179ZM138.229 122.125C138.693 122.125 139.084 122.034 139.402 121.852C139.723 121.669 139.965 121.434 140.128 121.146C140.293 120.857 140.376 120.554 140.376 120.236V119.162C140.327 119.222 140.217 119.276 140.048 119.326C139.882 119.372 139.69 119.414 139.471 119.45C139.256 119.483 139.046 119.513 138.84 119.54C138.638 119.563 138.474 119.583 138.348 119.599C138.043 119.639 137.758 119.704 137.493 119.793C137.231 119.879 137.019 120.01 136.856 120.186C136.697 120.358 136.618 120.594 136.618 120.892C136.618 121.3 136.769 121.608 137.07 121.817C137.375 122.022 137.761 122.125 138.229 122.125ZM144.864 112.818V123H143.691V112.818H144.864ZM153.834 123.159C153.198 123.159 152.636 122.998 152.149 122.677C151.662 122.352 151.281 121.895 151.006 121.305C150.73 120.711 150.593 120.01 150.593 119.202C150.593 118.4 150.73 117.704 151.006 117.114C151.281 116.524 151.663 116.068 152.154 115.746C152.644 115.425 153.211 115.264 153.854 115.264C154.351 115.264 154.744 115.347 155.032 115.513C155.324 115.675 155.546 115.861 155.699 116.07C155.854 116.275 155.975 116.444 156.062 116.577H156.161V112.818H157.334V123H156.201V121.827H156.062C155.975 121.966 155.853 122.142 155.694 122.354C155.535 122.562 155.308 122.75 155.013 122.915C154.718 123.078 154.325 123.159 153.834 123.159ZM153.993 122.105C154.464 122.105 154.862 121.982 155.187 121.737C155.511 121.489 155.758 121.146 155.927 120.708C156.096 120.267 156.181 119.759 156.181 119.182C156.181 118.612 156.098 118.113 155.932 117.685C155.767 117.254 155.521 116.92 155.197 116.681C154.872 116.439 154.471 116.318 153.993 116.318C153.496 116.318 153.082 116.446 152.751 116.701C152.422 116.953 152.175 117.296 152.01 117.73C151.847 118.161 151.766 118.645 151.766 119.182C151.766 119.725 151.849 120.219 152.015 120.663C152.184 121.104 152.432 121.455 152.76 121.717C153.092 121.976 153.503 122.105 153.993 122.105ZM162.748 123.159C162.059 123.159 161.454 122.995 160.934 122.667C160.417 122.339 160.012 121.88 159.721 121.29C159.432 120.7 159.288 120.01 159.288 119.222C159.288 118.426 159.432 117.732 159.721 117.138C160.012 116.545 160.417 116.085 160.934 115.756C161.454 115.428 162.059 115.264 162.748 115.264C163.438 115.264 164.041 115.428 164.558 115.756C165.078 116.085 165.483 116.545 165.771 117.138C166.063 117.732 166.209 118.426 166.209 119.222C166.209 120.01 166.063 120.7 165.771 121.29C165.483 121.88 165.078 122.339 164.558 122.667C164.041 122.995 163.438 123.159 162.748 123.159ZM162.748 122.105C163.272 122.105 163.703 121.971 164.041 121.702C164.379 121.434 164.629 121.081 164.792 120.643C164.954 120.206 165.035 119.732 165.035 119.222C165.035 118.711 164.954 118.236 164.792 117.795C164.629 117.354 164.379 116.998 164.041 116.726C163.703 116.454 163.272 116.318 162.748 116.318C162.225 116.318 161.794 116.454 161.456 116.726C161.118 116.998 160.867 117.354 160.705 117.795C160.543 118.236 160.461 118.711 160.461 119.222C160.461 119.732 160.543 120.206 160.705 120.643C160.867 121.081 161.118 121.434 161.456 121.702C161.794 121.971 162.225 122.105 162.748 122.105ZM171.937 123V115.364H173.11V123H171.937ZM172.534 114.091C172.305 114.091 172.108 114.013 171.942 113.857C171.78 113.701 171.699 113.514 171.699 113.295C171.699 113.077 171.78 112.889 171.942 112.734C172.108 112.578 172.305 112.5 172.534 112.5C172.762 112.5 172.958 112.578 173.12 112.734C173.286 112.889 173.369 113.077 173.369 113.295C173.369 113.514 173.286 113.701 173.12 113.857C172.958 114.013 172.762 114.091 172.534 114.091ZM175.259 123V115.364H176.393V116.557H176.492C176.651 116.149 176.908 115.833 177.263 115.607C177.618 115.379 178.044 115.264 178.541 115.264C179.044 115.264 179.464 115.379 179.798 115.607C180.137 115.833 180.4 116.149 180.589 116.557H180.669C180.864 116.162 181.157 115.849 181.548 115.617C181.94 115.382 182.409 115.264 182.955 115.264C183.638 115.264 184.197 115.478 184.631 115.906C185.065 116.33 185.282 116.991 185.282 117.889V123H184.109V117.889C184.109 117.326 183.955 116.923 183.646 116.681C183.338 116.439 182.975 116.318 182.558 116.318C182.021 116.318 181.605 116.481 181.31 116.805C181.015 117.127 180.867 117.535 180.867 118.028V123H179.674V117.77C179.674 117.336 179.533 116.986 179.252 116.721C178.97 116.452 178.607 116.318 178.163 116.318C177.858 116.318 177.573 116.399 177.308 116.562C177.046 116.724 176.834 116.95 176.671 117.238C176.512 117.523 176.433 117.853 176.433 118.227V123H175.259ZM190.53 123.159C189.84 123.159 189.235 122.995 188.715 122.667C188.198 122.339 187.794 121.88 187.502 121.29C187.214 120.7 187.069 120.01 187.069 119.222C187.069 118.426 187.214 117.732 187.502 117.138C187.794 116.545 188.198 116.085 188.715 115.756C189.235 115.428 189.84 115.264 190.53 115.264C191.219 115.264 191.822 115.428 192.339 115.756C192.86 116.085 193.264 116.545 193.552 117.138C193.844 117.732 193.99 118.426 193.99 119.222C193.99 120.01 193.844 120.7 193.552 121.29C193.264 121.88 192.86 122.339 192.339 122.667C191.822 122.995 191.219 123.159 190.53 123.159ZM190.53 122.105C191.053 122.105 191.484 121.971 191.822 121.702C192.16 121.434 192.411 121.081 192.573 120.643C192.735 120.206 192.817 119.732 192.817 119.222C192.817 118.711 192.735 118.236 192.573 117.795C192.411 117.354 192.16 116.998 191.822 116.726C191.484 116.454 191.053 116.318 190.53 116.318C190.006 116.318 189.575 116.454 189.237 116.726C188.899 116.998 188.649 117.354 188.486 117.795C188.324 118.236 188.243 118.711 188.243 119.222C188.243 119.732 188.324 120.206 188.486 120.643C188.649 121.081 188.899 121.434 189.237 121.702C189.575 121.971 190.006 122.105 190.53 122.105ZM189.993 114.33L191.206 112.023H192.578L191.027 114.33H189.993ZM201.752 115.364L198.928 123H197.735L194.911 115.364H196.184L198.292 121.449H198.371L200.479 115.364H201.752ZM206.229 123.159C205.493 123.159 204.858 122.997 204.325 122.672C203.794 122.344 203.385 121.886 203.097 121.3C202.812 120.71 202.669 120.024 202.669 119.241C202.669 118.459 202.812 117.77 203.097 117.173C203.385 116.573 203.786 116.106 204.3 115.771C204.817 115.433 205.42 115.264 206.109 115.264C206.507 115.264 206.9 115.33 207.288 115.463C207.675 115.596 208.028 115.811 208.347 116.109C208.665 116.404 208.918 116.795 209.107 117.283C209.296 117.77 209.391 118.37 209.391 119.082V119.58H203.504V118.565H208.197C208.197 118.134 208.111 117.75 207.939 117.412C207.77 117.074 207.528 116.807 207.213 116.612C206.902 116.416 206.534 116.318 206.109 116.318C205.642 116.318 205.238 116.434 204.896 116.666C204.558 116.895 204.298 117.193 204.116 117.561C203.933 117.929 203.842 118.323 203.842 118.744V119.42C203.842 119.997 203.942 120.486 204.141 120.887C204.343 121.285 204.623 121.588 204.981 121.797C205.339 122.002 205.755 122.105 206.229 122.105C206.537 122.105 206.815 122.062 207.064 121.976C207.316 121.886 207.533 121.754 207.715 121.578C207.897 121.399 208.038 121.177 208.138 120.912L209.271 121.23C209.152 121.615 208.951 121.953 208.67 122.244C208.388 122.533 208.04 122.758 207.626 122.92C207.211 123.08 206.746 123.159 206.229 123.159ZM212.349 112.818V123H211.175V112.818H212.349ZM218.435 123V115.364H219.569V116.517H219.648C219.787 116.139 220.039 115.833 220.404 115.597C220.769 115.362 221.18 115.244 221.637 115.244C221.723 115.244 221.831 115.246 221.96 115.249C222.089 115.253 222.187 115.258 222.253 115.264V116.457C222.214 116.447 222.122 116.433 221.98 116.413C221.841 116.389 221.693 116.378 221.537 116.378C221.166 116.378 220.835 116.456 220.543 116.612C220.255 116.764 220.026 116.976 219.857 117.248C219.691 117.516 219.608 117.823 219.608 118.168V123H218.435ZM228.457 119.878V115.364H229.63V123H228.457V121.707H228.377C228.198 122.095 227.92 122.425 227.542 122.697C227.164 122.965 226.687 123.099 226.11 123.099C225.633 123.099 225.209 122.995 224.837 122.786C224.466 122.574 224.174 122.256 223.962 121.832C223.75 121.404 223.644 120.866 223.644 120.216V115.364H224.817V120.136C224.817 120.693 224.973 121.137 225.285 121.469C225.6 121.8 226.001 121.966 226.488 121.966C226.78 121.966 227.076 121.891 227.378 121.742C227.683 121.593 227.938 121.364 228.143 121.056C228.352 120.748 228.457 120.355 228.457 119.878ZM231.779 123V115.364H232.912V116.517H232.992C233.131 116.139 233.383 115.833 233.748 115.597C234.112 115.362 234.523 115.244 234.981 115.244C235.067 115.244 235.175 115.246 235.304 115.249C235.433 115.253 235.531 115.258 235.597 115.264V116.457C235.557 116.447 235.466 116.433 235.324 116.413C235.184 116.389 235.037 116.378 234.881 116.378C234.51 116.378 234.179 116.456 233.887 116.612C233.599 116.764 233.37 116.976 233.201 117.248C233.035 117.516 232.952 117.823 232.952 118.168V123H231.779ZM239.235 123.179C238.751 123.179 238.312 123.088 237.918 122.906C237.523 122.72 237.21 122.453 236.978 122.105C236.746 121.754 236.63 121.33 236.63 120.832C236.63 120.395 236.716 120.04 236.888 119.768C237.061 119.493 237.291 119.278 237.58 119.122C237.868 118.966 238.186 118.85 238.534 118.774C238.885 118.695 239.238 118.632 239.593 118.585C240.057 118.526 240.433 118.481 240.722 118.451C241.013 118.418 241.225 118.363 241.358 118.287C241.494 118.211 241.562 118.078 241.562 117.889V117.849C241.562 117.359 241.428 116.978 241.159 116.706C240.894 116.434 240.491 116.298 239.951 116.298C239.391 116.298 238.952 116.421 238.634 116.666C238.315 116.911 238.092 117.173 237.962 117.452L236.849 117.054C237.048 116.59 237.313 116.229 237.644 115.97C237.979 115.708 238.344 115.526 238.738 115.423C239.136 115.317 239.527 115.264 239.911 115.264C240.156 115.264 240.438 115.294 240.756 115.354C241.078 115.41 241.388 115.528 241.686 115.707C241.988 115.886 242.238 116.156 242.437 116.517C242.636 116.878 242.735 117.362 242.735 117.969V123H241.562V121.966H241.502C241.423 122.132 241.29 122.309 241.104 122.498C240.919 122.687 240.672 122.848 240.364 122.98C240.055 123.113 239.679 123.179 239.235 123.179ZM239.414 122.125C239.878 122.125 240.269 122.034 240.587 121.852C240.909 121.669 241.151 121.434 241.313 121.146C241.479 120.857 241.562 120.554 241.562 120.236V119.162C241.512 119.222 241.403 119.276 241.234 119.326C241.068 119.372 240.876 119.414 240.657 119.45C240.442 119.483 240.231 119.513 240.026 119.54C239.823 119.563 239.659 119.583 239.533 119.599C239.228 119.639 238.943 119.704 238.678 119.793C238.416 119.879 238.204 120.01 238.042 120.186C237.883 120.358 237.803 120.594 237.803 120.892C237.803 121.3 237.954 121.608 238.256 121.817C238.561 122.022 238.947 122.125 239.414 122.125ZM246.05 112.818V123H244.877V112.818H246.05ZM255.239 123.159C254.523 123.159 253.906 122.99 253.389 122.652C252.872 122.314 252.474 121.848 252.196 121.255C251.918 120.662 251.778 119.984 251.778 119.222C251.778 118.446 251.921 117.762 252.206 117.168C252.494 116.572 252.895 116.106 253.409 115.771C253.926 115.433 254.529 115.264 255.219 115.264C255.756 115.264 256.24 115.364 256.67 115.562C257.101 115.761 257.454 116.04 257.729 116.398C258.004 116.756 258.175 117.173 258.241 117.651H257.068C256.979 117.303 256.78 116.994 256.472 116.726C256.167 116.454 255.756 116.318 255.239 116.318C254.781 116.318 254.38 116.437 254.036 116.676C253.694 116.911 253.427 117.245 253.235 117.675C253.046 118.103 252.952 118.605 252.952 119.182C252.952 119.772 253.045 120.286 253.23 120.723C253.419 121.161 253.684 121.5 254.026 121.742C254.37 121.984 254.775 122.105 255.239 122.105C255.544 122.105 255.82 122.052 256.069 121.946C256.317 121.84 256.528 121.688 256.7 121.489C256.873 121.29 256.995 121.051 257.068 120.773H258.241C258.175 121.223 258.011 121.629 257.749 121.991C257.491 122.349 257.148 122.634 256.72 122.846C256.296 123.055 255.802 123.159 255.239 123.159ZM263.059 123.159C262.37 123.159 261.765 122.995 261.244 122.667C260.727 122.339 260.323 121.88 260.031 121.29C259.743 120.7 259.599 120.01 259.599 119.222C259.599 118.426 259.743 117.732 260.031 117.138C260.323 116.545 260.727 116.085 261.244 115.756C261.765 115.428 262.37 115.264 263.059 115.264C263.748 115.264 264.352 115.428 264.869 115.756C265.389 116.085 265.793 116.545 266.082 117.138C266.373 117.732 266.519 118.426 266.519 119.222C266.519 120.01 266.373 120.7 266.082 121.29C265.793 121.88 265.389 122.339 264.869 122.667C264.352 122.995 263.748 123.159 263.059 123.159ZM263.059 122.105C263.583 122.105 264.013 121.971 264.352 121.702C264.69 121.434 264.94 121.081 265.102 120.643C265.265 120.206 265.346 119.732 265.346 119.222C265.346 118.711 265.265 118.236 265.102 117.795C264.94 117.354 264.69 116.998 264.352 116.726C264.013 116.454 263.583 116.318 263.059 116.318C262.535 116.318 262.104 116.454 261.766 116.726C261.428 116.998 261.178 117.354 261.016 117.795C260.853 118.236 260.772 118.711 260.772 119.222C260.772 119.732 260.853 120.206 261.016 120.643C261.178 121.081 261.428 121.434 261.766 121.702C262.104 121.971 262.535 122.105 263.059 122.105ZM269.483 118.406V123H268.31V115.364H269.444V116.557H269.543C269.722 116.169 269.994 115.857 270.358 115.622C270.723 115.384 271.194 115.264 271.77 115.264C272.287 115.264 272.74 115.37 273.128 115.582C273.515 115.791 273.817 116.109 274.032 116.537C274.248 116.961 274.356 117.498 274.356 118.148V123H273.182V118.227C273.182 117.627 273.027 117.16 272.715 116.825C272.403 116.487 271.976 116.318 271.432 116.318C271.058 116.318 270.723 116.399 270.428 116.562C270.136 116.724 269.906 116.961 269.737 117.273C269.568 117.584 269.483 117.962 269.483 118.406ZM279.9 115.364V116.358H275.784V115.364H279.9ZM277.017 123V114.31C277.017 113.872 277.119 113.508 277.325 113.216C277.53 112.924 277.797 112.705 278.125 112.56C278.453 112.414 278.8 112.341 279.164 112.341C279.453 112.341 279.688 112.364 279.87 112.411C280.053 112.457 280.189 112.5 280.278 112.54L279.94 113.554C279.88 113.534 279.797 113.509 279.691 113.479C279.589 113.45 279.453 113.435 279.284 113.435C278.896 113.435 278.616 113.532 278.444 113.728C278.275 113.924 278.19 114.21 278.19 114.588V123H277.017ZM284.332 123.159C283.643 123.159 283.038 122.995 282.518 122.667C282.001 122.339 281.596 121.88 281.305 121.29C281.016 120.7 280.872 120.01 280.872 119.222C280.872 118.426 281.016 117.732 281.305 117.138C281.596 116.545 282.001 116.085 282.518 115.756C283.038 115.428 283.643 115.264 284.332 115.264C285.022 115.264 285.625 115.428 286.142 115.756C286.662 116.085 287.067 116.545 287.355 117.138C287.647 117.732 287.793 118.426 287.793 119.222C287.793 120.01 287.647 120.7 287.355 121.29C287.067 121.88 286.662 122.339 286.142 122.667C285.625 122.995 285.022 123.159 284.332 123.159ZM284.332 122.105C284.856 122.105 285.287 121.971 285.625 121.702C285.963 121.434 286.213 121.081 286.376 120.643C286.538 120.206 286.619 119.732 286.619 119.222C286.619 118.711 286.538 118.236 286.376 117.795C286.213 117.354 285.963 116.998 285.625 116.726C285.287 116.454 284.856 116.318 284.332 116.318C283.809 116.318 283.378 116.454 283.04 116.726C282.702 116.998 282.451 117.354 282.289 117.795C282.127 118.236 282.045 118.711 282.045 119.222C282.045 119.732 282.127 120.206 282.289 120.643C282.451 121.081 282.702 121.434 283.04 121.702C283.378 121.971 283.809 122.105 284.332 122.105ZM289.584 123V115.364H290.717V116.517H290.797C290.936 116.139 291.188 115.833 291.552 115.597C291.917 115.362 292.328 115.244 292.785 115.244C292.872 115.244 292.979 115.246 293.108 115.249C293.238 115.253 293.336 115.258 293.402 115.264V116.457C293.362 116.447 293.271 116.433 293.128 116.413C292.989 116.389 292.842 116.378 292.686 116.378C292.315 116.378 291.983 116.456 291.692 116.612C291.403 116.764 291.175 116.976 291.006 117.248C290.84 117.516 290.757 117.823 290.757 118.168V123H289.584ZM294.793 123V115.364H295.926V116.557H296.026C296.185 116.149 296.442 115.833 296.796 115.607C297.151 115.379 297.577 115.264 298.074 115.264C298.578 115.264 298.997 115.379 299.332 115.607C299.67 115.833 299.933 116.149 300.122 116.557H300.202C300.397 116.162 300.691 115.849 301.082 115.617C301.473 115.382 301.942 115.264 302.489 115.264C303.171 115.264 303.73 115.478 304.164 115.906C304.598 116.33 304.815 116.991 304.815 117.889V123H303.642V117.889C303.642 117.326 303.488 116.923 303.18 116.681C302.871 116.439 302.509 116.318 302.091 116.318C301.554 116.318 301.138 116.481 300.843 116.805C300.548 117.127 300.401 117.535 300.401 118.028V123H299.207V117.77C299.207 117.336 299.067 116.986 298.785 116.721C298.503 116.452 298.14 116.318 297.696 116.318C297.391 116.318 297.106 116.399 296.841 116.562C296.579 116.724 296.367 116.95 296.205 117.238C296.045 117.523 295.966 117.853 295.966 118.227V123H294.793ZM310.162 123.159C309.426 123.159 308.792 122.997 308.258 122.672C307.728 122.344 307.319 121.886 307.03 121.3C306.745 120.71 306.603 120.024 306.603 119.241C306.603 118.459 306.745 117.77 307.03 117.173C307.319 116.573 307.72 116.106 308.233 115.771C308.75 115.433 309.354 115.264 310.043 115.264C310.441 115.264 310.833 115.33 311.221 115.463C311.609 115.596 311.962 115.811 312.28 116.109C312.598 116.404 312.852 116.795 313.041 117.283C313.23 117.77 313.324 118.37 313.324 119.082V119.58H307.438V118.565H312.131C312.131 118.134 312.045 117.75 311.873 117.412C311.703 117.074 311.462 116.807 311.147 116.612C310.835 116.416 310.467 116.318 310.043 116.318C309.576 116.318 309.171 116.434 308.83 116.666C308.492 116.895 308.232 117.193 308.049 117.561C307.867 117.929 307.776 118.323 307.776 118.744V119.42C307.776 119.997 307.875 120.486 308.074 120.887C308.276 121.285 308.556 121.588 308.914 121.797C309.272 122.002 309.688 122.105 310.162 122.105C310.471 122.105 310.749 122.062 310.998 121.976C311.249 121.886 311.467 121.754 311.649 121.578C311.831 121.399 311.972 121.177 312.071 120.912L313.205 121.23C313.086 121.615 312.885 121.953 312.603 122.244C312.322 122.533 311.974 122.758 311.559 122.92C311.145 123.08 310.679 123.159 310.162 123.159ZM25.0739 144V136.364H26.2074V137.517H26.2869C26.4261 137.139 26.678 136.833 27.0426 136.597C27.4072 136.362 27.8182 136.244 28.2756 136.244C28.3617 136.244 28.4695 136.246 28.5987 136.249C28.728 136.253 28.8258 136.258 28.892 136.264V137.457C28.8523 137.447 28.7611 137.433 28.6186 137.413C28.4794 137.389 28.3319 137.378 28.1761 137.378C27.8049 137.378 27.4735 137.456 27.1818 137.612C26.8935 137.764 26.6648 137.976 26.4957 138.248C26.33 138.516 26.2472 138.823 26.2472 139.168V144H25.0739ZM33.2521 144.159C32.5163 144.159 31.8816 143.997 31.348 143.672C30.8177 143.344 30.4084 142.886 30.12 142.3C29.835 141.71 29.6925 141.024 29.6925 140.241C29.6925 139.459 29.835 138.77 30.12 138.173C30.4084 137.573 30.8094 137.106 31.3232 136.771C31.8402 136.433 32.4434 136.264 33.1328 136.264C33.5305 136.264 33.9233 136.33 34.3111 136.463C34.6989 136.596 35.0518 136.811 35.37 137.109C35.6882 137.404 35.9418 137.795 36.1307 138.283C36.3196 138.77 36.4141 139.37 36.4141 140.082V140.58H30.5277V139.565H35.2209C35.2209 139.134 35.1347 138.75 34.9624 138.412C34.7933 138.074 34.5514 137.807 34.2365 137.612C33.925 137.416 33.5571 137.318 33.1328 137.318C32.6655 137.318 32.2611 137.434 31.9197 137.666C31.5817 137.895 31.3215 138.193 31.1392 138.561C30.9569 138.929 30.8658 139.323 30.8658 139.744V140.42C30.8658 140.997 30.9652 141.486 31.1641 141.887C31.3662 142.285 31.6463 142.588 32.0043 142.797C32.3622 143.002 32.7782 143.105 33.2521 143.105C33.5604 143.105 33.8388 143.062 34.0874 142.976C34.3393 142.886 34.5563 142.754 34.7386 142.578C34.9209 142.399 35.0618 142.177 35.1612 141.912L36.2947 142.23C36.1754 142.615 35.9749 142.953 35.6932 143.244C35.4115 143.533 35.0634 143.758 34.6491 143.92C34.2348 144.08 33.7692 144.159 33.2521 144.159ZM41.2812 147.023C40.7145 147.023 40.2273 146.95 39.8196 146.804C39.4119 146.661 39.0722 146.473 38.8004 146.237C38.532 146.005 38.3182 145.757 38.1591 145.491L39.0938 144.835C39.1998 144.974 39.334 145.134 39.4964 145.312C39.6589 145.495 39.8809 145.652 40.1626 145.785C40.4477 145.921 40.8205 145.989 41.2812 145.989C41.8977 145.989 42.4065 145.839 42.8075 145.541C43.2086 145.243 43.4091 144.776 43.4091 144.139V142.588H43.3097C43.2235 142.727 43.1009 142.9 42.9418 143.105C42.786 143.307 42.5606 143.488 42.2656 143.647C41.974 143.803 41.5795 143.881 41.0824 143.881C40.4659 143.881 39.9124 143.735 39.4219 143.443C38.9347 143.152 38.5485 142.727 38.2635 142.17C37.9818 141.614 37.8409 140.937 37.8409 140.142C37.8409 139.36 37.9785 138.679 38.2536 138.099C38.5286 137.515 38.9115 137.065 39.402 136.746C39.8925 136.425 40.4593 136.264 41.1023 136.264C41.5994 136.264 41.9938 136.347 42.2855 136.513C42.5805 136.675 42.8059 136.861 42.9616 137.07C43.1207 137.275 43.2434 137.444 43.3295 137.577H43.4489V136.364H44.5824V144.219C44.5824 144.875 44.4332 145.409 44.1349 145.82C43.84 146.234 43.4422 146.537 42.9418 146.729C42.4446 146.925 41.8911 147.023 41.2812 147.023ZM41.2415 142.827C41.7121 142.827 42.1098 142.719 42.4347 142.504C42.7595 142.288 43.0064 141.978 43.1754 141.574C43.3445 141.17 43.429 140.686 43.429 140.122C43.429 139.572 43.3461 139.086 43.1804 138.665C43.0147 138.245 42.7694 137.915 42.4446 137.676C42.1198 137.437 41.7188 137.318 41.2415 137.318C40.7443 137.318 40.33 137.444 39.9986 137.696C39.6705 137.948 39.4235 138.286 39.2578 138.71C39.0954 139.134 39.0142 139.605 39.0142 140.122C39.0142 140.652 39.0971 141.121 39.2628 141.529C39.4318 141.933 39.6804 142.252 40.0085 142.484C40.34 142.712 40.7509 142.827 41.2415 142.827ZM46.7301 144V136.364H47.9034V144H46.7301ZM47.3267 135.091C47.098 135.091 46.9008 135.013 46.7351 134.857C46.5727 134.701 46.4915 134.514 46.4915 134.295C46.4915 134.077 46.5727 133.889 46.7351 133.734C46.9008 133.578 47.098 133.5 47.3267 133.5C47.5554 133.5 47.7509 133.578 47.9134 133.734C48.0791 133.889 48.1619 134.077 48.1619 134.295C48.1619 134.514 48.0791 134.701 47.9134 134.857C47.7509 135.013 47.5554 135.091 47.3267 135.091ZM55.4615 138.074L54.4075 138.372C54.3412 138.196 54.2434 138.026 54.1142 137.86C53.9882 137.691 53.8159 137.552 53.5971 137.442C53.3784 137.333 53.0983 137.278 52.7569 137.278C52.2896 137.278 51.9002 137.386 51.5886 137.602C51.2804 137.814 51.1262 138.084 51.1262 138.412C51.1262 138.704 51.2323 138.934 51.4444 139.103C51.6565 139.272 51.988 139.413 52.4387 139.526L53.5723 139.804C54.255 139.97 54.7638 140.223 55.0985 140.565C55.4333 140.903 55.6007 141.339 55.6007 141.872C55.6007 142.31 55.4747 142.701 55.2228 143.045C54.9743 143.39 54.6262 143.662 54.1788 143.861C53.7314 144.06 53.211 144.159 52.6177 144.159C51.8388 144.159 51.1942 143.99 50.6838 143.652C50.1734 143.314 49.8502 142.82 49.7143 142.17L50.8279 141.892C50.934 142.303 51.1345 142.611 51.4295 142.817C51.7278 143.022 52.1172 143.125 52.5978 143.125C53.1447 143.125 53.5789 143.009 53.9004 142.777C54.2252 142.542 54.3876 142.26 54.3876 141.932C54.3876 141.667 54.2948 141.445 54.1092 141.266C53.9236 141.083 53.6386 140.947 53.2541 140.858L51.9814 140.56C51.282 140.394 50.7683 140.137 50.4402 139.789C50.1154 139.438 49.9529 138.999 49.9529 138.472C49.9529 138.041 50.0739 137.66 50.3159 137.328C50.5611 136.997 50.8942 136.737 51.3152 136.548C51.7394 136.359 52.22 136.264 52.7569 136.264C53.5126 136.264 54.1059 136.43 54.5368 136.761C54.9709 137.093 55.2792 137.53 55.4615 138.074ZM60.6879 136.364V137.358H56.7305V136.364H60.6879ZM57.8839 134.534H59.0572V141.812C59.0572 142.144 59.1052 142.393 59.2013 142.558C59.3008 142.721 59.4267 142.83 59.5792 142.886C59.735 142.939 59.899 142.966 60.0714 142.966C60.2006 142.966 60.3067 142.959 60.3896 142.946C60.4724 142.929 60.5387 142.916 60.5884 142.906L60.8271 143.96C60.7475 143.99 60.6365 144.02 60.494 144.05C60.3514 144.083 60.1708 144.099 59.9521 144.099C59.6206 144.099 59.2958 144.028 58.9776 143.886C58.6628 143.743 58.4009 143.526 58.1921 143.234C57.9866 142.943 57.8839 142.575 57.8839 142.131V134.534ZM62.4528 144V136.364H63.5863V137.517H63.6658C63.805 137.139 64.0569 136.833 64.4215 136.597C64.7861 136.362 65.1971 136.244 65.6545 136.244C65.7406 136.244 65.8484 136.246 65.9776 136.249C66.1069 136.253 66.2047 136.258 66.271 136.264V137.457C66.2312 137.447 66.14 137.433 65.9975 137.413C65.8583 137.389 65.7108 137.378 65.555 137.378C65.1838 137.378 64.8524 137.456 64.5607 137.612C64.2724 137.764 64.0437 137.976 63.8746 138.248C63.7089 138.516 63.6261 138.823 63.6261 139.168V144H62.4528ZM69.9089 144.179C69.425 144.179 68.9859 144.088 68.5914 143.906C68.197 143.72 67.8838 143.453 67.6518 143.105C67.4198 142.754 67.3038 142.33 67.3038 141.832C67.3038 141.395 67.39 141.04 67.5623 140.768C67.7347 140.493 67.965 140.278 68.2534 140.122C68.5417 139.966 68.8599 139.85 69.2079 139.774C69.5592 139.695 69.9122 139.632 70.2669 139.585C70.7309 139.526 71.1071 139.481 71.3954 139.451C71.6871 139.418 71.8992 139.363 72.0318 139.287C72.1677 139.211 72.2356 139.078 72.2356 138.889V138.849C72.2356 138.359 72.1014 137.978 71.8329 137.706C71.5678 137.434 71.1651 137.298 70.6248 137.298C70.0647 137.298 69.6255 137.421 69.3074 137.666C68.9892 137.911 68.7654 138.173 68.6362 138.452L67.5225 138.054C67.7214 137.59 67.9866 137.229 68.318 136.97C68.6528 136.708 69.0173 136.526 69.4118 136.423C69.8095 136.317 70.2006 136.264 70.585 136.264C70.8303 136.264 71.112 136.294 71.4302 136.354C71.7517 136.41 72.0616 136.528 72.3599 136.707C72.6615 136.886 72.9118 137.156 73.1106 137.517C73.3095 137.878 73.4089 138.362 73.4089 138.969V144H72.2356V142.966H72.176C72.0964 143.132 71.9638 143.309 71.7782 143.498C71.5926 143.687 71.3457 143.848 71.0375 143.98C70.7292 144.113 70.353 144.179 69.9089 144.179ZM70.0879 143.125C70.5519 143.125 70.943 143.034 71.2612 142.852C71.5827 142.669 71.8246 142.434 71.987 142.146C72.1528 141.857 72.2356 141.554 72.2356 141.236V140.162C72.1859 140.222 72.0765 140.276 71.9075 140.326C71.7418 140.372 71.5495 140.414 71.3308 140.45C71.1154 140.483 70.9049 140.513 70.6994 140.54C70.4972 140.563 70.3332 140.583 70.2072 140.599C69.9023 140.639 69.6172 140.704 69.3521 140.793C69.0903 140.879 68.8781 141.01 68.7157 141.186C68.5566 141.358 68.4771 141.594 68.4771 141.892C68.4771 142.3 68.6279 142.608 68.9295 142.817C69.2344 143.022 69.6206 143.125 70.0879 143.125ZM78.4339 144.159C77.7976 144.159 77.2358 143.998 76.7486 143.677C76.2614 143.352 75.8802 142.895 75.6051 142.305C75.33 141.711 75.1925 141.01 75.1925 140.202C75.1925 139.4 75.33 138.704 75.6051 138.114C75.8802 137.524 76.263 137.068 76.7536 136.746C77.2441 136.425 77.8108 136.264 78.4538 136.264C78.951 136.264 79.3438 136.347 79.6321 136.513C79.9238 136.675 80.1458 136.861 80.2983 137.07C80.4541 137.275 80.575 137.444 80.6612 137.577H80.7607V133.818H81.9339V144H80.8004V142.827H80.6612C80.575 142.966 80.4524 143.142 80.2933 143.354C80.1342 143.562 79.9072 143.75 79.6122 143.915C79.3172 144.078 78.9245 144.159 78.4339 144.159ZM78.593 143.105C79.0637 143.105 79.4614 142.982 79.7862 142.737C80.111 142.489 80.358 142.146 80.527 141.708C80.696 141.267 80.7805 140.759 80.7805 140.182C80.7805 139.612 80.6977 139.113 80.532 138.685C80.3662 138.254 80.121 137.92 79.7962 137.681C79.4714 137.439 79.0703 137.318 78.593 137.318C78.0959 137.318 77.6816 137.446 77.3501 137.701C77.022 137.953 76.7751 138.296 76.6094 138.73C76.447 139.161 76.3658 139.645 76.3658 140.182C76.3658 140.725 76.4486 141.219 76.6143 141.663C76.7834 142.104 77.032 142.455 77.3601 142.717C77.6915 142.976 78.1025 143.105 78.593 143.105ZM87.348 144.159C86.6586 144.159 86.0537 143.995 85.5334 143.667C85.0163 143.339 84.612 142.88 84.3203 142.29C84.032 141.7 83.8878 141.01 83.8878 140.222C83.8878 139.426 84.032 138.732 84.3203 138.138C84.612 137.545 85.0163 137.085 85.5334 136.756C86.0537 136.428 86.6586 136.264 87.348 136.264C88.0374 136.264 88.6406 136.428 89.1577 136.756C89.678 137.085 90.0824 137.545 90.3707 138.138C90.6624 138.732 90.8082 139.426 90.8082 140.222C90.8082 141.01 90.6624 141.7 90.3707 142.29C90.0824 142.88 89.678 143.339 89.1577 143.667C88.6406 143.995 88.0374 144.159 87.348 144.159ZM87.348 143.105C87.8717 143.105 88.3026 142.971 88.6406 142.702C88.9787 142.434 89.2289 142.081 89.3913 141.643C89.5537 141.206 89.6349 140.732 89.6349 140.222C89.6349 139.711 89.5537 139.236 89.3913 138.795C89.2289 138.354 88.9787 137.998 88.6406 137.726C88.3026 137.454 87.8717 137.318 87.348 137.318C86.8243 137.318 86.3935 137.454 86.0554 137.726C85.7173 137.998 85.4671 138.354 85.3047 138.795C85.1423 139.236 85.0611 139.711 85.0611 140.222C85.0611 140.732 85.1423 141.206 85.3047 141.643C85.4671 142.081 85.7173 142.434 86.0554 142.702C86.3935 142.971 86.8243 143.105 87.348 143.105ZM93.4544 144.08C93.2091 144.08 92.9986 143.992 92.823 143.816C92.6473 143.64 92.5595 143.43 92.5595 143.185C92.5595 142.939 92.6473 142.729 92.823 142.553C92.9986 142.378 93.2091 142.29 93.4544 142.29C93.6996 142.29 93.9101 142.378 94.0858 142.553C94.2614 142.729 94.3493 142.939 94.3493 143.185C94.3493 143.347 94.3078 143.496 94.225 143.632C94.1454 143.768 94.0377 143.877 93.9018 143.96C93.7692 144.04 93.6201 144.08 93.4544 144.08Z" fill="#6B7280"/>
<mask id="path-12-inside-1_89_471" fill="white">
<path d="M24 173H378V229H24V173Z"/>
</mask>
<path d="M378 229V228H24V229V230H378V229Z" fill="#E5E7EB" mask="url(#path-12-inside-1_89_471)"/>
<path d="M25.5852 208V194.909H27.1705V206.594H33.2557V208H25.5852ZM46.2459 201.455C46.2459 202.835 45.9966 204.028 45.498 205.034C44.9995 206.04 44.3155 206.815 43.4462 207.361C42.5769 207.906 41.584 208.179 40.4675 208.179C39.351 208.179 38.3581 207.906 37.4888 207.361C36.6195 206.815 35.9355 206.04 35.437 205.034C34.9384 204.028 34.6891 202.835 34.6891 201.455C34.6891 200.074 34.9384 198.881 35.437 197.875C35.9355 196.869 36.6195 196.094 37.4888 195.548C38.3581 195.003 39.351 194.73 40.4675 194.73C41.584 194.73 42.5769 195.003 43.4462 195.548C44.3155 196.094 44.9995 196.869 45.498 197.875C45.9966 198.881 46.2459 200.074 46.2459 201.455ZM44.7118 201.455C44.7118 200.321 44.5222 199.364 44.1429 198.585C43.7679 197.805 43.2587 197.214 42.6152 196.814C41.976 196.413 41.2601 196.213 40.4675 196.213C39.6749 196.213 38.9569 196.413 38.3134 196.814C37.6742 197.214 37.165 197.805 36.7857 198.585C36.4107 199.364 36.2232 200.321 36.2232 201.455C36.2232 202.588 36.4107 203.545 36.7857 204.325C37.165 205.104 37.6742 205.695 38.3134 206.095C38.9569 206.496 39.6749 206.696 40.4675 206.696C41.2601 206.696 41.976 206.496 42.6152 206.095C43.2587 205.695 43.7679 205.104 44.1429 204.325C44.5222 203.545 44.7118 202.588 44.7118 201.455ZM47.6506 196.315V194.909H57.4688V196.315H53.3523V208H51.767V196.315H47.6506ZM59.9153 208V194.909H67.8159V196.315H61.5005V200.739H67.4068V202.145H61.5005V206.594H67.9181V208H59.9153ZM75.7356 208V194.909H80.1589C81.1816 194.909 82.0211 195.084 82.6774 195.433C83.3336 195.778 83.8194 196.254 84.1348 196.859C84.4501 197.464 84.6078 198.152 84.6078 198.923C84.6078 199.695 84.4501 200.379 84.1348 200.975C83.8194 201.572 83.3358 202.04 82.6838 202.381C82.0318 202.718 81.1987 202.886 80.1845 202.886H76.6049V201.455H80.1333C80.8322 201.455 81.3947 201.352 81.8208 201.148C82.2512 200.943 82.5623 200.653 82.7541 200.278C82.9501 199.899 83.0481 199.447 83.0481 198.923C83.0481 198.399 82.9501 197.941 82.7541 197.549C82.5581 197.157 82.2449 196.854 81.8145 196.641C81.3841 196.424 80.8152 196.315 80.1078 196.315H77.3208V208H75.7356ZM81.8976 202.119L85.1191 208H83.2782L80.1078 202.119H81.8976ZM95.8402 194.909H97.4254V203.577C97.4254 204.472 97.2145 205.271 96.7926 205.974C96.375 206.673 95.7848 207.224 95.022 207.629C94.2592 208.03 93.3643 208.23 92.3374 208.23C91.3104 208.23 90.4155 208.03 89.6527 207.629C88.8899 207.224 88.2976 206.673 87.8757 205.974C87.4581 205.271 87.2493 204.472 87.2493 203.577V194.909H88.8345V203.449C88.8345 204.088 88.9751 204.657 89.2564 205.156C89.5376 205.65 89.9382 206.04 90.4581 206.325C90.9822 206.607 91.6087 206.747 92.3374 206.747C93.0661 206.747 93.6925 206.607 94.2166 206.325C94.7408 206.04 95.1413 205.65 95.4183 205.156C95.6996 204.657 95.8402 204.088 95.8402 203.449V194.909ZM100.591 208V194.909H105.014C106.037 194.909 106.877 195.084 107.533 195.433C108.189 195.778 108.675 196.254 108.99 196.859C109.306 197.464 109.463 198.152 109.463 198.923C109.463 199.695 109.306 200.379 108.99 200.975C108.675 201.572 108.191 202.04 107.539 202.381C106.887 202.718 106.054 202.886 105.04 202.886H101.46V201.455H104.989C105.688 201.455 106.25 201.352 106.676 201.148C107.107 200.943 107.418 200.653 107.61 200.278C107.806 199.899 107.904 199.447 107.904 198.923C107.904 198.399 107.806 197.941 107.61 197.549C107.414 197.157 107.1 196.854 106.67 196.641C106.24 196.424 105.671 196.315 104.963 196.315H102.176V208H100.591ZM106.753 202.119L109.975 208H108.134L104.963 202.119H106.753ZM112.642 208H110.98L115.787 194.909H117.423L122.23 208H120.568L116.656 196.98H116.554L112.642 208ZM113.255 202.886H119.954V204.293H113.255V202.886ZM124.269 208V194.909H125.854V206.594H131.939V208H124.269ZM149.837 194.909V208H148.303L141.169 197.722H141.042V208H139.456V194.909H140.99L148.15 205.213H148.277V194.909H149.837ZM161.932 208.179C161.182 208.179 160.507 208.03 159.906 207.732C159.305 207.433 158.824 207.024 158.461 206.504C158.099 205.984 157.901 205.392 157.867 204.727H159.401C159.461 205.32 159.729 205.81 160.206 206.197C160.688 206.581 161.263 206.773 161.932 206.773C162.469 206.773 162.947 206.647 163.364 206.396C163.786 206.144 164.116 205.799 164.355 205.36C164.598 204.917 164.719 204.416 164.719 203.858C164.719 203.287 164.594 202.778 164.342 202.33C164.095 201.879 163.754 201.523 163.319 201.263C162.885 201.003 162.388 200.871 161.83 200.866C161.43 200.862 161.018 200.924 160.596 201.052C160.175 201.175 159.827 201.335 159.555 201.531L158.072 201.352L158.864 194.909H165.665V196.315H160.194L159.733 200.176H159.81C160.079 199.963 160.415 199.786 160.82 199.646C161.225 199.505 161.647 199.435 162.086 199.435C162.887 199.435 163.601 199.626 164.227 200.01C164.858 200.389 165.352 200.909 165.71 201.57C166.072 202.23 166.253 202.984 166.253 203.832C166.253 204.668 166.066 205.413 165.691 206.07C165.32 206.722 164.809 207.237 164.157 207.616C163.505 207.991 162.763 208.179 161.932 208.179ZM168.486 205.315V204.011L174.239 194.909H175.185V196.929H174.545L170.199 203.807V203.909H177.946V205.315H168.486ZM174.648 208V204.919V204.312V194.909H176.156V208H174.648ZM189.674 208H185.634V194.909H189.853C191.123 194.909 192.209 195.171 193.113 195.695C194.016 196.215 194.709 196.963 195.19 197.939C195.672 198.911 195.912 200.074 195.912 201.429C195.912 202.793 195.67 203.967 195.184 204.951C194.698 205.931 193.991 206.685 193.062 207.214C192.133 207.738 191.003 208 189.674 208ZM187.219 206.594H189.572C190.654 206.594 191.551 206.385 192.263 205.967C192.974 205.55 193.505 204.955 193.854 204.184C194.204 203.413 194.378 202.494 194.378 201.429C194.378 200.372 194.206 199.462 193.861 198.7C193.515 197.933 193 197.344 192.314 196.935C191.628 196.522 190.773 196.315 189.751 196.315H187.219V206.594ZM198.493 208H196.831L201.638 194.909H203.275L208.081 208H206.419L202.507 196.98H202.405L198.493 208ZM199.107 202.886H205.806V204.293H199.107V202.886ZM219.939 203.909H221.677L223.135 205.827L223.518 206.338L225.691 209.227H223.953L222.521 207.31L222.163 206.824L219.939 203.909ZM226.228 201.455C226.228 202.835 225.979 204.028 225.48 205.034C224.982 206.04 224.298 206.815 223.429 207.361C222.559 207.906 221.566 208.179 220.45 208.179C219.333 208.179 218.341 207.906 217.471 207.361C216.602 206.815 215.918 206.04 215.419 205.034C214.921 204.028 214.672 202.835 214.672 201.455C214.672 200.074 214.921 198.881 215.419 197.875C215.918 196.869 216.602 196.094 217.471 195.548C218.341 195.003 219.333 194.73 220.45 194.73C221.566 194.73 222.559 195.003 223.429 195.548C224.298 196.094 224.982 196.869 225.48 197.875C225.979 198.881 226.228 200.074 226.228 201.455ZM224.694 201.455C224.694 200.321 224.505 199.364 224.125 198.585C223.75 197.805 223.241 197.214 222.598 196.814C221.958 196.413 221.243 196.213 220.45 196.213C219.657 196.213 218.939 196.413 218.296 196.814C217.657 197.214 217.147 197.805 216.768 198.585C216.393 199.364 216.206 200.321 216.206 201.455C216.206 202.588 216.393 203.545 216.768 204.325C217.147 205.104 217.657 205.695 218.296 206.095C218.939 206.496 219.657 206.696 220.45 206.696C221.243 206.696 221.958 206.496 222.598 206.095C223.241 205.695 223.75 205.104 224.125 204.325C224.505 203.545 224.694 202.588 224.694 201.455ZM237.485 194.909H239.07V203.577C239.07 204.472 238.859 205.271 238.437 205.974C238.02 206.673 237.429 207.224 236.667 207.629C235.904 208.03 235.009 208.23 233.982 208.23C232.955 208.23 232.06 208.03 231.297 207.629C230.534 207.224 229.942 206.673 229.52 205.974C229.103 205.271 228.894 204.472 228.894 203.577V194.909H230.479V203.449C230.479 204.088 230.62 204.657 230.901 205.156C231.182 205.65 231.583 206.04 232.103 206.325C232.627 206.607 233.253 206.747 233.982 206.747C234.711 206.747 235.337 206.607 235.861 206.325C236.385 206.04 236.786 205.65 237.063 205.156C237.344 204.657 237.485 204.088 237.485 203.449V194.909ZM242.773 208H241.111L245.917 194.909H247.554L252.361 208H250.699L246.787 196.98H246.684L242.773 208ZM243.386 202.886H250.085V204.293H243.386V202.886ZM258.439 208H254.4V194.909H258.618C259.888 194.909 260.975 195.171 261.878 195.695C262.782 196.215 263.474 196.963 263.956 197.939C264.437 198.911 264.678 200.074 264.678 201.429C264.678 202.793 264.435 203.967 263.949 204.951C263.464 205.931 262.756 206.685 261.827 207.214C260.898 207.738 259.769 208 258.439 208ZM255.985 206.594H258.337C259.42 206.594 260.317 206.385 261.028 205.967C261.74 205.55 262.27 204.955 262.62 204.184C262.969 203.413 263.144 202.494 263.144 201.429C263.144 200.372 262.971 199.462 262.626 198.7C262.281 197.933 261.765 197.344 261.079 196.935C260.393 196.522 259.539 196.315 258.516 196.315H255.985V206.594ZM267.337 208V194.909H271.76C272.783 194.909 273.623 195.084 274.279 195.433C274.935 195.778 275.421 196.254 275.736 196.859C276.052 197.464 276.209 198.152 276.209 198.923C276.209 199.695 276.052 200.379 275.736 200.975C275.421 201.572 274.937 202.04 274.285 202.381C273.633 202.718 272.8 202.886 271.786 202.886H268.206V201.455H271.735C272.434 201.455 272.996 201.352 273.422 201.148C273.853 200.943 274.164 200.653 274.356 200.278C274.552 199.899 274.65 199.447 274.65 198.923C274.65 198.399 274.552 197.941 274.356 197.549C274.16 197.157 273.846 196.854 273.416 196.641C272.986 196.424 272.417 196.315 271.709 196.315H268.922V208H267.337ZM273.499 202.119L276.721 208H274.88L271.709 202.119H273.499ZM279.388 208H277.726L282.533 194.909H284.169L288.976 208H287.314L283.402 196.98H283.3L279.388 208ZM280.001 202.886H286.7V204.293H280.001V202.886ZM306.458 194.909V208H304.924L297.79 197.722H297.663V208H296.077V194.909H297.612L304.771 205.213H304.898V194.909H306.458ZM314.156 205.315V204.011L319.909 194.909H320.855V196.929H320.215L315.869 203.807V203.909H323.616V205.315H314.156ZM320.318 208V204.919V204.312V194.909H321.826V208H320.318ZM330.358 208.179C329.821 208.17 329.284 208.068 328.747 207.872C328.21 207.676 327.72 207.346 327.277 206.881C326.834 206.413 326.478 205.78 326.21 204.983C325.941 204.182 325.807 203.176 325.807 201.966C325.807 200.807 325.915 199.78 326.133 198.885C326.35 197.986 326.665 197.229 327.079 196.616C327.492 195.998 327.991 195.529 328.575 195.21C329.163 194.89 329.825 194.73 330.562 194.73C331.295 194.73 331.947 194.877 332.518 195.171C333.094 195.461 333.563 195.866 333.925 196.386C334.287 196.906 334.521 197.504 334.628 198.182H333.068C332.923 197.594 332.642 197.106 332.224 196.718C331.807 196.33 331.253 196.136 330.562 196.136C329.548 196.136 328.749 196.577 328.165 197.46C327.586 198.342 327.294 199.58 327.29 201.173H327.392C327.631 200.811 327.914 200.502 328.242 200.246C328.575 199.987 328.941 199.786 329.342 199.646C329.742 199.505 330.166 199.435 330.614 199.435C331.364 199.435 332.05 199.622 332.672 199.997C333.294 200.368 333.793 200.881 334.168 201.538C334.543 202.19 334.73 202.938 334.73 203.781C334.73 204.591 334.549 205.332 334.187 206.006C333.825 206.675 333.315 207.207 332.659 207.604C332.007 207.996 331.24 208.188 330.358 208.179ZM330.358 206.773C330.895 206.773 331.376 206.638 331.803 206.37C332.233 206.102 332.572 205.741 332.819 205.29C333.07 204.838 333.196 204.335 333.196 203.781C333.196 203.24 333.075 202.748 332.832 202.305C332.593 201.857 332.263 201.501 331.841 201.237C331.423 200.973 330.946 200.841 330.409 200.841C330.004 200.841 329.627 200.922 329.278 201.084C328.928 201.241 328.621 201.459 328.357 201.736C328.097 202.013 327.893 202.33 327.744 202.688C327.594 203.042 327.52 203.415 327.52 203.807C327.52 204.327 327.641 204.812 327.884 205.264C328.131 205.716 328.468 206.08 328.894 206.357C329.325 206.634 329.812 206.773 330.358 206.773Z" fill="#111827"/>
<rect x="24" y="794" width="354" height="56" rx="12" fill="#2E7D32"/>
<path d="M172.778 819.938H170.29C170.244 819.616 170.152 819.33 170.011 819.08C169.871 818.826 169.691 818.61 169.472 818.432C169.252 818.254 168.998 818.117 168.71 818.023C168.426 817.928 168.117 817.881 167.784 817.881C167.182 817.881 166.657 818.03 166.21 818.33C165.763 818.625 165.417 819.057 165.17 819.625C164.924 820.189 164.801 820.875 164.801 821.682C164.801 822.511 164.924 823.208 165.17 823.773C165.42 824.337 165.769 824.763 166.216 825.051C166.663 825.339 167.18 825.483 167.767 825.483C168.097 825.483 168.402 825.439 168.682 825.352C168.966 825.265 169.218 825.138 169.438 824.972C169.657 824.801 169.839 824.595 169.983 824.352C170.131 824.11 170.233 823.833 170.29 823.523L172.778 823.534C172.714 824.068 172.553 824.583 172.295 825.08C172.042 825.572 171.699 826.013 171.267 826.403C170.839 826.79 170.328 827.097 169.733 827.324C169.142 827.547 168.473 827.659 167.727 827.659C166.689 827.659 165.761 827.424 164.943 826.955C164.129 826.485 163.485 825.805 163.011 824.915C162.542 824.025 162.307 822.947 162.307 821.682C162.307 820.413 162.545 819.333 163.023 818.443C163.5 817.553 164.148 816.875 164.966 816.409C165.784 815.939 166.705 815.705 167.727 815.705C168.402 815.705 169.027 815.799 169.602 815.989C170.182 816.178 170.695 816.455 171.142 816.818C171.589 817.178 171.953 817.619 172.233 818.142C172.517 818.665 172.699 819.263 172.778 819.938ZM178.44 827.67C177.558 827.67 176.795 827.483 176.151 827.108C175.51 826.729 175.016 826.203 174.668 825.528C174.319 824.85 174.145 824.064 174.145 823.17C174.145 822.269 174.319 821.481 174.668 820.807C175.016 820.129 175.51 819.602 176.151 819.227C176.795 818.848 177.558 818.659 178.44 818.659C179.323 818.659 180.084 818.848 180.724 819.227C181.368 819.602 181.865 820.129 182.213 820.807C182.562 821.481 182.736 822.269 182.736 823.17C182.736 824.064 182.562 824.85 182.213 825.528C181.865 826.203 181.368 826.729 180.724 827.108C180.084 827.483 179.323 827.67 178.44 827.67ZM178.452 825.795C178.853 825.795 179.188 825.682 179.457 825.455C179.726 825.223 179.929 824.909 180.065 824.511C180.205 824.114 180.276 823.661 180.276 823.153C180.276 822.646 180.205 822.193 180.065 821.795C179.929 821.398 179.726 821.083 179.457 820.852C179.188 820.621 178.853 820.506 178.452 820.506C178.046 820.506 177.705 820.621 177.429 820.852C177.156 821.083 176.95 821.398 176.81 821.795C176.673 822.193 176.605 822.646 176.605 823.153C176.605 823.661 176.673 824.114 176.81 824.511C176.95 824.909 177.156 825.223 177.429 825.455C177.705 825.682 178.046 825.795 178.452 825.795ZM186.73 822.455V827.5H184.31V818.773H186.616V820.312H186.719C186.912 819.805 187.236 819.403 187.69 819.108C188.145 818.809 188.696 818.659 189.344 818.659C189.95 818.659 190.478 818.792 190.929 819.057C191.38 819.322 191.73 819.701 191.98 820.193C192.23 820.682 192.355 821.265 192.355 821.943V827.5H189.935V822.375C189.938 821.841 189.802 821.424 189.526 821.125C189.249 820.822 188.868 820.67 188.384 820.67C188.058 820.67 187.77 820.741 187.52 820.881C187.274 821.021 187.08 821.225 186.94 821.494C186.804 821.759 186.734 822.08 186.73 822.455ZM198.905 818.773V820.591H193.649V818.773H198.905ZM194.842 816.682H197.263V824.818C197.263 825.042 197.297 825.216 197.365 825.341C197.433 825.462 197.528 825.547 197.649 825.597C197.774 825.646 197.918 825.67 198.081 825.67C198.195 825.67 198.308 825.661 198.422 825.642C198.536 825.619 198.623 825.602 198.683 825.591L199.064 827.392C198.943 827.43 198.772 827.473 198.553 827.523C198.333 827.576 198.066 827.608 197.751 827.619C197.168 827.642 196.657 827.564 196.217 827.386C195.782 827.208 195.443 826.932 195.2 826.557C194.958 826.182 194.839 825.708 194.842 825.136V816.682ZM200.482 827.5V818.773H202.902V827.5H200.482ZM201.697 817.648C201.338 817.648 201.029 817.528 200.771 817.29C200.518 817.047 200.391 816.758 200.391 816.42C200.391 816.087 200.518 815.801 200.771 815.562C201.029 815.32 201.338 815.199 201.697 815.199C202.057 815.199 202.364 815.32 202.618 815.562C202.875 815.801 203.004 816.087 203.004 816.42C203.004 816.758 202.875 817.047 202.618 817.29C202.364 817.528 202.057 817.648 201.697 817.648ZM207.261 822.455V827.5H204.841V818.773H207.148V820.312H207.25C207.443 819.805 207.767 819.403 208.222 819.108C208.676 818.809 209.227 818.659 209.875 818.659C210.481 818.659 211.009 818.792 211.46 819.057C211.911 819.322 212.261 819.701 212.511 820.193C212.761 820.682 212.886 821.265 212.886 821.943V827.5H210.466V822.375C210.47 821.841 210.333 821.424 210.057 821.125C209.78 820.822 209.4 820.67 208.915 820.67C208.589 820.67 208.301 820.741 208.051 820.881C207.805 821.021 207.612 821.225 207.472 821.494C207.335 821.759 207.265 822.08 207.261 822.455ZM220.391 823.784V818.773H222.811V827.5H220.487V825.915H220.396C220.199 826.426 219.872 826.837 219.413 827.148C218.959 827.458 218.404 827.614 217.749 827.614C217.165 827.614 216.652 827.481 216.209 827.216C215.766 826.951 215.419 826.574 215.169 826.085C214.923 825.597 214.798 825.011 214.794 824.33V818.773H217.214V823.898C217.218 824.413 217.357 824.82 217.629 825.119C217.902 825.419 218.268 825.568 218.726 825.568C219.018 825.568 219.29 825.502 219.544 825.369C219.798 825.233 220.002 825.032 220.158 824.767C220.317 824.502 220.394 824.174 220.391 823.784ZM227.236 827.665C226.679 827.665 226.183 827.568 225.747 827.375C225.312 827.178 224.967 826.888 224.713 826.506C224.463 826.119 224.338 825.638 224.338 825.062C224.338 824.578 224.427 824.17 224.605 823.841C224.783 823.511 225.026 823.246 225.332 823.045C225.639 822.845 225.988 822.693 226.378 822.591C226.772 822.489 227.185 822.417 227.616 822.375C228.124 822.322 228.533 822.273 228.844 822.227C229.154 822.178 229.38 822.106 229.52 822.011C229.66 821.917 229.73 821.777 229.73 821.591V821.557C229.73 821.197 229.616 820.919 229.389 820.722C229.166 820.525 228.848 820.426 228.435 820.426C227.999 820.426 227.652 820.523 227.395 820.716C227.137 820.905 226.967 821.144 226.884 821.432L224.645 821.25C224.759 820.72 224.982 820.261 225.315 819.875C225.649 819.485 226.079 819.186 226.605 818.977C227.135 818.765 227.749 818.659 228.446 818.659C228.931 818.659 229.395 818.716 229.838 818.83C230.285 818.943 230.681 819.119 231.026 819.358C231.374 819.597 231.649 819.903 231.849 820.278C232.05 820.65 232.151 821.095 232.151 821.614V827.5H229.855V826.29H229.787C229.647 826.562 229.459 826.803 229.224 827.011C228.99 827.216 228.707 827.377 228.378 827.494C228.048 827.608 227.668 827.665 227.236 827.665ZM227.929 825.994C228.285 825.994 228.599 825.924 228.872 825.784C229.145 825.64 229.359 825.447 229.514 825.205C229.67 824.962 229.747 824.687 229.747 824.381V823.455C229.671 823.504 229.567 823.549 229.435 823.591C229.306 823.629 229.16 823.665 228.997 823.699C228.834 823.729 228.671 823.758 228.509 823.784C228.346 823.807 228.198 823.828 228.065 823.847C227.781 823.888 227.533 823.955 227.321 824.045C227.109 824.136 226.944 824.259 226.827 824.415C226.709 824.566 226.651 824.756 226.651 824.983C226.651 825.312 226.77 825.564 227.009 825.739C227.251 825.909 227.558 825.994 227.929 825.994ZM234.028 827.5V818.773H236.375V820.295H236.466C236.625 819.754 236.892 819.345 237.267 819.068C237.642 818.788 238.074 818.648 238.562 818.648C238.684 818.648 238.814 818.655 238.955 818.67C239.095 818.686 239.218 818.706 239.324 818.733V820.881C239.21 820.847 239.053 820.816 238.852 820.79C238.652 820.763 238.468 820.75 238.301 820.75C237.945 820.75 237.627 820.828 237.347 820.983C237.07 821.134 236.85 821.347 236.688 821.619C236.528 821.892 236.449 822.206 236.449 822.562V827.5H234.028Z" fill="white"/>
</g>
<defs>
<clipPath id="clip0_89_471">
<rect width="402" height="874" fill="white"/>
</clipPath>
<clipPath id="clip1_89_471">
<rect width="92" height="8" fill="white" transform="translate(155 30)"/>
</clipPath>
</defs>
</svg>
