<svg width="402" height="874" viewBox="0 0 402 874" fill="none" xmlns="http://www.w3.org/2000/svg">
<g clip-path="url(#clip0_89_468)">
<rect width="402" height="874" fill="white"/>
<rect width="402" height="68" fill="white"/>
<rect x="24" y="14" width="40" height="40" rx="20" fill="#F3F4F6"/>
<path d="M44 28.166L38.166 34L44 39.834M38.166 34H49.834" stroke="#6B7280" stroke-width="2" stroke-linecap="round"/>
<g clip-path="url(#clip1_89_468)">
<circle cx="159" cy="34" r="4" fill="#2E7D33"/>
<circle cx="173" cy="34" r="4" fill="#E6E8ED"/>
<circle cx="187" cy="34" r="4" fill="#E6E8ED"/>
<circle cx="201" cy="34" r="4" fill="#E6E8ED"/>
<circle cx="215" cy="34" r="4" fill="#E6E8ED"/>
<circle cx="229" cy="34" r="4" fill="#E6E8ED"/>
<circle cx="243" cy="34" r="4" fill="#E6E8ED"/>
</g>
<path d="M32.7805 86.4261H36.1783L37.8864 88.6236L39.5668 90.581L42.7337 94.5511H39.0036L36.8246 91.8736L35.7074 90.2855L32.7805 86.4261ZM43.0199 83.5455C43.0199 85.6075 42.629 87.3617 41.8473 88.8082C41.0717 90.2547 40.013 91.3596 38.6712 92.1229C37.3355 92.88 35.8336 93.2585 34.1655 93.2585C32.4851 93.2585 30.977 92.8769 29.6413 92.1136C28.3056 91.3504 27.25 90.2455 26.4744 88.799C25.6989 87.3525 25.3111 85.6013 25.3111 83.5455C25.3111 81.4834 25.6989 79.7292 26.4744 78.2827C27.25 76.8362 28.3056 75.7344 29.6413 74.9773C30.977 74.214 32.4851 73.8324 34.1655 73.8324C35.8336 73.8324 37.3355 74.214 38.6712 74.9773C40.013 75.7344 41.0717 76.8362 41.8473 78.2827C42.629 79.7292 43.0199 81.4834 43.0199 83.5455ZM38.9666 83.5455C38.9666 82.2098 38.7666 81.0833 38.3665 80.1662C37.9725 79.2491 37.4155 78.5535 36.6953 78.0795C35.9751 77.6056 35.1319 77.3686 34.1655 77.3686C33.1991 77.3686 32.3558 77.6056 31.6357 78.0795C30.9155 78.5535 30.3554 79.2491 29.9553 80.1662C29.5613 81.0833 29.3643 82.2098 29.3643 83.5455C29.3643 84.8812 29.5613 86.0076 29.9553 86.9247C30.3554 87.8419 30.9155 88.5374 31.6357 89.0114C32.3558 89.4853 33.1991 89.7223 34.1655 89.7223C35.1319 89.7223 35.9751 89.4853 36.6953 89.0114C37.4155 88.5374 37.9725 87.8419 38.3665 86.9247C38.7666 86.0076 38.9666 84.8812 38.9666 83.5455ZM55.002 86.9616V78.8182H58.9352V93H55.1589V90.424H55.0112C54.6911 91.255 54.1587 91.9228 53.4139 92.4276C52.6752 92.9323 51.7735 93.1847 50.7086 93.1847C49.7607 93.1847 48.9267 92.9692 48.2065 92.5384C47.4863 92.1075 46.9231 91.495 46.5169 90.701C46.1168 89.907 45.9136 88.956 45.9075 87.848V78.8182H49.8407V87.1463C49.8469 87.9834 50.0716 88.6451 50.5147 89.1314C50.9579 89.6177 51.5519 89.8608 52.2967 89.8608C52.7707 89.8608 53.2138 89.7531 53.6262 89.5376C54.0386 89.3161 54.371 88.9898 54.6234 88.5589C54.8819 88.1281 55.0081 87.5956 55.002 86.9616ZM66.1254 93.2678C65.2205 93.2678 64.4142 93.1108 63.7063 92.7969C62.9985 92.4768 62.4383 92.0059 62.0259 91.3842C61.6197 90.7564 61.4165 89.9747 61.4165 89.0391C61.4165 88.2512 61.5612 87.5895 61.8505 87.054C62.1398 86.5185 62.5337 86.0876 63.0323 85.7614C63.5309 85.4351 64.0972 85.1889 64.7312 85.0227C65.3713 84.8565 66.0423 84.7396 66.744 84.6719C67.5688 84.5857 68.2335 84.5057 68.7383 84.4318C69.243 84.3518 69.6093 84.2348 69.837 84.081C70.0647 83.9271 70.1786 83.6993 70.1786 83.3977V83.3423C70.1786 82.7576 69.994 82.3052 69.6246 81.9851C69.2615 81.665 68.7444 81.505 68.0735 81.505C67.3656 81.505 66.8024 81.6619 66.3839 81.9759C65.9653 82.2836 65.6883 82.6714 65.5529 83.1392L61.9151 82.8438C62.0998 81.982 62.4629 81.2372 63.0046 80.6094C63.5463 79.9754 64.2449 79.4891 65.1005 79.1506C65.9622 78.8059 66.9594 78.6335 68.092 78.6335C68.8799 78.6335 69.6339 78.7259 70.354 78.9105C71.0804 79.0952 71.7236 79.3814 72.2837 79.7692C72.85 80.157 73.2963 80.6555 73.6225 81.2649C73.9487 81.8681 74.1119 82.5914 74.1119 83.4347V93H70.3817V91.0334H70.271C70.0432 91.4766 69.7385 91.8674 69.3569 92.206C68.9753 92.5384 68.5167 92.8 67.9812 92.9908C67.4457 93.1754 66.8271 93.2678 66.1254 93.2678ZM67.2518 90.5533C67.8304 90.5533 68.3413 90.4394 68.7844 90.2116C69.2276 89.9777 69.5754 89.6638 69.8278 89.2699C70.0801 88.8759 70.2063 88.4297 70.2063 87.9311V86.4261C70.0832 86.5062 69.9139 86.58 69.6985 86.6477C69.4892 86.7093 69.2522 86.7678 68.9876 86.8232C68.7229 86.8724 68.4582 86.9186 68.1935 86.9616C67.9289 86.9986 67.6888 87.0324 67.4734 87.0632C67.0117 87.1309 66.6085 87.2386 66.2638 87.3864C65.9192 87.5341 65.6514 87.7341 65.4606 87.9865C65.2698 88.2327 65.1744 88.5405 65.1744 88.9098C65.1744 89.4453 65.3683 89.8546 65.756 90.1378C66.15 90.4148 66.6486 90.5533 67.2518 90.5533ZM81.0966 74.0909V93H77.1634V74.0909H81.0966ZM96.728 93.277C95.2692 93.277 94.0135 92.9815 92.9609 92.3906C91.9145 91.7936 91.1082 90.9503 90.5419 89.8608C89.9756 88.7652 89.6925 87.4695 89.6925 85.9737C89.6925 84.5149 89.9756 83.2346 90.5419 82.1328C91.1082 81.031 91.9053 80.1723 92.9332 79.5568C93.9673 78.9413 95.1799 78.6335 96.571 78.6335C97.5066 78.6335 98.3776 78.7843 99.1839 79.0859C99.9964 79.3814 100.704 79.8277 101.308 80.4247C101.917 81.0218 102.391 81.7727 102.729 82.6776C103.068 83.5762 103.237 84.6288 103.237 85.8352V86.9155H91.2621V84.478H99.5348C99.5348 83.9117 99.4117 83.41 99.1655 82.973C98.9193 82.536 98.5777 82.1944 98.1406 81.9482C97.7098 81.6958 97.2081 81.5696 96.6357 81.5696C96.0386 81.5696 95.5092 81.7081 95.0476 81.9851C94.5921 82.2559 94.2351 82.6222 93.9766 83.0838C93.718 83.5393 93.5857 84.0471 93.5795 84.6072V86.9247C93.5795 87.6264 93.7088 88.2327 93.9673 88.7436C94.232 89.2545 94.6044 89.6484 95.0845 89.9254C95.5646 90.2024 96.134 90.3409 96.7926 90.3409C97.2296 90.3409 97.6297 90.2794 97.9929 90.1562C98.3561 90.0331 98.6669 89.8485 98.9254 89.6023C99.1839 89.3561 99.3809 89.0545 99.5163 88.6974L103.154 88.9375C102.969 89.8116 102.591 90.5748 102.018 91.2273C101.452 91.8736 100.72 92.3783 99.821 92.7415C98.9285 93.0985 97.8975 93.277 96.728 93.277ZM95.0661 76.9901L97.0234 72.7891H100.661L97.8452 76.9901H95.0661ZM118.229 93.277C116.795 93.277 115.555 92.9723 114.508 92.3629C113.468 91.7474 112.665 90.8918 112.099 89.7962C111.532 88.6944 111.249 87.4171 111.249 85.9645C111.249 84.4995 111.532 83.2192 112.099 82.1236C112.665 81.0218 113.468 80.1662 114.508 79.5568C115.555 78.9413 116.795 78.6335 118.229 78.6335C119.663 78.6335 120.901 78.9413 121.941 79.5568C122.987 80.1662 123.794 81.0218 124.36 82.1236C124.926 83.2192 125.209 84.4995 125.209 85.9645C125.209 87.4171 124.926 88.6944 124.36 89.7962C123.794 90.8918 122.987 91.7474 121.941 92.3629C120.901 92.9723 119.663 93.277 118.229 93.277ZM118.248 90.2301C118.9 90.2301 119.445 90.0455 119.882 89.6761C120.319 89.3007 120.648 88.7898 120.87 88.1435C121.098 87.4972 121.211 86.7616 121.211 85.9368C121.211 85.112 121.098 84.3764 120.87 83.7301C120.648 83.0838 120.319 82.5729 119.882 82.1974C119.445 81.822 118.9 81.6342 118.248 81.6342C117.589 81.6342 117.035 81.822 116.586 82.1974C116.143 82.5729 115.807 83.0838 115.579 83.7301C115.358 84.3764 115.247 85.112 115.247 85.9368C115.247 86.7616 115.358 87.4972 115.579 88.1435C115.807 88.7898 116.143 89.3007 116.586 89.6761C117.035 90.0455 117.589 90.2301 118.248 90.2301ZM145.584 82.8622L141.983 83.0838C141.922 82.776 141.789 82.4991 141.586 82.2528C141.383 82.0005 141.115 81.8004 140.783 81.6527C140.457 81.4988 140.066 81.4219 139.61 81.4219C139.001 81.4219 138.487 81.5511 138.069 81.8097C137.65 82.062 137.441 82.4006 137.441 82.8253C137.441 83.1638 137.576 83.45 137.847 83.6839C138.118 83.9179 138.583 84.1056 139.241 84.2472L141.808 84.7642C143.187 85.0473 144.215 85.5028 144.892 86.1307C145.569 86.7585 145.907 87.5833 145.907 88.6051C145.907 89.5346 145.633 90.3501 145.086 91.0518C144.544 91.7536 143.799 92.3014 142.851 92.6953C141.909 93.0831 140.823 93.277 139.592 93.277C137.715 93.277 136.219 92.8861 135.105 92.1044C133.997 91.3165 133.347 90.2455 133.157 88.8913L137.025 88.6882C137.142 89.2607 137.425 89.6977 137.875 89.9993C138.324 90.2947 138.9 90.4425 139.601 90.4425C140.291 90.4425 140.845 90.3101 141.263 90.0455C141.688 89.7746 141.903 89.4268 141.909 89.0021C141.903 88.6451 141.752 88.3527 141.457 88.125C141.162 87.8911 140.706 87.7126 140.091 87.5895L137.635 87.1001C136.25 86.8232 135.219 86.343 134.542 85.6598C133.871 84.9766 133.535 84.1056 133.535 83.0469C133.535 82.1359 133.781 81.3511 134.274 80.6925C134.772 80.0339 135.471 79.526 136.37 79.169C137.275 78.812 138.333 78.6335 139.546 78.6335C141.337 78.6335 142.747 79.0121 143.775 79.7692C144.809 80.5263 145.412 81.5573 145.584 82.8622ZM154.847 93.277C153.388 93.277 152.133 92.9815 151.08 92.3906C150.034 91.7936 149.227 90.9503 148.661 89.8608C148.095 88.7652 147.812 87.4695 147.812 85.9737C147.812 84.5149 148.095 83.2346 148.661 82.1328C149.227 81.031 150.024 80.1723 151.052 79.5568C152.086 78.9413 153.299 78.6335 154.69 78.6335C155.626 78.6335 156.497 78.7843 157.303 79.0859C158.116 79.3814 158.823 79.8277 159.427 80.4247C160.036 81.0218 160.51 81.7727 160.849 82.6776C161.187 83.5762 161.356 84.6288 161.356 85.8352V86.9155H149.381V84.478H157.654C157.654 83.9117 157.531 83.41 157.285 82.973C157.038 82.536 156.697 82.1944 156.26 81.9482C155.829 81.6958 155.327 81.5696 154.755 81.5696C154.158 81.5696 153.628 81.7081 153.167 81.9851C152.711 82.2559 152.354 82.6222 152.096 83.0838C151.837 83.5393 151.705 84.0471 151.699 84.6072V86.9247C151.699 87.6264 151.828 88.2327 152.086 88.7436C152.351 89.2545 152.724 89.6484 153.204 89.9254C153.684 90.2024 154.253 90.3409 154.912 90.3409C155.349 90.3409 155.749 90.2794 156.112 90.1562C156.475 90.0331 156.786 89.8485 157.045 89.6023C157.303 89.3561 157.5 89.0545 157.635 88.6974L161.273 88.9375C161.089 89.8116 160.71 90.5748 160.138 91.2273C159.571 91.8736 158.839 92.3783 157.94 92.7415C157.048 93.0985 156.017 93.277 154.847 93.277ZM173.018 86.9616V78.8182H176.951V93H173.175V90.424H173.027C172.707 91.255 172.174 91.9228 171.43 92.4276C170.691 92.9323 169.789 93.1847 168.724 93.1847C167.776 93.1847 166.942 92.9692 166.222 92.5384C165.502 92.1075 164.939 91.495 164.532 90.701C164.132 89.907 163.929 88.956 163.923 87.848V78.8182H167.856V87.1463C167.863 87.9834 168.087 88.6451 168.53 89.1314C168.974 89.6177 169.568 89.8608 170.312 89.8608C170.786 89.8608 171.229 89.7531 171.642 89.5376C172.054 89.3161 172.387 88.9898 172.639 88.5589C172.898 88.1281 173.024 87.5956 173.018 86.9616ZM202.872 80.7109H198.828C198.754 80.1877 198.604 79.723 198.376 79.3168C198.148 78.9044 197.856 78.5535 197.499 78.2642C197.142 77.9749 196.729 77.7533 196.262 77.5994C195.8 77.4455 195.298 77.3686 194.757 77.3686C193.778 77.3686 192.925 77.6117 192.199 78.098C191.473 78.5781 190.91 79.2798 190.509 80.2031C190.109 81.1203 189.909 82.2344 189.909 83.5455C189.909 84.8935 190.109 86.026 190.509 86.9432C190.916 87.8603 191.482 88.5528 192.208 89.0206C192.935 89.4884 193.775 89.7223 194.729 89.7223C195.264 89.7223 195.76 89.6515 196.215 89.5099C196.677 89.3684 197.086 89.1622 197.443 88.8913C197.8 88.6143 198.096 88.2789 198.33 87.8849C198.57 87.491 198.736 87.0417 198.828 86.5369L202.872 86.5554C202.768 87.4233 202.506 88.2604 202.088 89.0668C201.675 89.867 201.118 90.584 200.416 91.218C199.721 91.8459 198.89 92.3445 197.923 92.7138C196.963 93.0769 195.877 93.2585 194.664 93.2585C192.978 93.2585 191.47 92.8769 190.14 92.1136C188.817 91.3504 187.77 90.2455 187.001 88.799C186.238 87.3525 185.856 85.6013 185.856 83.5455C185.856 81.4834 186.244 79.7292 187.019 78.2827C187.795 76.8362 188.847 75.7344 190.177 74.9773C191.507 74.214 193.002 73.8324 194.664 73.8324C195.76 73.8324 196.776 73.9863 197.711 74.294C198.653 74.6018 199.487 75.0511 200.213 75.642C200.94 76.2268 201.53 76.9439 201.986 77.7933C202.448 78.6428 202.743 79.6153 202.872 80.7109ZM205.739 93V74.0909H213.199C214.634 74.0909 215.855 74.3648 216.865 74.9126C217.874 75.4543 218.644 76.2083 219.173 77.1747C219.709 78.1349 219.976 79.2429 219.976 80.4986C219.976 81.7543 219.706 82.8622 219.164 83.8224C218.622 84.7827 217.837 85.5305 216.809 86.0661C215.788 86.6016 214.55 86.8693 213.098 86.8693H208.343V83.6655H212.452C213.221 83.6655 213.855 83.5331 214.354 83.2685C214.858 82.9976 215.234 82.6252 215.48 82.1513C215.732 81.6712 215.858 81.1203 215.858 80.4986C215.858 79.8707 215.732 79.3229 215.48 78.8551C215.234 78.3812 214.858 78.0149 214.354 77.7564C213.849 77.4917 213.209 77.3594 212.433 77.3594H209.737V93H205.739ZM222.573 93V74.0909H235.093V77.3871H226.571V81.8928H234.262V85.1889H226.571V93H222.573ZM241.088 87.331V87.017C241.094 85.9399 241.189 85.0812 241.374 84.4411C241.565 83.8009 241.842 83.2839 242.205 82.8899C242.568 82.496 243.005 82.139 243.516 81.8189C243.897 81.5727 244.239 81.3172 244.541 81.0526C244.842 80.7879 245.082 80.4955 245.261 80.1754C245.439 79.8492 245.529 79.486 245.529 79.0859C245.529 78.6612 245.427 78.2888 245.224 77.9688C245.021 77.6487 244.747 77.4025 244.402 77.2301C244.064 77.0578 243.688 76.9716 243.276 76.9716C242.876 76.9716 242.497 77.0608 242.14 77.2393C241.783 77.4117 241.491 77.6702 241.263 78.0149C241.035 78.3535 240.912 78.7751 240.894 79.2798H237.127C237.157 78.0488 237.453 77.0331 238.013 76.233C238.573 75.4266 239.315 74.8265 240.238 74.4325C241.161 74.0324 242.18 73.8324 243.294 73.8324C244.519 73.8324 245.602 74.0355 246.544 74.4418C247.486 74.8419 248.225 75.4235 248.76 76.1868C249.296 76.95 249.563 77.8703 249.563 78.9474C249.563 79.6676 249.443 80.3078 249.203 80.8679C248.969 81.4219 248.64 81.9143 248.215 82.3452C247.791 82.7699 247.289 83.1546 246.71 83.4993C246.224 83.7886 245.824 84.0902 245.51 84.4041C245.202 84.718 244.972 85.0812 244.818 85.4936C244.67 85.906 244.593 86.4138 244.587 87.017V87.331H241.088ZM242.916 93.2401C242.3 93.2401 241.774 93.0246 241.337 92.5938C240.906 92.1567 240.694 91.6335 240.7 91.0241C240.694 90.4209 240.906 89.9039 241.337 89.473C241.774 89.0421 242.3 88.8267 242.916 88.8267C243.5 88.8267 244.014 89.0421 244.458 89.473C244.901 89.9039 245.125 90.4209 245.132 91.0241C245.125 91.4304 245.018 91.8028 244.808 92.1413C244.605 92.4737 244.338 92.7415 244.005 92.9446C243.673 93.1416 243.31 93.2401 242.916 93.2401Z" fill="#111827"/>
<path d="M26.4659 112.818V123H25.233V112.818H26.4659ZM29.9522 118.406V123H28.7789V115.364H29.9125V116.557H30.0119C30.1909 116.169 30.4627 115.857 30.8272 115.622C31.1918 115.384 31.6625 115.264 32.2392 115.264C32.7562 115.264 33.2086 115.37 33.5964 115.582C33.9842 115.791 34.2858 116.109 34.5012 116.537C34.7167 116.961 34.8244 117.498 34.8244 118.148V123H33.6511V118.227C33.6511 117.627 33.4953 117.16 33.1838 116.825C32.8722 116.487 32.4447 116.318 31.9011 116.318C31.5266 116.318 31.1918 116.399 30.8968 116.562C30.6052 116.724 30.3748 116.961 30.2058 117.273C30.0368 117.584 29.9522 117.962 29.9522 118.406ZM40.369 115.364V116.358H36.2525V115.364H40.369ZM37.4854 123V114.31C37.4854 113.872 37.5882 113.508 37.7937 113.216C37.9992 112.924 38.266 112.705 38.5941 112.56C38.9222 112.414 39.2686 112.341 39.6332 112.341C39.9215 112.341 40.1568 112.364 40.3391 112.411C40.5214 112.457 40.6573 112.5 40.7468 112.54L40.4087 113.554C40.3491 113.534 40.2662 113.509 40.1602 113.479C40.0574 113.45 39.9215 113.435 39.7525 113.435C39.3647 113.435 39.0846 113.532 38.9123 113.728C38.7433 113.924 38.6587 114.21 38.6587 114.588V123H37.4854ZM44.8011 123.159C44.1117 123.159 43.5069 122.995 42.9865 122.667C42.4695 122.339 42.0651 121.88 41.7734 121.29C41.4851 120.7 41.3409 120.01 41.3409 119.222C41.3409 118.426 41.4851 117.732 41.7734 117.138C42.0651 116.545 42.4695 116.085 42.9865 115.756C43.5069 115.428 44.1117 115.264 44.8011 115.264C45.4905 115.264 46.0938 115.428 46.6108 115.756C47.1312 116.085 47.5355 116.545 47.8239 117.138C48.1155 117.732 48.2614 118.426 48.2614 119.222C48.2614 120.01 48.1155 120.7 47.8239 121.29C47.5355 121.88 47.1312 122.339 46.6108 122.667C46.0938 122.995 45.4905 123.159 44.8011 123.159ZM44.8011 122.105C45.3248 122.105 45.7557 121.971 46.0938 121.702C46.4318 121.434 46.6821 121.081 46.8445 120.643C47.0069 120.206 47.0881 119.732 47.0881 119.222C47.0881 118.711 47.0069 118.236 46.8445 117.795C46.6821 117.354 46.4318 116.998 46.0938 116.726C45.7557 116.454 45.3248 116.318 44.8011 116.318C44.2775 116.318 43.8466 116.454 43.5085 116.726C43.1705 116.998 42.9202 117.354 42.7578 117.795C42.5954 118.236 42.5142 118.711 42.5142 119.222C42.5142 119.732 42.5954 120.206 42.7578 120.643C42.9202 121.081 43.1705 121.434 43.5085 121.702C43.8466 121.971 44.2775 122.105 44.8011 122.105ZM50.0524 123V115.364H51.1859V116.517H51.2654C51.4047 116.139 51.6565 115.833 52.0211 115.597C52.3857 115.362 52.7967 115.244 53.2541 115.244C53.3403 115.244 53.448 115.246 53.5772 115.249C53.7065 115.253 53.8043 115.258 53.8706 115.264V116.457C53.8308 116.447 53.7396 116.433 53.5971 116.413C53.4579 116.389 53.3104 116.378 53.1547 116.378C52.7834 116.378 52.452 116.456 52.1603 116.612C51.872 116.764 51.6433 116.976 51.4743 117.248C51.3085 117.516 51.2257 117.823 51.2257 118.168V123H50.0524ZM55.2614 123V115.364H56.3949V116.557H56.4943C56.6534 116.149 56.9103 115.833 57.2649 115.607C57.6196 115.379 58.0455 115.264 58.5426 115.264C59.0464 115.264 59.4657 115.379 59.8004 115.607C60.1385 115.833 60.402 116.149 60.5909 116.557H60.6705C60.866 116.162 61.1593 115.849 61.5504 115.617C61.9415 115.382 62.4105 115.264 62.9574 115.264C63.6402 115.264 64.1986 115.478 64.6328 115.906C65.067 116.33 65.2841 116.991 65.2841 117.889V123H64.1108V117.889C64.1108 117.326 63.9567 116.923 63.6484 116.681C63.3402 116.439 62.9773 116.318 62.5597 116.318C62.0227 116.318 61.6068 116.481 61.3118 116.805C61.0168 117.127 60.8693 117.535 60.8693 118.028V123H59.6761V117.77C59.6761 117.336 59.5353 116.986 59.2536 116.721C58.9718 116.452 58.6089 116.318 58.1648 116.318C57.8598 116.318 57.5748 116.399 57.3097 116.562C57.0478 116.724 56.8357 116.95 56.6733 117.238C56.5142 117.523 56.4347 117.853 56.4347 118.227V123H55.2614ZM70.631 123.159C69.8952 123.159 69.2605 122.997 68.7269 122.672C68.1966 122.344 67.7873 121.886 67.4989 121.3C67.2139 120.71 67.0714 120.024 67.0714 119.241C67.0714 118.459 67.2139 117.77 67.4989 117.173C67.7873 116.573 68.1883 116.106 68.7021 115.771C69.2191 115.433 69.8223 115.264 70.5117 115.264C70.9094 115.264 71.3022 115.33 71.69 115.463C72.0778 115.596 72.4308 115.811 72.7489 116.109C73.0671 116.404 73.3207 116.795 73.5096 117.283C73.6985 117.77 73.793 118.37 73.793 119.082V119.58H67.9066V118.565H72.5998C72.5998 118.134 72.5136 117.75 72.3413 117.412C72.1722 117.074 71.9303 116.807 71.6154 116.612C71.3039 116.416 70.936 116.318 70.5117 116.318C70.0444 116.318 69.64 116.434 69.2987 116.666C68.9606 116.895 68.7004 117.193 68.5181 117.561C68.3358 117.929 68.2447 118.323 68.2447 118.744V119.42C68.2447 119.997 68.3441 120.486 68.543 120.887C68.7451 121.285 69.0252 121.588 69.3832 121.797C69.7411 122.002 70.1571 122.105 70.631 122.105C70.9393 122.105 71.2177 122.062 71.4663 121.976C71.7182 121.886 71.9353 121.754 72.1175 121.578C72.2998 121.399 72.4407 121.177 72.5401 120.912L73.6737 121.23C73.5543 121.615 73.3538 121.953 73.0721 122.244C72.7904 122.533 72.4424 122.758 72.0281 122.92C71.6138 123.08 71.1481 123.159 70.631 123.159ZM82.6175 123.159C81.9281 123.159 81.3233 122.995 80.8029 122.667C80.2859 122.339 79.8815 121.88 79.5898 121.29C79.3015 120.7 79.1573 120.01 79.1573 119.222C79.1573 118.426 79.3015 117.732 79.5898 117.138C79.8815 116.545 80.2859 116.085 80.8029 115.756C81.3233 115.428 81.9281 115.264 82.6175 115.264C83.3069 115.264 83.9102 115.428 84.4272 115.756C84.9476 116.085 85.3519 116.545 85.6403 117.138C85.9319 117.732 86.0778 118.426 86.0778 119.222C86.0778 120.01 85.9319 120.7 85.6403 121.29C85.3519 121.88 84.9476 122.339 84.4272 122.667C83.9102 122.995 83.3069 123.159 82.6175 123.159ZM82.6175 122.105C83.1412 122.105 83.5721 121.971 83.9102 121.702C84.2482 121.434 84.4985 121.081 84.6609 120.643C84.8233 120.206 84.9045 119.732 84.9045 119.222C84.9045 118.711 84.8233 118.236 84.6609 117.795C84.4985 117.354 84.2482 116.998 83.9102 116.726C83.5721 116.454 83.1412 116.318 82.6175 116.318C82.0939 116.318 81.663 116.454 81.3249 116.726C80.9869 116.998 80.7366 117.354 80.5742 117.795C80.4118 118.236 80.3306 118.711 80.3306 119.222C80.3306 119.732 80.4118 120.206 80.5742 120.643C80.7366 121.081 80.9869 121.434 81.3249 121.702C81.663 121.971 82.0939 122.105 82.6175 122.105ZM100.159 116H98.9256C98.8527 115.645 98.7251 115.334 98.5428 115.065C98.3638 114.797 98.1451 114.571 97.8865 114.389C97.6313 114.204 97.348 114.064 97.0364 113.972C96.7248 113.879 96.4 113.832 96.062 113.832C95.4455 113.832 94.887 113.988 94.3865 114.3C93.8894 114.611 93.4933 115.07 93.1983 115.677C92.9067 116.283 92.7608 117.027 92.7608 117.909C92.7608 118.791 92.9067 119.535 93.1983 120.141C93.4933 120.748 93.8894 121.207 94.3865 121.518C94.887 121.83 95.4455 121.986 96.062 121.986C96.4 121.986 96.7248 121.939 97.0364 121.847C97.348 121.754 97.6313 121.616 97.8865 121.434C98.1451 121.248 98.3638 121.021 98.5428 120.753C98.7251 120.481 98.8527 120.17 98.9256 119.818H100.159C100.066 120.339 99.8967 120.804 99.6515 121.215C99.4062 121.626 99.1013 121.976 98.7367 122.264C98.3721 122.549 97.9628 122.766 97.5087 122.915C97.0579 123.065 96.5757 123.139 96.062 123.139C95.1936 123.139 94.4213 122.927 93.7452 122.503C93.0691 122.079 92.5371 121.475 92.1493 120.693C91.7615 119.911 91.5676 118.983 91.5676 117.909C91.5676 116.835 91.7615 115.907 92.1493 115.125C92.5371 114.343 93.0691 113.74 93.7452 113.315C94.4213 112.891 95.1936 112.679 96.062 112.679C96.5757 112.679 97.0579 112.754 97.5087 112.903C97.9628 113.052 98.3721 113.271 98.7367 113.559C99.1013 113.844 99.4062 114.192 99.6515 114.603C99.8967 115.011 100.066 115.476 100.159 116ZM102.151 123V112.818H105.591C106.39 112.818 107.043 112.962 107.55 113.251C108.06 113.536 108.438 113.922 108.684 114.409C108.929 114.896 109.051 115.44 109.051 116.04C109.051 116.64 108.929 117.185 108.684 117.675C108.442 118.166 108.067 118.557 107.56 118.849C107.053 119.137 106.403 119.281 105.611 119.281H103.145V118.188H105.571C106.118 118.188 106.557 118.093 106.889 117.904C107.22 117.715 107.461 117.46 107.61 117.138C107.762 116.814 107.838 116.447 107.838 116.04C107.838 115.632 107.762 115.268 107.61 114.946C107.461 114.625 107.219 114.373 106.884 114.19C106.549 114.005 106.105 113.912 105.551 113.912H103.384V123H102.151ZM111.038 123V112.818H117.143V113.912H112.271V117.352H116.685V118.446H112.271V123H111.038ZM125.916 123.159C125.28 123.159 124.718 122.998 124.231 122.677C123.744 122.352 123.363 121.895 123.088 121.305C122.812 120.711 122.675 120.01 122.675 119.202C122.675 118.4 122.812 117.704 123.088 117.114C123.363 116.524 123.745 116.068 124.236 115.746C124.727 115.425 125.293 115.264 125.936 115.264C126.433 115.264 126.826 115.347 127.115 115.513C127.406 115.675 127.628 115.861 127.781 116.07C127.936 116.275 128.057 116.444 128.144 116.577H128.243V112.818H129.416V123H128.283V121.827H128.144C128.057 121.966 127.935 122.142 127.776 122.354C127.617 122.562 127.39 122.75 127.095 122.915C126.8 123.078 126.407 123.159 125.916 123.159ZM126.075 122.105C126.546 122.105 126.944 121.982 127.269 121.737C127.593 121.489 127.84 121.146 128.009 120.708C128.178 120.267 128.263 119.759 128.263 119.182C128.263 118.612 128.18 118.113 128.014 117.685C127.849 117.254 127.603 116.92 127.279 116.681C126.954 116.439 126.553 116.318 126.075 116.318C125.578 116.318 125.164 116.446 124.833 116.701C124.504 116.953 124.258 117.296 124.092 117.73C123.929 118.161 123.848 118.645 123.848 119.182C123.848 119.725 123.931 120.219 124.097 120.663C124.266 121.104 124.514 121.455 124.843 121.717C125.174 121.976 125.585 122.105 126.075 122.105ZM134.83 123.159C134.141 123.159 133.536 122.995 133.016 122.667C132.499 122.339 132.094 121.88 131.803 121.29C131.514 120.7 131.37 120.01 131.37 119.222C131.37 118.426 131.514 117.732 131.803 117.138C132.094 116.545 132.499 116.085 133.016 115.756C133.536 115.428 134.141 115.264 134.83 115.264C135.52 115.264 136.123 115.428 136.64 115.756C137.16 116.085 137.565 116.545 137.853 117.138C138.145 117.732 138.291 118.426 138.291 119.222C138.291 120.01 138.145 120.7 137.853 121.29C137.565 121.88 137.16 122.339 136.64 122.667C136.123 122.995 135.52 123.159 134.83 123.159ZM134.83 122.105C135.354 122.105 135.785 121.971 136.123 121.702C136.461 121.434 136.711 121.081 136.874 120.643C137.036 120.206 137.117 119.732 137.117 119.222C137.117 118.711 137.036 118.236 136.874 117.795C136.711 117.354 136.461 116.998 136.123 116.726C135.785 116.454 135.354 116.318 134.83 116.318C134.307 116.318 133.876 116.454 133.538 116.726C133.2 116.998 132.95 117.354 132.787 117.795C132.625 118.236 132.544 118.711 132.544 119.222C132.544 119.732 132.625 120.206 132.787 120.643C132.95 121.081 133.2 121.434 133.538 121.702C133.876 121.971 134.307 122.105 134.83 122.105ZM144.019 125.864V115.364H145.153V116.577H145.292C145.378 116.444 145.497 116.275 145.65 116.07C145.806 115.861 146.028 115.675 146.316 115.513C146.608 115.347 147.002 115.264 147.499 115.264C148.142 115.264 148.709 115.425 149.2 115.746C149.69 116.068 150.073 116.524 150.348 117.114C150.623 117.704 150.761 118.4 150.761 119.202C150.761 120.01 150.623 120.711 150.348 121.305C150.073 121.895 149.692 122.352 149.205 122.677C148.717 122.998 148.156 123.159 147.519 123.159C147.029 123.159 146.636 123.078 146.341 122.915C146.046 122.75 145.819 122.562 145.66 122.354C145.501 122.142 145.378 121.966 145.292 121.827H145.192V125.864H144.019ZM145.173 119.182C145.173 119.759 145.257 120.267 145.426 120.708C145.595 121.146 145.842 121.489 146.167 121.737C146.492 121.982 146.889 122.105 147.36 122.105C147.851 122.105 148.26 121.976 148.588 121.717C148.92 121.455 149.168 121.104 149.334 120.663C149.503 120.219 149.587 119.725 149.587 119.182C149.587 118.645 149.504 118.161 149.339 117.73C149.176 117.296 148.929 116.953 148.598 116.701C148.27 116.446 147.857 116.318 147.36 116.318C146.883 116.318 146.482 116.439 146.157 116.681C145.832 116.92 145.587 117.254 145.421 117.685C145.255 118.113 145.173 118.612 145.173 119.182ZM152.55 123V115.364H153.684V116.517H153.763C153.903 116.139 154.155 115.833 154.519 115.597C154.884 115.362 155.295 115.244 155.752 115.244C155.838 115.244 155.946 115.246 156.075 115.249C156.205 115.253 156.302 115.258 156.369 115.264V116.457C156.329 116.447 156.238 116.433 156.095 116.413C155.956 116.389 155.808 116.378 155.653 116.378C155.281 116.378 154.95 116.456 154.658 116.612C154.37 116.764 154.141 116.976 153.972 117.248C153.807 117.516 153.724 117.823 153.724 118.168V123H152.55ZM160.629 123.159C159.94 123.159 159.335 122.995 158.815 122.667C158.298 122.339 157.893 121.88 157.602 121.29C157.313 120.7 157.169 120.01 157.169 119.222C157.169 118.426 157.313 117.732 157.602 117.138C157.893 116.545 158.298 116.085 158.815 115.756C159.335 115.428 159.94 115.264 160.629 115.264C161.319 115.264 161.922 115.428 162.439 115.756C162.959 116.085 163.364 116.545 163.652 117.138C163.944 117.732 164.089 118.426 164.089 119.222C164.089 120.01 163.944 120.7 163.652 121.29C163.364 121.88 162.959 122.339 162.439 122.667C161.922 122.995 161.319 123.159 160.629 123.159ZM160.629 122.105C161.153 122.105 161.584 121.971 161.922 121.702C162.26 121.434 162.51 121.081 162.673 120.643C162.835 120.206 162.916 119.732 162.916 119.222C162.916 118.711 162.835 118.236 162.673 117.795C162.51 117.354 162.26 116.998 161.922 116.726C161.584 116.454 161.153 116.318 160.629 116.318C160.106 116.318 159.675 116.454 159.337 116.726C158.999 116.998 158.748 117.354 158.586 117.795C158.424 118.236 158.342 118.711 158.342 119.222C158.342 119.732 158.424 120.206 158.586 120.643C158.748 121.081 158.999 121.434 159.337 121.702C159.675 121.971 160.106 122.105 160.629 122.105ZM165.881 125.864V115.364H167.014V116.577H167.153C167.239 116.444 167.359 116.275 167.511 116.07C167.667 115.861 167.889 115.675 168.177 115.513C168.469 115.347 168.863 115.264 169.361 115.264C170.004 115.264 170.57 115.425 171.061 115.746C171.551 116.068 171.934 116.524 172.209 117.114C172.484 117.704 172.622 118.4 172.622 119.202C172.622 120.01 172.484 120.711 172.209 121.305C171.934 121.895 171.553 122.352 171.066 122.677C170.579 122.998 170.017 123.159 169.381 123.159C168.89 123.159 168.497 123.078 168.202 122.915C167.907 122.75 167.68 122.562 167.521 122.354C167.362 122.142 167.239 121.966 167.153 121.827H167.054V125.864H165.881ZM167.034 119.182C167.034 119.759 167.118 120.267 167.287 120.708C167.456 121.146 167.703 121.489 168.028 121.737C168.353 121.982 168.751 122.105 169.221 122.105C169.712 122.105 170.121 121.976 170.449 121.717C170.781 121.455 171.029 121.104 171.195 120.663C171.364 120.219 171.449 119.725 171.449 119.182C171.449 118.645 171.366 118.161 171.2 117.73C171.038 117.296 170.791 116.953 170.459 116.701C170.131 116.446 169.719 116.318 169.221 116.318C168.744 116.318 168.343 116.439 168.018 116.681C167.693 116.92 167.448 117.254 167.282 117.685C167.117 118.113 167.034 118.612 167.034 119.182ZM174.412 123V115.364H175.545V116.517H175.625C175.764 116.139 176.016 115.833 176.381 115.597C176.745 115.362 177.156 115.244 177.613 115.244C177.7 115.244 177.807 115.246 177.937 115.249C178.066 115.253 178.164 115.258 178.23 115.264V116.457C178.19 116.447 178.099 116.433 177.956 116.413C177.817 116.389 177.67 116.378 177.514 116.378C177.143 116.378 176.811 116.456 176.52 116.612C176.231 116.764 176.003 116.976 175.834 117.248C175.668 117.516 175.585 117.823 175.585 118.168V123H174.412ZM179.621 123V115.364H180.794V123H179.621ZM180.217 114.091C179.989 114.091 179.791 114.013 179.626 113.857C179.463 113.701 179.382 113.514 179.382 113.295C179.382 113.077 179.463 112.889 179.626 112.734C179.791 112.578 179.989 112.5 180.217 112.5C180.446 112.5 180.642 112.578 180.804 112.734C180.97 112.889 181.053 113.077 181.053 113.295C181.053 113.514 180.97 113.701 180.804 113.857C180.642 114.013 180.446 114.091 180.217 114.091ZM186.145 123.159C185.409 123.159 184.774 122.997 184.241 122.672C183.71 122.344 183.301 121.886 183.013 121.3C182.728 120.71 182.585 120.024 182.585 119.241C182.585 118.459 182.728 117.77 183.013 117.173C183.301 116.573 183.702 116.106 184.216 115.771C184.733 115.433 185.336 115.264 186.025 115.264C186.423 115.264 186.816 115.33 187.204 115.463C187.591 115.596 187.944 115.811 188.263 116.109C188.581 116.404 188.834 116.795 189.023 117.283C189.212 117.77 189.307 118.37 189.307 119.082V119.58H183.42V118.565H188.113C188.113 118.134 188.027 117.75 187.855 117.412C187.686 117.074 187.444 116.807 187.129 116.612C186.818 116.416 186.45 116.318 186.025 116.318C185.558 116.318 185.154 116.434 184.812 116.666C184.474 116.895 184.214 117.193 184.032 117.561C183.849 117.929 183.758 118.323 183.758 118.744V119.42C183.758 119.997 183.858 120.486 184.057 120.887C184.259 121.285 184.539 121.588 184.897 121.797C185.255 122.002 185.671 122.105 186.145 122.105C186.453 122.105 186.731 122.062 186.98 121.976C187.232 121.886 187.449 121.754 187.631 121.578C187.814 121.399 187.954 121.177 188.054 120.912L189.187 121.23C189.068 121.615 188.867 121.953 188.586 122.244C188.304 122.533 187.956 122.758 187.542 122.92C187.127 123.08 186.662 123.159 186.145 123.159ZM194.412 115.364V116.358H190.455V115.364H194.412ZM191.608 113.534H192.782V120.812C192.782 121.144 192.83 121.393 192.926 121.558C193.025 121.721 193.151 121.83 193.304 121.886C193.46 121.939 193.624 121.966 193.796 121.966C193.925 121.966 194.031 121.959 194.114 121.946C194.197 121.929 194.263 121.916 194.313 121.906L194.552 122.96C194.472 122.99 194.361 123.02 194.219 123.05C194.076 123.083 193.895 123.099 193.677 123.099C193.345 123.099 193.02 123.028 192.702 122.886C192.387 122.743 192.126 122.526 191.917 122.234C191.711 121.943 191.608 121.575 191.608 121.131V113.534ZM198.425 123.179C197.941 123.179 197.501 123.088 197.107 122.906C196.713 122.72 196.399 122.453 196.167 122.105C195.935 121.754 195.819 121.33 195.819 120.832C195.819 120.395 195.906 120.04 196.078 119.768C196.25 119.493 196.481 119.278 196.769 119.122C197.057 118.966 197.376 118.85 197.724 118.774C198.075 118.695 198.428 118.632 198.782 118.585C199.247 118.526 199.623 118.481 199.911 118.451C200.203 118.418 200.415 118.363 200.547 118.287C200.683 118.211 200.751 118.078 200.751 117.889V117.849C200.751 117.359 200.617 116.978 200.349 116.706C200.083 116.434 199.681 116.298 199.14 116.298C198.58 116.298 198.141 116.421 197.823 116.666C197.505 116.911 197.281 117.173 197.152 117.452L196.038 117.054C196.237 116.59 196.502 116.229 196.834 115.97C197.168 115.708 197.533 115.526 197.927 115.423C198.325 115.317 198.716 115.264 199.101 115.264C199.346 115.264 199.628 115.294 199.946 115.354C200.267 115.41 200.577 115.528 200.876 115.707C201.177 115.886 201.427 116.156 201.626 116.517C201.825 116.878 201.925 117.362 201.925 117.969V123H200.751V121.966H200.692C200.612 122.132 200.479 122.309 200.294 122.498C200.108 122.687 199.861 122.848 199.553 122.98C199.245 123.113 198.869 123.179 198.425 123.179ZM198.604 122.125C199.068 122.125 199.459 122.034 199.777 121.852C200.098 121.669 200.34 121.434 200.503 121.146C200.668 120.857 200.751 120.554 200.751 120.236V119.162C200.702 119.222 200.592 119.276 200.423 119.326C200.257 119.372 200.065 119.414 199.846 119.45C199.631 119.483 199.421 119.513 199.215 119.54C199.013 119.563 198.849 119.583 198.723 119.599C198.418 119.639 198.133 119.704 197.868 119.793C197.606 119.879 197.394 120.01 197.231 120.186C197.072 120.358 196.993 120.594 196.993 120.892C196.993 121.3 197.144 121.608 197.445 121.817C197.75 122.022 198.136 122.125 198.604 122.125ZM198.643 114.33L199.856 112.023H201.229L199.677 114.33H198.643ZM204.066 123V115.364H205.2V116.517H205.279C205.418 116.139 205.67 115.833 206.035 115.597C206.399 115.362 206.81 115.244 207.268 115.244C207.354 115.244 207.462 115.246 207.591 115.249C207.72 115.253 207.818 115.258 207.884 115.264V116.457C207.844 116.447 207.753 116.433 207.611 116.413C207.472 116.389 207.324 116.378 207.168 116.378C206.797 116.378 206.466 116.456 206.174 116.612C205.886 116.764 205.657 116.976 205.488 117.248C205.322 117.516 205.239 117.823 205.239 118.168V123H204.066ZM209.275 123V115.364H210.448V123H209.275ZM209.872 114.091C209.643 114.091 209.446 114.013 209.28 113.857C209.118 113.701 209.036 113.514 209.036 113.295C209.036 113.077 209.118 112.889 209.28 112.734C209.446 112.578 209.643 112.5 209.872 112.5C210.1 112.5 210.296 112.578 210.458 112.734C210.624 112.889 210.707 113.077 210.707 113.295C210.707 113.514 210.624 113.701 210.458 113.857C210.296 114.013 210.1 114.091 209.872 114.091ZM215.7 123.159C215.01 123.159 214.405 122.995 213.885 122.667C213.368 122.339 212.964 121.88 212.672 121.29C212.384 120.7 212.239 120.01 212.239 119.222C212.239 118.426 212.384 117.732 212.672 117.138C212.964 116.545 213.368 116.085 213.885 115.756C214.405 115.428 215.01 115.264 215.7 115.264C216.389 115.264 216.992 115.428 217.509 115.756C218.03 116.085 218.434 116.545 218.722 117.138C219.014 117.732 219.16 118.426 219.16 119.222C219.16 120.01 219.014 120.7 218.722 121.29C218.434 121.88 218.03 122.339 217.509 122.667C216.992 122.995 216.389 123.159 215.7 123.159ZM215.7 122.105C216.223 122.105 216.654 121.971 216.992 121.702C217.33 121.434 217.58 121.081 217.743 120.643C217.905 120.206 217.987 119.732 217.987 119.222C217.987 118.711 217.905 118.236 217.743 117.795C217.58 117.354 217.33 116.998 216.992 116.726C216.654 116.454 216.223 116.318 215.7 116.318C215.176 116.318 214.745 116.454 214.407 116.726C214.069 116.998 213.819 117.354 213.656 117.795C213.494 118.236 213.413 118.711 213.413 119.222C213.413 119.732 213.494 120.206 213.656 120.643C213.819 121.081 214.069 121.434 214.407 121.702C214.745 121.971 215.176 122.105 215.7 122.105ZM227.991 123.159C227.301 123.159 226.696 122.995 226.176 122.667C225.659 122.339 225.255 121.88 224.963 121.29C224.675 120.7 224.53 120.01 224.53 119.222C224.53 118.426 224.675 117.732 224.963 117.138C225.255 116.545 225.659 116.085 226.176 115.756C226.696 115.428 227.301 115.264 227.991 115.264C228.68 115.264 229.283 115.428 229.8 115.756C230.321 116.085 230.725 116.545 231.013 117.138C231.305 117.732 231.451 118.426 231.451 119.222C231.451 120.01 231.305 120.7 231.013 121.29C230.725 121.88 230.321 122.339 229.8 122.667C229.283 122.995 228.68 123.159 227.991 123.159ZM227.991 122.105C228.514 122.105 228.945 121.971 229.283 121.702C229.621 121.434 229.872 121.081 230.034 120.643C230.196 120.206 230.278 119.732 230.278 119.222C230.278 118.711 230.196 118.236 230.034 117.795C229.872 117.354 229.621 116.998 229.283 116.726C228.945 116.454 228.514 116.318 227.991 116.318C227.467 116.318 227.036 116.454 226.698 116.726C226.36 116.998 226.11 117.354 225.947 117.795C225.785 118.236 225.704 118.711 225.704 119.222C225.704 119.732 225.785 120.206 225.947 120.643C226.11 121.081 226.36 121.434 226.698 121.702C227.036 121.971 227.467 122.105 227.991 122.105ZM238.054 119.878V115.364H239.228V123H238.054V121.707H237.975C237.796 122.095 237.517 122.425 237.14 122.697C236.762 122.965 236.284 123.099 235.708 123.099C235.23 123.099 234.806 122.995 234.435 122.786C234.064 122.574 233.772 122.256 233.56 121.832C233.348 121.404 233.242 120.866 233.242 120.216V115.364H234.415V120.136C234.415 120.693 234.571 121.137 234.882 121.469C235.197 121.8 235.598 121.966 236.086 121.966C236.377 121.966 236.674 121.891 236.975 121.742C237.28 121.593 237.536 121.364 237.741 121.056C237.95 120.748 238.054 120.355 238.054 119.878ZM245.314 125.864V115.364H246.448V116.577H246.587C246.673 116.444 246.792 116.275 246.945 116.07C247.101 115.861 247.323 115.675 247.611 115.513C247.903 115.347 248.297 115.264 248.794 115.264C249.437 115.264 250.004 115.425 250.494 115.746C250.985 116.068 251.368 116.524 251.643 117.114C251.918 117.704 252.056 118.4 252.056 119.202C252.056 120.01 251.918 120.711 251.643 121.305C251.368 121.895 250.987 122.352 250.499 122.677C250.012 122.998 249.45 123.159 248.814 123.159C248.324 123.159 247.931 123.078 247.636 122.915C247.341 122.75 247.114 122.562 246.955 122.354C246.796 122.142 246.673 121.966 246.587 121.827H246.487V125.864H245.314ZM246.468 119.182C246.468 119.759 246.552 120.267 246.721 120.708C246.89 121.146 247.137 121.489 247.462 121.737C247.787 121.982 248.184 122.105 248.655 122.105C249.146 122.105 249.555 121.976 249.883 121.717C250.214 121.455 250.463 121.104 250.629 120.663C250.798 120.219 250.882 119.725 250.882 119.182C250.882 118.645 250.799 118.161 250.634 117.73C250.471 117.296 250.224 116.953 249.893 116.701C249.565 116.446 249.152 116.318 248.655 116.318C248.178 116.318 247.777 116.439 247.452 116.681C247.127 116.92 246.882 117.254 246.716 117.685C246.55 118.113 246.468 118.612 246.468 119.182ZM256.948 123.159C256.258 123.159 255.653 122.995 255.133 122.667C254.616 122.339 254.212 121.88 253.92 121.29C253.632 120.7 253.487 120.01 253.487 119.222C253.487 118.426 253.632 117.732 253.92 117.138C254.212 116.545 254.616 116.085 255.133 115.756C255.653 115.428 256.258 115.264 256.948 115.264C257.637 115.264 258.24 115.428 258.757 115.756C259.278 116.085 259.682 116.545 259.97 117.138C260.262 117.732 260.408 118.426 260.408 119.222C260.408 120.01 260.262 120.7 259.97 121.29C259.682 121.88 259.278 122.339 258.757 122.667C258.24 122.995 257.637 123.159 256.948 123.159ZM256.948 122.105C257.471 122.105 257.902 121.971 258.24 121.702C258.578 121.434 258.829 121.081 258.991 120.643C259.153 120.206 259.235 119.732 259.235 119.222C259.235 118.711 259.153 118.236 258.991 117.795C258.829 117.354 258.578 116.998 258.24 116.726C257.902 116.454 257.471 116.318 256.948 116.318C256.424 116.318 255.993 116.454 255.655 116.726C255.317 116.998 255.067 117.354 254.904 117.795C254.742 118.236 254.661 118.711 254.661 119.222C254.661 119.732 254.742 120.206 254.904 120.643C255.067 121.081 255.317 121.434 255.655 121.702C255.993 121.971 256.424 122.105 256.948 122.105ZM267.608 117.074L266.554 117.372C266.488 117.196 266.39 117.026 266.261 116.86C266.135 116.691 265.962 116.552 265.744 116.442C265.525 116.333 265.245 116.278 264.903 116.278C264.436 116.278 264.047 116.386 263.735 116.602C263.427 116.814 263.273 117.084 263.273 117.412C263.273 117.704 263.379 117.934 263.591 118.103C263.803 118.272 264.134 118.413 264.585 118.526L265.719 118.804C266.402 118.97 266.91 119.223 267.245 119.565C267.58 119.903 267.747 120.339 267.747 120.872C267.747 121.31 267.621 121.701 267.369 122.045C267.121 122.39 266.773 122.662 266.325 122.861C265.878 123.06 265.357 123.159 264.764 123.159C263.985 123.159 263.341 122.99 262.83 122.652C262.32 122.314 261.997 121.82 261.861 121.17L262.974 120.892C263.08 121.303 263.281 121.611 263.576 121.817C263.874 122.022 264.264 122.125 264.744 122.125C265.291 122.125 265.725 122.009 266.047 121.777C266.372 121.542 266.534 121.26 266.534 120.932C266.534 120.667 266.441 120.445 266.256 120.266C266.07 120.083 265.785 119.947 265.401 119.858L264.128 119.56C263.429 119.394 262.915 119.137 262.587 118.789C262.262 118.438 262.099 117.999 262.099 117.472C262.099 117.041 262.22 116.66 262.462 116.328C262.708 115.997 263.041 115.737 263.462 115.548C263.886 115.359 264.366 115.264 264.903 115.264C265.659 115.264 266.252 115.43 266.683 115.761C267.117 116.093 267.426 116.53 267.608 117.074ZM274.922 117.074L273.868 117.372C273.802 117.196 273.704 117.026 273.575 116.86C273.449 116.691 273.277 116.552 273.058 116.442C272.839 116.333 272.559 116.278 272.218 116.278C271.751 116.278 271.361 116.386 271.05 116.602C270.741 116.814 270.587 117.084 270.587 117.412C270.587 117.704 270.693 117.934 270.905 118.103C271.117 118.272 271.449 118.413 271.9 118.526L273.033 118.804C273.716 118.97 274.225 119.223 274.559 119.565C274.894 119.903 275.062 120.339 275.062 120.872C275.062 121.31 274.936 121.701 274.684 122.045C274.435 122.39 274.087 122.662 273.64 122.861C273.192 123.06 272.672 123.159 272.079 123.159C271.3 123.159 270.655 122.99 270.145 122.652C269.634 122.314 269.311 121.82 269.175 121.17L270.289 120.892C270.395 121.303 270.595 121.611 270.89 121.817C271.189 122.022 271.578 122.125 272.059 122.125C272.606 122.125 273.04 122.009 273.361 121.777C273.686 121.542 273.849 121.26 273.849 120.932C273.849 120.667 273.756 120.445 273.57 120.266C273.385 120.083 273.099 119.947 272.715 119.858L271.442 119.56C270.743 119.394 270.229 119.137 269.901 118.789C269.576 118.438 269.414 117.999 269.414 117.472C269.414 117.041 269.535 116.66 269.777 116.328C270.022 115.997 270.355 115.737 270.776 115.548C271.2 115.359 271.681 115.264 272.218 115.264C272.974 115.264 273.567 115.43 273.998 115.761C274.432 116.093 274.74 116.53 274.922 117.074ZM281.64 119.878V115.364H282.814V123H281.64V121.707H281.561C281.382 122.095 281.103 122.425 280.725 122.697C280.348 122.965 279.87 123.099 279.294 123.099C278.816 123.099 278.392 122.995 278.021 122.786C277.65 122.574 277.358 122.256 277.146 121.832C276.934 121.404 276.828 120.866 276.828 120.216V115.364H278.001V120.136C278.001 120.693 278.157 121.137 278.468 121.469C278.783 121.8 279.184 121.966 279.672 121.966C279.963 121.966 280.26 121.891 280.561 121.742C280.866 121.593 281.122 121.364 281.327 121.056C281.536 120.748 281.64 120.355 281.64 119.878ZM284.963 123V115.364H286.136V123H284.963ZM285.559 114.091C285.33 114.091 285.133 114.013 284.968 113.857C284.805 113.701 284.724 113.514 284.724 113.295C284.724 113.077 284.805 112.889 284.968 112.734C285.133 112.578 285.33 112.5 285.559 112.5C285.788 112.5 285.983 112.578 286.146 112.734C286.311 112.889 286.394 113.077 286.394 113.295C286.394 113.514 286.311 113.701 286.146 113.857C285.983 114.013 285.788 114.091 285.559 114.091ZM291.168 123.159C290.532 123.159 289.97 122.998 289.483 122.677C288.996 122.352 288.615 121.895 288.339 121.305C288.064 120.711 287.927 120.01 287.927 119.202C287.927 118.4 288.064 117.704 288.339 117.114C288.615 116.524 288.997 116.068 289.488 115.746C289.978 115.425 290.545 115.264 291.188 115.264C291.685 115.264 292.078 115.347 292.366 115.513C292.658 115.675 292.88 115.861 293.033 116.07C293.188 116.275 293.309 116.444 293.396 116.577H293.495V112.818H294.668V123H293.535V121.827H293.396C293.309 121.966 293.187 122.142 293.028 122.354C292.869 122.562 292.642 122.75 292.347 122.915C292.052 123.078 291.659 123.159 291.168 123.159ZM291.327 122.105C291.798 122.105 292.196 121.982 292.521 121.737C292.845 121.489 293.092 121.146 293.261 120.708C293.43 120.267 293.515 119.759 293.515 119.182C293.515 118.612 293.432 118.113 293.266 117.685C293.101 117.254 292.855 116.92 292.531 116.681C292.206 116.439 291.805 116.318 291.327 116.318C290.83 116.318 290.416 116.446 290.085 116.701C289.756 116.953 289.509 117.296 289.344 117.73C289.181 118.161 289.1 118.645 289.1 119.182C289.1 119.725 289.183 120.219 289.349 120.663C289.518 121.104 289.766 121.455 290.094 121.717C290.426 121.976 290.837 122.105 291.327 122.105ZM300.082 123.159C299.393 123.159 298.788 122.995 298.268 122.667C297.751 122.339 297.346 121.88 297.055 121.29C296.766 120.7 296.622 120.01 296.622 119.222C296.622 118.426 296.766 117.732 297.055 117.138C297.346 116.545 297.751 116.085 298.268 115.756C298.788 115.428 299.393 115.264 300.082 115.264C300.772 115.264 301.375 115.428 301.892 115.756C302.412 116.085 302.817 116.545 303.105 117.138C303.397 117.732 303.543 118.426 303.543 119.222C303.543 120.01 303.397 120.7 303.105 121.29C302.817 121.88 302.412 122.339 301.892 122.667C301.375 122.995 300.772 123.159 300.082 123.159ZM300.082 122.105C300.606 122.105 301.037 121.971 301.375 121.702C301.713 121.434 301.963 121.081 302.126 120.643C302.288 120.206 302.369 119.732 302.369 119.222C302.369 118.711 302.288 118.236 302.126 117.795C301.963 117.354 301.713 116.998 301.375 116.726C301.037 116.454 300.606 116.318 300.082 116.318C299.559 116.318 299.128 116.454 298.79 116.726C298.452 116.998 298.201 117.354 298.039 117.795C297.877 118.236 297.795 118.711 297.795 119.222C297.795 119.732 297.877 120.206 298.039 120.643C298.201 121.081 298.452 121.434 298.79 121.702C299.128 121.971 299.559 122.105 300.082 122.105ZM305.334 123V115.364H306.467V116.517H306.547C306.686 116.139 306.938 115.833 307.302 115.597C307.667 115.362 308.078 115.244 308.535 115.244C308.622 115.244 308.729 115.246 308.858 115.249C308.988 115.253 309.086 115.258 309.152 115.264V116.457C309.112 116.447 309.021 116.433 308.878 116.413C308.739 116.389 308.592 116.378 308.436 116.378C308.065 116.378 307.733 116.456 307.442 116.612C307.153 116.764 306.925 116.976 306.756 117.248C306.59 117.516 306.507 117.823 306.507 118.168V123H305.334ZM317.364 123.159C316.727 123.159 316.165 122.998 315.678 122.677C315.191 122.352 314.81 121.895 314.535 121.305C314.26 120.711 314.122 120.01 314.122 119.202C314.122 118.4 314.26 117.704 314.535 117.114C314.81 116.524 315.193 116.068 315.683 115.746C316.174 115.425 316.741 115.264 317.384 115.264C317.881 115.264 318.273 115.347 318.562 115.513C318.853 115.675 319.076 115.861 319.228 116.07C319.384 116.275 319.505 116.444 319.591 116.577H319.69V112.818H320.864V123H319.73V121.827H319.591C319.505 121.966 319.382 122.142 319.223 122.354C319.064 122.562 318.837 122.75 318.542 122.915C318.247 123.078 317.854 123.159 317.364 123.159ZM317.523 122.105C317.993 122.105 318.391 121.982 318.716 121.737C319.041 121.489 319.288 121.146 319.457 120.708C319.626 120.267 319.71 119.759 319.71 119.182C319.71 118.612 319.627 118.113 319.462 117.685C319.296 117.254 319.051 116.92 318.726 116.681C318.401 116.439 318 116.318 317.523 116.318C317.026 116.318 316.611 116.446 316.28 116.701C315.952 116.953 315.705 117.296 315.539 117.73C315.377 118.161 315.295 118.645 315.295 119.182C315.295 119.725 315.378 120.219 315.544 120.663C315.713 121.104 315.962 121.455 316.29 121.717C316.621 121.976 317.032 122.105 317.523 122.105ZM326.278 123.159C325.588 123.159 324.983 122.995 324.463 122.667C323.946 122.339 323.542 121.88 323.25 121.29C322.962 120.7 322.817 120.01 322.817 119.222C322.817 118.426 322.962 117.732 323.25 117.138C323.542 116.545 323.946 116.085 324.463 115.756C324.983 115.428 325.588 115.264 326.278 115.264C326.967 115.264 327.57 115.428 328.087 115.756C328.608 116.085 329.012 116.545 329.3 117.138C329.592 117.732 329.738 118.426 329.738 119.222C329.738 120.01 329.592 120.7 329.3 121.29C329.012 121.88 328.608 122.339 328.087 122.667C327.57 122.995 326.967 123.159 326.278 123.159ZM326.278 122.105C326.801 122.105 327.232 121.971 327.57 121.702C327.908 121.434 328.159 121.081 328.321 120.643C328.483 120.206 328.565 119.732 328.565 119.222C328.565 118.711 328.483 118.236 328.321 117.795C328.159 117.354 327.908 116.998 327.57 116.726C327.232 116.454 326.801 116.318 326.278 116.318C325.754 116.318 325.323 116.454 324.985 116.726C324.647 116.998 324.397 117.354 324.234 117.795C324.072 118.236 323.991 118.711 323.991 119.222C323.991 119.732 324.072 120.206 324.234 120.643C324.397 121.081 324.647 121.434 324.985 121.702C325.323 121.971 325.754 122.105 326.278 122.105ZM335.466 123V115.364H336.64V123H335.466ZM336.063 114.091C335.834 114.091 335.637 114.013 335.471 113.857C335.309 113.701 335.228 113.514 335.228 113.295C335.228 113.077 335.309 112.889 335.471 112.734C335.637 112.578 335.834 112.5 336.063 112.5C336.292 112.5 336.487 112.578 336.65 112.734C336.815 112.889 336.898 113.077 336.898 113.295C336.898 113.514 336.815 113.701 336.65 113.857C336.487 114.013 336.292 114.091 336.063 114.091ZM338.789 123V115.364H339.922V116.557H340.022C340.181 116.149 340.438 115.833 340.792 115.607C341.147 115.379 341.573 115.264 342.07 115.264C342.574 115.264 342.993 115.379 343.328 115.607C343.666 115.833 343.929 116.149 344.118 116.557H344.198C344.393 116.162 344.687 115.849 345.078 115.617C345.469 115.382 345.938 115.264 346.485 115.264C347.167 115.264 347.726 115.478 348.16 115.906C348.594 116.33 348.811 116.991 348.811 117.889V123H347.638V117.889C347.638 117.326 347.484 116.923 347.176 116.681C346.868 116.439 346.505 116.318 346.087 116.318C345.55 116.318 345.134 116.481 344.839 116.805C344.544 117.127 344.397 117.535 344.397 118.028V123H343.203V117.77C343.203 117.336 343.063 116.986 342.781 116.721C342.499 116.452 342.136 116.318 341.692 116.318C341.387 116.318 341.102 116.399 340.837 116.562C340.575 116.724 340.363 116.95 340.201 117.238C340.042 117.523 339.962 117.853 339.962 118.227V123H338.789ZM354.059 123.159C353.37 123.159 352.765 122.995 352.244 122.667C351.727 122.339 351.323 121.88 351.031 121.29C350.743 120.7 350.599 120.01 350.599 119.222C350.599 118.426 350.743 117.732 351.031 117.138C351.323 116.545 351.727 116.085 352.244 115.756C352.765 115.428 353.37 115.264 354.059 115.264C354.748 115.264 355.352 115.428 355.869 115.756C356.389 116.085 356.793 116.545 357.082 117.138C357.373 117.732 357.519 118.426 357.519 119.222C357.519 120.01 357.373 120.7 357.082 121.29C356.793 121.88 356.389 122.339 355.869 122.667C355.352 122.995 354.748 123.159 354.059 123.159ZM354.059 122.105C354.583 122.105 355.013 121.971 355.352 121.702C355.69 121.434 355.94 121.081 356.102 120.643C356.265 120.206 356.346 119.732 356.346 119.222C356.346 118.711 356.265 118.236 356.102 117.795C355.94 117.354 355.69 116.998 355.352 116.726C355.013 116.454 354.583 116.318 354.059 116.318C353.535 116.318 353.104 116.454 352.766 116.726C352.428 116.998 352.178 117.354 352.016 117.795C351.853 118.236 351.772 118.711 351.772 119.222C351.772 119.732 351.853 120.206 352.016 120.643C352.178 121.081 352.428 121.434 352.766 121.702C353.104 121.971 353.535 122.105 354.059 122.105ZM353.522 114.33L354.735 112.023H356.107L354.556 114.33H353.522ZM365.281 115.364L362.457 123H361.264L358.44 115.364H359.713L361.821 121.449H361.9L364.008 115.364H365.281ZM369.758 123.159C369.022 123.159 368.387 122.997 367.854 122.672C367.324 122.344 366.914 121.886 366.626 121.3C366.341 120.71 366.198 120.024 366.198 119.241C366.198 118.459 366.341 117.77 366.626 117.173C366.914 116.573 367.315 116.106 367.829 115.771C368.346 115.433 368.949 115.264 369.639 115.264C370.036 115.264 370.429 115.33 370.817 115.463C371.205 115.596 371.558 115.811 371.876 116.109C372.194 116.404 372.448 116.795 372.637 117.283C372.825 117.77 372.92 118.37 372.92 119.082V119.58H367.034V118.565H371.727C371.727 118.134 371.641 117.75 371.468 117.412C371.299 117.074 371.057 116.807 370.742 116.612C370.431 116.416 370.063 116.318 369.639 116.318C369.171 116.318 368.767 116.434 368.426 116.666C368.088 116.895 367.827 117.193 367.645 117.561C367.463 117.929 367.372 118.323 367.372 118.744V119.42C367.372 119.997 367.471 120.486 367.67 120.887C367.872 121.285 368.152 121.588 368.51 121.797C368.868 122.002 369.284 122.105 369.758 122.105C370.066 122.105 370.345 122.062 370.593 121.976C370.845 121.886 371.062 121.754 371.244 121.578C371.427 121.399 371.568 121.177 371.667 120.912L372.801 121.23C372.681 121.615 372.481 121.953 372.199 122.244C371.917 122.533 371.569 122.758 371.155 122.92C370.741 123.08 370.275 123.159 369.758 123.159ZM375.878 112.818V123H374.705V112.818H375.878ZM25.0739 144V136.364H26.2074V137.517H26.2869C26.4261 137.139 26.678 136.833 27.0426 136.597C27.4072 136.362 27.8182 136.244 28.2756 136.244C28.3617 136.244 28.4695 136.246 28.5987 136.249C28.728 136.253 28.8258 136.258 28.892 136.264V137.457C28.8523 137.447 28.7611 137.433 28.6186 137.413C28.4794 137.389 28.3319 137.378 28.1761 137.378C27.8049 137.378 27.4735 137.456 27.1818 137.612C26.8935 137.764 26.6648 137.976 26.4957 138.248C26.33 138.516 26.2472 138.823 26.2472 139.168V144H25.0739ZM35.0953 140.878V136.364H36.2686V144H35.0953V142.707H35.0158C34.8368 143.095 34.5584 143.425 34.1806 143.697C33.8027 143.965 33.3255 144.099 32.7488 144.099C32.2715 144.099 31.8472 143.995 31.476 143.786C31.1048 143.574 30.8132 143.256 30.601 142.832C30.3889 142.404 30.2828 141.866 30.2828 141.216V136.364H31.4561V141.136C31.4561 141.693 31.6119 142.137 31.9235 142.469C32.2383 142.8 32.6394 142.966 33.1266 142.966C33.4183 142.966 33.7149 142.891 34.0165 142.742C34.3214 142.593 34.5766 142.364 34.7821 142.056C34.9909 141.748 35.0953 141.355 35.0953 140.878ZM38.4176 144V136.364H39.5511V137.517H39.6307C39.7699 137.139 40.0218 136.833 40.3864 136.597C40.7509 136.362 41.1619 136.244 41.6193 136.244C41.7055 136.244 41.8132 136.246 41.9425 136.249C42.0717 136.253 42.1695 136.258 42.2358 136.264V137.457C42.196 137.447 42.1049 137.433 41.9624 137.413C41.8232 137.389 41.6757 137.378 41.5199 137.378C41.1487 137.378 40.8172 137.456 40.5256 137.612C40.2372 137.764 40.0085 137.976 39.8395 138.248C39.6738 138.516 39.5909 138.823 39.5909 139.168V144H38.4176ZM45.8738 144.179C45.3899 144.179 44.9507 144.088 44.5563 143.906C44.1619 143.72 43.8487 143.453 43.6167 143.105C43.3846 142.754 43.2686 142.33 43.2686 141.832C43.2686 141.395 43.3548 141.04 43.5272 140.768C43.6995 140.493 43.9299 140.278 44.2182 140.122C44.5066 139.966 44.8248 139.85 45.1728 139.774C45.5241 139.695 45.8771 139.632 46.2317 139.585C46.6957 139.526 47.0719 139.481 47.3603 139.451C47.6519 139.418 47.8641 139.363 47.9966 139.287C48.1325 139.211 48.2005 139.078 48.2005 138.889V138.849C48.2005 138.359 48.0662 137.978 47.7978 137.706C47.5326 137.434 47.1299 137.298 46.5897 137.298C46.0295 137.298 45.5904 137.421 45.2722 137.666C44.954 137.911 44.7303 138.173 44.601 138.452L43.4874 138.054C43.6863 137.59 43.9514 137.229 44.2828 136.97C44.6176 136.708 44.9822 136.526 45.3766 136.423C45.7743 136.317 46.1654 136.264 46.5499 136.264C46.7952 136.264 47.0769 136.294 47.3951 136.354C47.7166 136.41 48.0265 136.528 48.3248 136.707C48.6264 136.886 48.8766 137.156 49.0755 137.517C49.2743 137.878 49.3738 138.362 49.3738 138.969V144H48.2005V142.966H48.1408C48.0613 143.132 47.9287 143.309 47.7431 143.498C47.5575 143.687 47.3105 143.848 47.0023 143.98C46.6941 144.113 46.3179 144.179 45.8738 144.179ZM46.0527 143.125C46.5167 143.125 46.9078 143.034 47.226 142.852C47.5475 142.669 47.7895 142.434 47.9519 142.146C48.1176 141.857 48.2005 141.554 48.2005 141.236V140.162C48.1507 140.222 48.0414 140.276 47.8723 140.326C47.7066 140.372 47.5144 140.414 47.2956 140.45C47.0802 140.483 46.8697 140.513 46.6642 140.54C46.4621 140.563 46.298 140.583 46.1721 140.599C45.8671 140.639 45.5821 140.704 45.3169 140.793C45.0551 140.879 44.843 141.01 44.6806 141.186C44.5215 141.358 44.4419 141.594 44.4419 141.892C44.4419 142.3 44.5927 142.608 44.8944 142.817C45.1993 143.022 45.5854 143.125 46.0527 143.125ZM52.6886 133.818V144H51.5153V133.818H52.6886ZM55.6926 144.08C55.4474 144.08 55.2369 143.992 55.0613 143.816C54.8856 143.64 54.7978 143.43 54.7978 143.185C54.7978 142.939 54.8856 142.729 55.0613 142.553C55.2369 142.378 55.4474 142.29 55.6926 142.29C55.9379 142.29 56.1484 142.378 56.324 142.553C56.4997 142.729 56.5875 142.939 56.5875 143.185C56.5875 143.347 56.5461 143.496 56.4632 143.632C56.3837 143.768 56.276 143.877 56.1401 143.96C56.0075 144.04 55.8584 144.08 55.6926 144.08Z" fill="#6B7280"/>
<mask id="path-12-inside-1_89_468" fill="white">
<path d="M24 173H378V229H24V173Z"/>
</mask>
<path d="M378 229V228H24V229V230H378V229Z" fill="#E5E7EB" mask="url(#path-12-inside-1_89_468)"/>
<path d="M29.625 208.179C28.6619 208.179 27.8416 207.917 27.1641 207.393C26.4865 206.864 25.9688 206.099 25.6108 205.098C25.2528 204.092 25.0739 202.878 25.0739 201.455C25.0739 200.04 25.2528 198.832 25.6108 197.83C25.973 196.825 26.4929 196.058 27.1705 195.529C27.8523 194.996 28.6705 194.73 29.625 194.73C30.5795 194.73 31.3956 194.996 32.0732 195.529C32.755 196.058 33.2749 196.825 33.6328 197.83C33.995 198.832 34.1761 200.04 34.1761 201.455C34.1761 202.878 33.9972 204.092 33.6392 205.098C33.2812 206.099 32.7635 206.864 32.0859 207.393C31.4084 207.917 30.5881 208.179 29.625 208.179ZM29.625 206.773C30.5795 206.773 31.321 206.312 31.8494 205.392C32.3778 204.472 32.642 203.159 32.642 201.455C32.642 200.321 32.5206 199.356 32.2777 198.559C32.0391 197.762 31.6939 197.155 31.2422 196.737C30.7947 196.32 30.2557 196.111 29.625 196.111C28.679 196.111 27.9396 196.577 27.407 197.511C26.8743 198.44 26.608 199.754 26.608 201.455C26.608 202.588 26.7273 203.551 26.9659 204.344C27.2045 205.136 27.5476 205.739 27.995 206.153C28.4467 206.566 28.9901 206.773 29.625 206.773ZM40.875 208.179C39.9119 208.179 39.0916 207.917 38.4141 207.393C37.7365 206.864 37.2188 206.099 36.8608 205.098C36.5028 204.092 36.3239 202.878 36.3239 201.455C36.3239 200.04 36.5028 198.832 36.8608 197.83C37.223 196.825 37.7429 196.058 38.4205 195.529C39.1023 194.996 39.9205 194.73 40.875 194.73C41.8295 194.73 42.6456 194.996 43.3232 195.529C44.005 196.058 44.5249 196.825 44.8828 197.83C45.245 198.832 45.4261 200.04 45.4261 201.455C45.4261 202.878 45.2472 204.092 44.8892 205.098C44.5312 206.099 44.0135 206.864 43.3359 207.393C42.6584 207.917 41.8381 208.179 40.875 208.179ZM40.875 206.773C41.8295 206.773 42.571 206.312 43.0994 205.392C43.6278 204.472 43.892 203.159 43.892 201.455C43.892 200.321 43.7706 199.356 43.5277 198.559C43.2891 197.762 42.9439 197.155 42.4922 196.737C42.0447 196.32 41.5057 196.111 40.875 196.111C39.929 196.111 39.1896 196.577 38.657 197.511C38.1243 198.44 37.858 199.754 37.858 201.455C37.858 202.588 37.9773 203.551 38.2159 204.344C38.4545 205.136 38.7976 205.739 39.245 206.153C39.6967 206.566 40.2401 206.773 40.875 206.773ZM52.125 208.179C51.1619 208.179 50.3416 207.917 49.6641 207.393C48.9865 206.864 48.4688 206.099 48.1108 205.098C47.7528 204.092 47.5739 202.878 47.5739 201.455C47.5739 200.04 47.7528 198.832 48.1108 197.83C48.473 196.825 48.9929 196.058 49.6705 195.529C50.3523 194.996 51.1705 194.73 52.125 194.73C53.0795 194.73 53.8956 194.996 54.5732 195.529C55.255 196.058 55.7749 196.825 56.1328 197.83C56.495 198.832 56.6761 200.04 56.6761 201.455C56.6761 202.878 56.4972 204.092 56.1392 205.098C55.7812 206.099 55.2635 206.864 54.5859 207.393C53.9084 207.917 53.0881 208.179 52.125 208.179ZM52.125 206.773C53.0795 206.773 53.821 206.312 54.3494 205.392C54.8778 204.472 55.142 203.159 55.142 201.455C55.142 200.321 55.0206 199.356 54.7777 198.559C54.5391 197.762 54.1939 197.155 53.7422 196.737C53.2947 196.32 52.7557 196.111 52.125 196.111C51.179 196.111 50.4396 196.577 49.907 197.511C49.3743 198.44 49.108 199.754 49.108 201.455C49.108 202.588 49.2273 203.551 49.4659 204.344C49.7045 205.136 50.0476 205.739 50.495 206.153C50.9467 206.566 51.4901 206.773 52.125 206.773ZM59.7731 208.102C59.4577 208.102 59.1871 207.989 58.9613 207.763C58.7354 207.538 58.6225 207.267 58.6225 206.952C58.6225 206.636 58.7354 206.366 58.9613 206.14C59.1871 205.914 59.4577 205.801 59.7731 205.801C60.0884 205.801 60.359 205.914 60.5849 206.14C60.8107 206.366 60.9237 206.636 60.9237 206.952C60.9237 207.161 60.8704 207.352 60.7638 207.527C60.6616 207.702 60.5231 207.842 60.3484 207.949C60.1779 208.051 59.9862 208.102 59.7731 208.102ZM67.418 208.179C66.4549 208.179 65.6346 207.917 64.957 207.393C64.2795 206.864 63.7617 206.099 63.4038 205.098C63.0458 204.092 62.8668 202.878 62.8668 201.455C62.8668 200.04 63.0458 198.832 63.4038 197.83C63.766 196.825 64.2859 196.058 64.9634 195.529C65.6452 194.996 66.4634 194.73 67.418 194.73C68.3725 194.73 69.1886 194.996 69.8661 195.529C70.5479 196.058 71.0678 196.825 71.4258 197.83C71.788 198.832 71.9691 200.04 71.9691 201.455C71.9691 202.878 71.7901 204.092 71.4322 205.098C71.0742 206.099 70.5565 206.864 69.8789 207.393C69.2013 207.917 68.381 208.179 67.418 208.179ZM67.418 206.773C68.3725 206.773 69.114 206.312 69.6424 205.392C70.1708 204.472 70.435 203.159 70.435 201.455C70.435 200.321 70.3136 199.356 70.0707 198.559C69.832 197.762 69.4869 197.155 69.0352 196.737C68.5877 196.32 68.0487 196.111 67.418 196.111C66.4719 196.111 65.7326 196.577 65.1999 197.511C64.6673 198.44 64.4009 199.754 64.4009 201.455C64.4009 202.588 64.5202 203.551 64.7589 204.344C64.9975 205.136 65.3406 205.739 65.788 206.153C66.2397 206.566 66.783 206.773 67.418 206.773ZM78.668 208.179C77.7049 208.179 76.8846 207.917 76.207 207.393C75.5295 206.864 75.0117 206.099 74.6538 205.098C74.2958 204.092 74.1168 202.878 74.1168 201.455C74.1168 200.04 74.2958 198.832 74.6538 197.83C75.016 196.825 75.5359 196.058 76.2134 195.529C76.8952 194.996 77.7134 194.73 78.668 194.73C79.6225 194.73 80.4386 194.996 81.1161 195.529C81.7979 196.058 82.3178 196.825 82.6758 197.83C83.038 198.832 83.2191 200.04 83.2191 201.455C83.2191 202.878 83.0401 204.092 82.6822 205.098C82.3242 206.099 81.8065 206.864 81.1289 207.393C80.4513 207.917 79.631 208.179 78.668 208.179ZM78.668 206.773C79.6225 206.773 80.364 206.312 80.8924 205.392C81.4208 204.472 81.685 203.159 81.685 201.455C81.685 200.321 81.5636 199.356 81.3207 198.559C81.082 197.762 80.7369 197.155 80.2852 196.737C79.8377 196.32 79.2987 196.111 78.668 196.111C77.7219 196.111 76.9826 196.577 76.4499 197.511C75.9173 198.44 75.6509 199.754 75.6509 201.455C75.6509 202.588 75.7702 203.551 76.0089 204.344C76.2475 205.136 76.5906 205.739 77.038 206.153C77.4897 206.566 78.033 206.773 78.668 206.773ZM89.918 208.179C88.9549 208.179 88.1346 207.917 87.457 207.393C86.7795 206.864 86.2617 206.099 85.9038 205.098C85.5458 204.092 85.3668 202.878 85.3668 201.455C85.3668 200.04 85.5458 198.832 85.9038 197.83C86.266 196.825 86.7859 196.058 87.4634 195.529C88.1452 194.996 88.9634 194.73 89.918 194.73C90.8725 194.73 91.6886 194.996 92.3661 195.529C93.0479 196.058 93.5678 196.825 93.9258 197.83C94.288 198.832 94.4691 200.04 94.4691 201.455C94.4691 202.878 94.2901 204.092 93.9322 205.098C93.5742 206.099 93.0565 206.864 92.3789 207.393C91.7013 207.917 90.881 208.179 89.918 208.179ZM89.918 206.773C90.8725 206.773 91.614 206.312 92.1424 205.392C92.6708 204.472 92.935 203.159 92.935 201.455C92.935 200.321 92.8136 199.356 92.5707 198.559C92.332 197.762 91.9869 197.155 91.5352 196.737C91.0877 196.32 90.5487 196.111 89.918 196.111C88.9719 196.111 88.2326 196.577 87.6999 197.511C87.1673 198.44 86.9009 199.754 86.9009 201.455C86.9009 202.588 87.0202 203.551 87.2589 204.344C87.4975 205.136 87.8406 205.739 88.288 206.153C88.7397 206.566 89.283 206.773 89.918 206.773ZM97.5661 208.102C97.2507 208.102 96.9801 207.989 96.7543 207.763C96.5284 207.538 96.4155 207.267 96.4155 206.952C96.4155 206.636 96.5284 206.366 96.7543 206.14C96.9801 205.914 97.2507 205.801 97.5661 205.801C97.8814 205.801 98.152 205.914 98.3778 206.14C98.6037 206.366 98.7166 206.636 98.7166 206.952C98.7166 207.161 98.6634 207.352 98.5568 207.527C98.4545 207.702 98.3161 207.842 98.1413 207.949C97.9709 208.051 97.7791 208.102 97.5661 208.102ZM105.211 208.179C104.248 208.179 103.428 207.917 102.75 207.393C102.072 206.864 101.555 206.099 101.197 205.098C100.839 204.092 100.66 202.878 100.66 201.455C100.66 200.04 100.839 198.832 101.197 197.83C101.559 196.825 102.079 196.058 102.756 195.529C103.438 194.996 104.256 194.73 105.211 194.73C106.165 194.73 106.982 194.996 107.659 195.529C108.341 196.058 108.861 196.825 109.219 197.83C109.581 198.832 109.762 200.04 109.762 201.455C109.762 202.878 109.583 204.092 109.225 205.098C108.867 206.099 108.349 206.864 107.672 207.393C106.994 207.917 106.174 208.179 105.211 208.179ZM105.211 206.773C106.165 206.773 106.907 206.312 107.435 205.392C107.964 204.472 108.228 203.159 108.228 201.455C108.228 200.321 108.107 199.356 107.864 198.559C107.625 197.762 107.28 197.155 106.828 196.737C106.381 196.32 105.842 196.111 105.211 196.111C104.265 196.111 103.526 196.577 102.993 197.511C102.46 198.44 102.194 199.754 102.194 201.455C102.194 202.588 102.313 203.551 102.552 204.344C102.79 205.136 103.134 205.739 103.581 206.153C104.033 206.566 104.576 206.773 105.211 206.773ZM116.461 208.179C115.498 208.179 114.678 207.917 114 207.393C113.322 206.864 112.805 206.099 112.447 205.098C112.089 204.092 111.91 202.878 111.91 201.455C111.91 200.04 112.089 198.832 112.447 197.83C112.809 196.825 113.329 196.058 114.006 195.529C114.688 194.996 115.506 194.73 116.461 194.73C117.415 194.73 118.232 194.996 118.909 195.529C119.591 196.058 120.111 196.825 120.469 197.83C120.831 198.832 121.012 200.04 121.012 201.455C121.012 202.878 120.833 204.092 120.475 205.098C120.117 206.099 119.599 206.864 118.922 207.393C118.244 207.917 117.424 208.179 116.461 208.179ZM116.461 206.773C117.415 206.773 118.157 206.312 118.685 205.392C119.214 204.472 119.478 203.159 119.478 201.455C119.478 200.321 119.357 199.356 119.114 198.559C118.875 197.762 118.53 197.155 118.078 196.737C117.631 196.32 117.092 196.111 116.461 196.111C115.515 196.111 114.776 196.577 114.243 197.511C113.71 198.44 113.444 199.754 113.444 201.455C113.444 202.588 113.563 203.551 113.802 204.344C114.04 205.136 114.384 205.739 114.831 206.153C115.283 206.566 115.826 206.773 116.461 206.773ZM127.711 208.179C126.748 208.179 125.928 207.917 125.25 207.393C124.572 206.864 124.055 206.099 123.697 205.098C123.339 204.092 123.16 202.878 123.16 201.455C123.16 200.04 123.339 198.832 123.697 197.83C124.059 196.825 124.579 196.058 125.256 195.529C125.938 194.996 126.756 194.73 127.711 194.73C128.665 194.73 129.482 194.996 130.159 195.529C130.841 196.058 131.361 196.825 131.719 197.83C132.081 198.832 132.262 200.04 132.262 201.455C132.262 202.878 132.083 204.092 131.725 205.098C131.367 206.099 130.849 206.864 130.172 207.393C129.494 207.917 128.674 208.179 127.711 208.179ZM127.711 206.773C128.665 206.773 129.407 206.312 129.935 205.392C130.464 204.472 130.728 203.159 130.728 201.455C130.728 200.321 130.607 199.356 130.364 198.559C130.125 197.762 129.78 197.155 129.328 196.737C128.881 196.32 128.342 196.111 127.711 196.111C126.765 196.111 126.026 196.577 125.493 197.511C124.96 198.44 124.694 199.754 124.694 201.455C124.694 202.588 124.813 203.551 125.052 204.344C125.29 205.136 125.634 205.739 126.081 206.153C126.533 206.566 127.076 206.773 127.711 206.773ZM140.342 200.751V202.158H134.614V200.751H140.342ZM147.24 208.179C146.277 208.179 145.457 207.917 144.779 207.393C144.102 206.864 143.584 206.099 143.226 205.098C142.868 204.092 142.689 202.878 142.689 201.455C142.689 200.04 142.868 198.832 143.226 197.83C143.588 196.825 144.108 196.058 144.786 195.529C145.468 194.996 146.286 194.73 147.24 194.73C148.195 194.73 149.011 194.996 149.688 195.529C150.37 196.058 150.89 196.825 151.248 197.83C151.61 198.832 151.791 200.04 151.791 201.455C151.791 202.878 151.612 204.092 151.254 205.098C150.896 206.099 150.379 206.864 149.701 207.393C149.024 207.917 148.203 208.179 147.24 208.179ZM147.24 206.773C148.195 206.773 148.936 206.312 149.465 205.392C149.993 204.472 150.257 203.159 150.257 201.455C150.257 200.321 150.136 199.356 149.893 198.559C149.654 197.762 149.309 197.155 148.857 196.737C148.41 196.32 147.871 196.111 147.24 196.111C146.294 196.111 145.555 196.577 145.022 197.511C144.49 198.44 144.223 199.754 144.223 201.455C144.223 202.588 144.343 203.551 144.581 204.344C144.82 205.136 145.163 205.739 145.61 206.153C146.062 206.566 146.605 206.773 147.24 206.773ZM158.49 208.179C157.527 208.179 156.707 207.917 156.029 207.393C155.352 206.864 154.834 206.099 154.476 205.098C154.118 204.092 153.939 202.878 153.939 201.455C153.939 200.04 154.118 198.832 154.476 197.83C154.838 196.825 155.358 196.058 156.036 195.529C156.718 194.996 157.536 194.73 158.49 194.73C159.445 194.73 160.261 194.996 160.938 195.529C161.62 196.058 162.14 196.825 162.498 197.83C162.86 198.832 163.041 200.04 163.041 201.455C163.041 202.878 162.862 204.092 162.504 205.098C162.146 206.099 161.629 206.864 160.951 207.393C160.274 207.917 159.453 208.179 158.49 208.179ZM158.49 206.773C159.445 206.773 160.186 206.312 160.715 205.392C161.243 204.472 161.507 203.159 161.507 201.455C161.507 200.321 161.386 199.356 161.143 198.559C160.904 197.762 160.559 197.155 160.107 196.737C159.66 196.32 159.121 196.111 158.49 196.111C157.544 196.111 156.805 196.577 156.272 197.511C155.74 198.44 155.473 199.754 155.473 201.455C155.473 202.588 155.593 203.551 155.831 204.344C156.07 205.136 156.413 205.739 156.86 206.153C157.312 206.566 157.855 206.773 158.49 206.773Z" fill="#9CA3AF"/>
<rect x="24" y="794" width="354" height="56" rx="12" fill="#2E7D32"/>
<path d="M172.778 819.938H170.29C170.244 819.616 170.152 819.33 170.011 819.08C169.871 818.826 169.691 818.61 169.472 818.432C169.252 818.254 168.998 818.117 168.71 818.023C168.426 817.928 168.117 817.881 167.784 817.881C167.182 817.881 166.657 818.03 166.21 818.33C165.763 818.625 165.417 819.057 165.17 819.625C164.924 820.189 164.801 820.875 164.801 821.682C164.801 822.511 164.924 823.208 165.17 823.773C165.42 824.337 165.769 824.763 166.216 825.051C166.663 825.339 167.18 825.483 167.767 825.483C168.097 825.483 168.402 825.439 168.682 825.352C168.966 825.265 169.218 825.138 169.438 824.972C169.657 824.801 169.839 824.595 169.983 824.352C170.131 824.11 170.233 823.833 170.29 823.523L172.778 823.534C172.714 824.068 172.553 824.583 172.295 825.08C172.042 825.572 171.699 826.013 171.267 826.403C170.839 826.79 170.328 827.097 169.733 827.324C169.142 827.547 168.473 827.659 167.727 827.659C166.689 827.659 165.761 827.424 164.943 826.955C164.129 826.485 163.485 825.805 163.011 824.915C162.542 824.025 162.307 822.947 162.307 821.682C162.307 820.413 162.545 819.333 163.023 818.443C163.5 817.553 164.148 816.875 164.966 816.409C165.784 815.939 166.705 815.705 167.727 815.705C168.402 815.705 169.027 815.799 169.602 815.989C170.182 816.178 170.695 816.455 171.142 816.818C171.589 817.178 171.953 817.619 172.233 818.142C172.517 818.665 172.699 819.263 172.778 819.938ZM178.44 827.67C177.558 827.67 176.795 827.483 176.151 827.108C175.51 826.729 175.016 826.203 174.668 825.528C174.319 824.85 174.145 824.064 174.145 823.17C174.145 822.269 174.319 821.481 174.668 820.807C175.016 820.129 175.51 819.602 176.151 819.227C176.795 818.848 177.558 818.659 178.44 818.659C179.323 818.659 180.084 818.848 180.724 819.227C181.368 819.602 181.865 820.129 182.213 820.807C182.562 821.481 182.736 822.269 182.736 823.17C182.736 824.064 182.562 824.85 182.213 825.528C181.865 826.203 181.368 826.729 180.724 827.108C180.084 827.483 179.323 827.67 178.44 827.67ZM178.452 825.795C178.853 825.795 179.188 825.682 179.457 825.455C179.726 825.223 179.929 824.909 180.065 824.511C180.205 824.114 180.276 823.661 180.276 823.153C180.276 822.646 180.205 822.193 180.065 821.795C179.929 821.398 179.726 821.083 179.457 820.852C179.188 820.621 178.853 820.506 178.452 820.506C178.046 820.506 177.705 820.621 177.429 820.852C177.156 821.083 176.95 821.398 176.81 821.795C176.673 822.193 176.605 822.646 176.605 823.153C176.605 823.661 176.673 824.114 176.81 824.511C176.95 824.909 177.156 825.223 177.429 825.455C177.705 825.682 178.046 825.795 178.452 825.795ZM186.73 822.455V827.5H184.31V818.773H186.616V820.312H186.719C186.912 819.805 187.236 819.403 187.69 819.108C188.145 818.809 188.696 818.659 189.344 818.659C189.95 818.659 190.478 818.792 190.929 819.057C191.38 819.322 191.73 819.701 191.98 820.193C192.23 820.682 192.355 821.265 192.355 821.943V827.5H189.935V822.375C189.938 821.841 189.802 821.424 189.526 821.125C189.249 820.822 188.868 820.67 188.384 820.67C188.058 820.67 187.77 820.741 187.52 820.881C187.274 821.021 187.08 821.225 186.94 821.494C186.804 821.759 186.734 822.08 186.73 822.455ZM198.905 818.773V820.591H193.649V818.773H198.905ZM194.842 816.682H197.263V824.818C197.263 825.042 197.297 825.216 197.365 825.341C197.433 825.462 197.528 825.547 197.649 825.597C197.774 825.646 197.918 825.67 198.081 825.67C198.195 825.67 198.308 825.661 198.422 825.642C198.536 825.619 198.623 825.602 198.683 825.591L199.064 827.392C198.943 827.43 198.772 827.473 198.553 827.523C198.333 827.576 198.066 827.608 197.751 827.619C197.168 827.642 196.657 827.564 196.217 827.386C195.782 827.208 195.443 826.932 195.2 826.557C194.958 826.182 194.839 825.708 194.842 825.136V816.682ZM200.482 827.5V818.773H202.902V827.5H200.482ZM201.697 817.648C201.338 817.648 201.029 817.528 200.771 817.29C200.518 817.047 200.391 816.758 200.391 816.42C200.391 816.087 200.518 815.801 200.771 815.562C201.029 815.32 201.338 815.199 201.697 815.199C202.057 815.199 202.364 815.32 202.618 815.562C202.875 815.801 203.004 816.087 203.004 816.42C203.004 816.758 202.875 817.047 202.618 817.29C202.364 817.528 202.057 817.648 201.697 817.648ZM207.261 822.455V827.5H204.841V818.773H207.148V820.312H207.25C207.443 819.805 207.767 819.403 208.222 819.108C208.676 818.809 209.227 818.659 209.875 818.659C210.481 818.659 211.009 818.792 211.46 819.057C211.911 819.322 212.261 819.701 212.511 820.193C212.761 820.682 212.886 821.265 212.886 821.943V827.5H210.466V822.375C210.47 821.841 210.333 821.424 210.057 821.125C209.78 820.822 209.4 820.67 208.915 820.67C208.589 820.67 208.301 820.741 208.051 820.881C207.805 821.021 207.612 821.225 207.472 821.494C207.335 821.759 207.265 822.08 207.261 822.455ZM220.391 823.784V818.773H222.811V827.5H220.487V825.915H220.396C220.199 826.426 219.872 826.837 219.413 827.148C218.959 827.458 218.404 827.614 217.749 827.614C217.165 827.614 216.652 827.481 216.209 827.216C215.766 826.951 215.419 826.574 215.169 826.085C214.923 825.597 214.798 825.011 214.794 824.33V818.773H217.214V823.898C217.218 824.413 217.357 824.82 217.629 825.119C217.902 825.419 218.268 825.568 218.726 825.568C219.018 825.568 219.29 825.502 219.544 825.369C219.798 825.233 220.002 825.032 220.158 824.767C220.317 824.502 220.394 824.174 220.391 823.784ZM227.236 827.665C226.679 827.665 226.183 827.568 225.747 827.375C225.312 827.178 224.967 826.888 224.713 826.506C224.463 826.119 224.338 825.638 224.338 825.062C224.338 824.578 224.427 824.17 224.605 823.841C224.783 823.511 225.026 823.246 225.332 823.045C225.639 822.845 225.988 822.693 226.378 822.591C226.772 822.489 227.185 822.417 227.616 822.375C228.124 822.322 228.533 822.273 228.844 822.227C229.154 822.178 229.38 822.106 229.52 822.011C229.66 821.917 229.73 821.777 229.73 821.591V821.557C229.73 821.197 229.616 820.919 229.389 820.722C229.166 820.525 228.848 820.426 228.435 820.426C227.999 820.426 227.652 820.523 227.395 820.716C227.137 820.905 226.967 821.144 226.884 821.432L224.645 821.25C224.759 820.72 224.982 820.261 225.315 819.875C225.649 819.485 226.079 819.186 226.605 818.977C227.135 818.765 227.749 818.659 228.446 818.659C228.931 818.659 229.395 818.716 229.838 818.83C230.285 818.943 230.681 819.119 231.026 819.358C231.374 819.597 231.649 819.903 231.849 820.278C232.05 820.65 232.151 821.095 232.151 821.614V827.5H229.855V826.29H229.787C229.647 826.562 229.459 826.803 229.224 827.011C228.99 827.216 228.707 827.377 228.378 827.494C228.048 827.608 227.668 827.665 227.236 827.665ZM227.929 825.994C228.285 825.994 228.599 825.924 228.872 825.784C229.145 825.64 229.359 825.447 229.514 825.205C229.67 824.962 229.747 824.687 229.747 824.381V823.455C229.671 823.504 229.567 823.549 229.435 823.591C229.306 823.629 229.16 823.665 228.997 823.699C228.834 823.729 228.671 823.758 228.509 823.784C228.346 823.807 228.198 823.828 228.065 823.847C227.781 823.888 227.533 823.955 227.321 824.045C227.109 824.136 226.944 824.259 226.827 824.415C226.709 824.566 226.651 824.756 226.651 824.983C226.651 825.312 226.77 825.564 227.009 825.739C227.251 825.909 227.558 825.994 227.929 825.994ZM234.028 827.5V818.773H236.375V820.295H236.466C236.625 819.754 236.892 819.345 237.267 819.068C237.642 818.788 238.074 818.648 238.562 818.648C238.684 818.648 238.814 818.655 238.955 818.67C239.095 818.686 239.218 818.706 239.324 818.733V820.881C239.21 820.847 239.053 820.816 238.852 820.79C238.652 820.763 238.468 820.75 238.301 820.75C237.945 820.75 237.627 820.828 237.347 820.983C237.07 821.134 236.85 821.347 236.688 821.619C236.528 821.892 236.449 822.206 236.449 822.562V827.5H234.028Z" fill="white"/>
</g>
<defs>
<clipPath id="clip0_89_468">
<rect width="402" height="874" fill="white"/>
</clipPath>
<clipPath id="clip1_89_468">
<rect width="92" height="8" fill="white" transform="translate(155 30)"/>
</clipPath>
</defs>
</svg>
